<svg width="182" height="59" viewBox="0 0 182 59" fill="none" xmlns="http://www.w3.org/2000/svg">
<g style="mix-blend-mode:multiply" opacity="0.75">
<path d="M168.244 8.68042H13.4903C6.52252 8.68042 0.874023 14.3288 0.874023 21.2966V45.5214C0.874023 52.4892 6.52252 58.1377 13.4903 58.1377H168.244C175.211 58.1377 180.86 52.4892 180.86 45.5214V21.2966C180.86 14.3288 175.211 8.68042 168.244 8.68042Z" fill="#D1D1D1"/>
<path d="M166.68 10.6143H15.064C8.54418 10.6143 3.25879 15.8995 3.25879 22.4194V43.9981C3.25879 50.5179 8.54418 55.8032 15.064 55.8032H166.68C173.2 55.8032 178.485 50.5179 178.485 43.9981V22.4194C178.485 15.8995 173.2 10.6143 166.68 10.6143Z" fill="#B9B9B9"/>
<path d="M165.115 12.5554H16.6368C10.5649 12.5554 5.64258 17.4776 5.64258 23.5495V42.4903C5.64258 48.5622 10.5649 53.4844 16.6368 53.4844H165.115C171.187 53.4844 176.109 48.5622 176.109 42.4903V23.5495C176.109 17.4776 171.187 12.5554 165.115 12.5554Z" fill="#A2A2A2"/>
<path d="M163.542 14.489H18.2017C12.5777 14.489 8.01855 19.0481 8.01855 24.6721V40.9666C8.01855 46.5905 12.5777 51.1498 18.2017 51.1498H163.542C169.166 51.1498 173.725 46.5905 173.725 40.9666V24.6721C173.725 19.0481 169.166 14.489 163.542 14.489Z" fill="#8B8B8B"/>
<path d="M161.977 16.4226H19.7661C14.5946 16.4226 10.4023 20.6151 10.4023 25.7866V39.4596C10.4023 44.6311 14.5946 48.8234 19.7661 48.8234H161.977C167.149 48.8234 171.341 44.6311 171.341 39.4596V25.7866C171.341 20.6151 167.149 16.4226 161.977 16.4226Z" fill="#747474"/>
<path d="M160.404 18.356H21.3311C16.6075 18.356 12.7783 22.1851 12.7783 26.9087V37.9356C12.7783 42.6592 16.6075 46.4884 21.3311 46.4884H160.404C165.128 46.4884 168.957 42.6592 168.957 37.9356V26.9087C168.957 22.1851 165.128 18.356 160.404 18.356Z" fill="#5D5D5D"/>
<path d="M158.84 20.2896H22.9039C18.6283 20.2896 15.1621 23.7558 15.1621 28.0315V36.4204C15.1621 40.6961 18.6283 44.1622 22.9039 44.1622H158.84C163.115 44.1622 166.581 40.6961 166.581 36.4204V28.0315C166.581 23.7558 163.115 20.2896 158.84 20.2896Z" fill="#464646"/>
<path d="M157.275 22.2312H24.4766C20.6489 22.2312 17.5459 25.3342 17.5459 29.1619V34.9047C17.5459 38.7325 20.6489 41.8354 24.4766 41.8354H157.275C161.102 41.8354 164.205 38.7325 164.205 34.9047V29.1619C164.205 25.3342 161.102 22.2312 157.275 22.2312Z" fill="#2E2E2E"/>
<path d="M155.694 24.1646H26.0415C22.6617 24.1646 19.9219 26.9046 19.9219 30.2844V33.3809C19.9219 36.7608 22.6617 39.5008 26.0415 39.5008H155.694C159.074 39.5008 161.813 36.7608 161.813 33.3809V30.2844C161.813 26.9046 159.074 24.1646 155.694 24.1646Z" fill="#171717"/>
<path d="M154.128 26.0977H27.6134C24.6815 26.0977 22.3047 28.4744 22.3047 31.4063V31.8651C22.3047 34.797 24.6815 37.1737 27.6134 37.1737H154.128C157.06 37.1737 159.437 34.797 159.437 31.8651V31.4063C159.437 28.4744 157.06 26.0977 154.128 26.0977Z" fill="black"/>
</g>
<g opacity="0.56">
<path opacity="0.8" d="M158.643 0.94751H25.6815C18.8088 0.94751 13.2373 6.51891 13.2373 13.3916V19.6097C13.2373 26.4825 18.8088 32.0539 25.6815 32.0539H158.643C165.516 32.0539 171.088 26.4825 171.088 19.6097V13.3916C171.088 6.51891 165.516 0.94751 158.643 0.94751Z" fill="#005AAA"/>
<path opacity="0.9" d="M155.948 1.69287H27.7538C20.9263 1.69287 15.3916 7.22772 15.3916 14.0552V18.004C15.3916 24.8315 20.9263 30.3661 27.7538 30.3661H155.948C162.775 30.3661 168.31 24.8315 168.31 18.004V14.0552C168.31 7.22772 162.775 1.69287 155.948 1.69287Z" fill="#005AAA"/>
<path d="M153.243 2.43848H29.8335C23.0467 2.43848 17.5449 7.94024 17.5449 14.727V16.3899C17.5449 23.1766 23.0467 28.6784 29.8335 28.6784H153.243C160.03 28.6784 165.532 23.1766 165.532 16.3899V14.727C165.532 7.94024 160.03 2.43848 153.243 2.43848Z" fill="#005AAA"/>
</g>
<path d="M168.318 1.25879H13.3928C6.02693 1.25879 0.0556641 7.23006 0.0556641 14.596V43.8344C0.0556641 51.2003 6.02693 57.1716 13.3928 57.1716H168.318C175.684 57.1716 181.655 51.2003 181.655 43.8344V14.596C181.655 7.23006 175.684 1.25879 168.318 1.25879Z" fill="#F0F5F7"/>
<path d="M71.5753 15.5625C73.5906 15.5625 74.7785 16.816 74.7785 18.946C74.7785 21.0761 73.5906 22.3376 71.5753 22.3376H69.2979V15.5625H71.5753ZM70.1499 21.5758H71.5262C73.0581 21.5758 73.9102 20.6335 73.9102 18.954C73.9102 17.2746 73.0909 16.3161 71.5262 16.3161H70.1499V21.5758Z" fill="#333333"/>
<path d="M75.9323 19.8967C75.9323 18.332 76.8498 17.3652 78.2016 17.3652C79.5533 17.3652 80.4545 18.332 80.4545 19.8967C80.4545 21.4615 79.5451 22.4201 78.2016 22.4201C77.8805 22.4234 77.5625 22.3582 77.2685 22.229C76.9746 22.0999 76.7116 21.9097 76.4969 21.671C76.2822 21.4323 76.1208 21.1505 76.0235 20.8446C75.9261 20.5387 75.895 20.2156 75.9323 19.8967ZM79.627 19.8967C79.627 18.7416 79.0618 18.0863 78.2016 18.0863C77.3414 18.0863 76.7679 18.7416 76.7679 19.8967C76.7679 21.0519 77.3332 21.699 78.2016 21.699C79.0699 21.699 79.627 21.0437 79.627 19.8967Z" fill="#333333"/>
<path d="M86.6074 22.338H85.7882L84.6822 18.5531L83.5844 22.338H82.7652L81.4053 17.4226H82.2245L83.1994 21.3878L84.3054 17.4226H85.1246L86.2306 21.3878L87.2055 17.4226H88.0247L86.6074 22.338Z" fill="#333333"/>
<path d="M89.1226 17.4549H89.8927V18.2331C90.0401 17.9549 90.2645 17.7251 90.5391 17.5711C90.8137 17.4171 91.1268 17.3453 91.441 17.3647C91.6748 17.3565 91.9076 17.3984 92.1238 17.4877C92.3401 17.5769 92.5346 17.7115 92.6945 17.8823C92.8544 18.053 92.9759 18.2561 93.0508 18.4777C93.1257 18.6993 93.1522 18.9342 93.1287 19.1669V22.3375H92.3095V19.3145C92.3095 18.4953 91.9326 18.0939 91.1871 18.0939C91.0099 18.0883 90.8337 18.1206 90.67 18.1887C90.5064 18.2567 90.3592 18.359 90.2382 18.4885C90.1172 18.618 90.0253 18.7718 89.9685 18.9397C89.9118 19.1076 89.8915 19.2856 89.9091 19.4619V22.3375H89.0898L89.1226 17.4549Z" fill="#333333"/>
<path d="M94.7109 15.5625H95.5302V22.3376H94.7109V15.5625Z" fill="#333333"/>
<path d="M96.8721 19.8967C96.8721 18.332 97.7814 17.3652 99.1332 17.3652C100.485 17.3652 101.394 18.332 101.394 19.8967C101.394 21.4615 100.477 22.4201 99.1332 22.4201C97.7896 22.4201 96.8721 21.4451 96.8721 19.8967ZM100.559 19.8967C100.559 18.7416 99.9934 18.0863 99.1332 18.0863C98.273 18.0863 97.6995 18.7416 97.6995 19.8967C97.6995 21.0519 98.2648 21.699 99.1332 21.699C100.002 21.699 100.591 21.0437 100.591 19.8967H100.559Z" fill="#333333"/>
<path d="M102.493 20.9535C102.493 20.1343 103.141 19.5936 104.263 19.5281L105.664 19.4461V19.0364C105.664 18.4466 105.271 18.0862 104.599 18.0862C104.348 18.0548 104.094 18.1167 103.885 18.2602C103.677 18.4037 103.529 18.6187 103.468 18.8644H102.649C102.676 18.6385 102.748 18.4204 102.86 18.2224C102.973 18.0245 103.123 17.8506 103.303 17.7112C103.483 17.5718 103.688 17.4694 103.908 17.41C104.128 17.3506 104.357 17.3354 104.582 17.3652C105.729 17.3652 106.45 17.9878 106.45 18.9626V22.338H105.672V21.5188C105.519 21.7996 105.292 22.0339 105.017 22.1968C104.742 22.3597 104.427 22.4452 104.107 22.4444C103.901 22.464 103.693 22.4399 103.496 22.3736C103.3 22.3073 103.119 22.2003 102.967 22.0596C102.815 21.9189 102.694 21.7478 102.612 21.5572C102.531 21.3666 102.49 21.1609 102.493 20.9535ZM105.664 20.4783V20.0769L104.361 20.1507C103.706 20.1917 103.329 20.4866 103.329 20.9699C103.329 21.4533 103.714 21.74 104.304 21.74C104.477 21.7499 104.65 21.7248 104.813 21.6662C104.976 21.6075 105.126 21.5166 105.253 21.3988C105.38 21.2809 105.481 21.1387 105.552 20.9805C105.623 20.8224 105.661 20.6515 105.664 20.4783Z" fill="#333333"/>
<path d="M107.76 19.8963C107.76 18.3643 108.579 17.3648 109.832 17.3648C110.147 17.3553 110.458 17.4319 110.733 17.5864C111.007 17.7409 111.234 17.9674 111.389 18.2414V15.5625H112.208V22.3376H111.389V21.5184C111.234 21.8004 111.005 22.0344 110.726 22.1948C110.447 22.3552 110.129 22.4359 109.808 22.4278C108.604 22.4196 107.76 21.4201 107.76 19.8963ZM108.579 19.8963C108.579 21.0023 109.128 21.6986 109.988 21.6986C110.848 21.6986 111.389 20.9859 111.389 19.8963C111.389 18.8067 110.832 18.0858 109.988 18.0858C109.144 18.0858 108.595 18.7903 108.595 19.8963H108.579Z" fill="#333333"/>
<path d="M116.018 19.8967C116.018 18.332 116.927 17.3652 118.279 17.3652C119.63 17.3652 120.54 18.332 120.54 19.8967C120.54 21.4615 119.63 22.4201 118.279 22.4201C116.927 22.4201 116.018 21.4451 116.018 19.8967ZM119.712 19.8967C119.712 18.7416 119.147 18.0863 118.279 18.0863C117.41 18.0863 116.845 18.7416 116.845 19.8967C116.845 21.0519 117.418 21.699 118.279 21.699C119.139 21.699 119.712 21.0437 119.712 19.8967Z" fill="#333333"/>
<path d="M121.843 17.4549H122.613V18.2331C122.76 17.9549 122.984 17.7251 123.259 17.5711C123.534 17.4171 123.847 17.3453 124.161 17.3647C124.395 17.3552 124.629 17.3963 124.846 17.4851C125.064 17.5738 125.259 17.7082 125.42 17.8791C125.581 18.05 125.703 18.2533 125.778 18.4755C125.854 18.6977 125.88 18.9335 125.857 19.1669V22.3375H125.038V19.3145C125.038 18.4953 124.669 18.0939 123.915 18.0939C123.738 18.0882 123.562 18.1204 123.399 18.1885C123.236 18.2566 123.089 18.359 122.969 18.4887C122.848 18.6184 122.757 18.7724 122.701 18.9403C122.646 19.1082 122.627 19.286 122.645 19.4619V22.3375H121.826L121.843 17.4549Z" fill="#333333"/>
<path d="M130.903 16.2755V17.4552H131.854V18.127H130.903V21.0269C130.903 21.4693 131.092 21.6742 131.51 21.6742H131.846V22.3624C131.674 22.378 131.501 22.378 131.329 22.3624C130.436 22.3624 130.084 22.0019 130.084 21.0597V18.1188H129.363V17.447H130.084V16.2673L130.903 16.2755Z" fill="#333333"/>
<path d="M133.261 15.5625H134.08V18.2332C134.227 17.955 134.452 17.7252 134.726 17.5712C135.001 17.4172 135.314 17.3455 135.628 17.3648C135.866 17.3514 136.104 17.3901 136.326 17.4782C136.547 17.5663 136.747 17.7016 136.911 17.8748C137.074 18.048 137.198 18.2548 137.274 18.4808C137.35 18.7069 137.375 18.9466 137.349 19.1835V22.3376H136.529V19.3311C136.553 19.1702 136.541 19.0058 136.492 18.8504C136.444 18.6951 136.361 18.5527 136.25 18.4338C136.139 18.3149 136.003 18.2227 135.851 18.1638C135.699 18.105 135.536 18.0811 135.374 18.094C135.193 18.0859 135.012 18.1171 134.844 18.1854C134.675 18.2537 134.524 18.3574 134.399 18.4896C134.275 18.6218 134.18 18.7794 134.122 18.9514C134.064 19.1235 134.044 19.3061 134.063 19.4867V22.3376H133.244L133.261 15.5625Z" fill="#333333"/>
<path d="M142.922 20.9372C142.816 21.3861 142.553 21.7821 142.18 22.054C141.808 22.326 141.35 22.4559 140.89 22.4201C139.498 22.4201 138.646 21.4451 138.646 19.9131C138.646 18.3812 139.506 17.3652 140.857 17.3652C142.209 17.3652 142.987 18.3237 142.987 19.8229V20.1344H139.481C139.459 20.3334 139.479 20.5349 139.542 20.7252C139.604 20.9155 139.707 21.09 139.843 21.237C139.979 21.384 140.145 21.4999 140.33 21.5768C140.515 21.6537 140.715 21.6898 140.915 21.6826C141.172 21.7052 141.43 21.6419 141.648 21.5026C141.866 21.3633 142.031 21.1559 142.119 20.9126L142.922 20.9372ZM139.489 19.4789H142.144C142.156 19.3001 142.131 19.1205 142.072 18.9515C142.012 18.7825 141.918 18.6276 141.796 18.4963C141.674 18.365 141.526 18.26 141.362 18.1881C141.198 18.1161 141.02 18.0788 140.841 18.0781C140.66 18.0802 140.481 18.1181 140.315 18.1899C140.149 18.2616 139.998 18.3658 139.873 18.4961C139.747 18.6264 139.648 18.7804 139.582 18.9491C139.517 19.1178 139.485 19.2979 139.489 19.4789Z" fill="#333333"/>
<path d="M73.5076 27.7612H75.6213L80.1926 40.3694H78.1445L76.9894 36.9614H72.1313L70.9762 40.3694H68.9199L73.5076 27.7612ZM72.6884 35.3884H76.4896L74.6136 29.8503L72.6884 35.3884Z" fill="#333333"/>
<path d="M82.248 31.1771H84.1405V32.7581H84.206C84.4651 32.2196 84.8744 31.7676 85.3846 31.4565C85.8949 31.1454 86.4842 30.9887 87.0816 31.0051C89.4164 31.0051 90.9238 32.84 90.9238 35.7729C90.9238 38.6975 89.4082 40.5409 87.1061 40.5409C86.5086 40.5572 85.9188 40.4033 85.4053 40.0973C84.8919 39.7912 84.476 39.3457 84.206 38.8124H84.1651V43.4164H82.2726L82.248 31.1771ZM88.974 35.7811C88.974 33.8231 88.0401 32.6271 86.5654 32.6271C85.0908 32.6271 84.1077 33.8641 84.1077 35.7811C84.1077 37.6817 85.1154 38.927 86.5654 38.927C88.0155 38.927 88.974 37.7227 88.974 35.7811Z" fill="#333333"/>
<path d="M93.2188 31.1777H95.103V32.7588H95.1521C95.4098 32.2209 95.8176 31.7692 96.3265 31.4581C96.8353 31.147 97.4233 30.9899 98.0195 31.0057C100.362 31.0057 101.862 32.8407 101.862 35.7735C101.862 38.6982 100.354 40.5415 98.0522 40.5415C97.4547 40.5578 96.8649 40.404 96.3514 40.0979C95.838 39.7919 95.4221 39.3464 95.1521 38.8131H95.103V43.4171H93.2188V31.1777ZM99.9447 35.7817C99.9447 33.8238 99.0107 32.6278 97.5361 32.6278C96.0615 32.6278 95.0784 33.8647 95.0784 35.7817C95.0784 37.6824 96.0943 38.9277 97.5361 38.9277C98.978 38.9277 99.9774 37.7233 99.9774 35.7817H99.9447Z" fill="#333333"/>
<path d="M108.439 37.0106V36.8796H110.34V36.9942C110.52 38.1575 111.675 38.8785 113.363 38.8785C115.051 38.8785 116.116 38.1249 116.116 36.9452C116.116 35.9293 115.428 35.3804 113.756 35.0117L112.388 34.7249C109.93 34.2006 108.718 33.0866 108.718 31.1942C108.718 29.0478 110.619 27.573 113.289 27.573C115.96 27.573 117.713 29.0067 117.844 31.1204V31.2678H115.944V31.145C115.763 29.9734 114.756 29.2689 113.257 29.2689C111.757 29.2689 110.701 30.0144 110.701 31.1204C110.701 32.0625 111.413 32.636 112.986 32.98L114.371 33.2668C116.968 33.8157 118.09 34.9052 118.09 36.8222C118.09 39.1161 116.271 40.5744 113.289 40.5744C110.463 40.558 108.595 39.2307 108.439 37.0106Z" fill="#333333"/>
<path d="M121.074 37.9446V32.6768H119.755V31.1777H121.074V28.7854H122.999V31.1777H124.719V32.6768H122.999V37.8298C122.999 38.7719 123.417 39.0504 124.212 39.0504C124.381 39.0613 124.55 39.0613 124.719 39.0504V40.5087C124.403 40.5641 124.082 40.5915 123.761 40.5907C121.893 40.5579 121.074 39.7797 121.074 37.9446Z" fill="#333333"/>
<path d="M126.528 35.7729C126.528 32.84 128.265 31.0215 130.87 31.0215C133.475 31.0215 135.237 32.8236 135.237 35.7729C135.237 38.7303 133.508 40.5491 130.878 40.5491C128.249 40.5491 126.528 38.7221 126.528 35.7729ZM133.312 35.7729C133.312 33.7658 132.353 32.6026 130.854 32.6026C129.355 32.6026 128.437 33.7658 128.437 35.7729C128.437 37.8046 129.396 38.968 130.895 38.968C132.394 38.968 133.312 37.7964 133.312 35.7729Z" fill="#333333"/>
<path d="M137.598 31.1771H139.483V32.75C139.579 32.2598 139.842 31.8181 140.228 31.4999C140.613 31.1818 141.097 31.0071 141.596 31.0051C141.816 31.0083 142.035 31.0301 142.252 31.0705V32.832C141.986 32.7519 141.71 32.7158 141.432 32.7254C141.154 32.7145 140.877 32.7647 140.62 32.8724C140.363 32.9801 140.133 33.1427 139.946 33.3488C139.758 33.5549 139.618 33.7995 139.535 34.0655C139.453 34.3314 139.429 34.6123 139.466 34.8883V40.3689H137.582L137.598 31.1771Z" fill="#333333"/>
<path d="M143.552 35.8058C143.552 32.9303 145.19 31.0134 147.787 31.0134C150.384 31.0134 151.949 32.8648 151.949 35.6256V36.2565H145.436C145.477 38.0014 146.427 39.0092 147.894 39.0092C148.332 39.0474 148.771 38.9458 149.147 38.7192C149.524 38.4925 149.819 38.1524 149.991 37.7475V37.6737H151.785V37.7721C151.49 39.2304 150.073 40.5574 147.845 40.5574C145.19 40.5574 143.552 38.7059 143.552 35.8058ZM145.469 34.913H150.081C149.917 33.3237 149.032 32.5453 147.795 32.5453C147.487 32.5474 147.182 32.6105 146.898 32.7307C146.614 32.8509 146.357 33.0262 146.14 33.2461C145.924 33.4661 145.754 33.7265 145.638 34.0126C145.523 34.2986 145.466 34.6046 145.469 34.913Z" fill="#333333"/>
<path d="M52.1089 25.2628C51.1254 25.8777 50.3048 26.7208 49.7167 27.7205C49.2893 28.5483 49.0699 29.4678 49.0777 30.3994C49.0676 31.1135 49.1956 31.8227 49.4545 32.4883C49.7174 33.1364 50.0765 33.7414 50.5196 34.2826C51.1682 34.9913 51.9506 35.5647 52.8216 35.9701C52.3514 37.298 51.7008 38.5551 50.8882 39.7058C50.2402 40.7215 49.4388 41.6308 48.5124 42.4011C47.9397 42.8889 47.2235 43.1765 46.4725 43.2204C45.7551 43.1765 45.0508 43.0073 44.3917 42.7206L43.9821 42.5731L43.3103 42.2947C42.803 42.1416 42.2754 42.067 41.7456 42.0735C41.0671 42.0902 40.3965 42.2232 39.763 42.4667L39.2469 42.6552L38.5997 42.9172C38.1065 43.1121 37.5816 43.2149 37.0513 43.2204C35.9617 43.2204 34.7902 42.4503 33.545 40.9265C32.3328 39.4589 31.3772 37.797 30.7186 36.0111C30.0907 34.3056 29.7663 32.5034 29.7601 30.686C29.6941 28.5987 30.3934 26.5591 31.7263 24.9514C32.385 24.1871 33.209 23.5827 34.1358 23.1839C35.0626 22.7851 36.068 22.6022 37.0759 22.6493C37.8658 22.6427 38.6488 22.796 39.378 23.0999L39.8695 23.2965L40.3856 23.5095C40.7313 23.6692 41.1034 23.7638 41.4834 23.7881C41.8962 23.7855 42.3048 23.7049 42.6877 23.5505L43.3758 23.2965L43.8756 23.0999C44.7283 22.7892 45.6306 22.6365 46.5381 22.6493C47.6074 22.6116 48.6703 22.8291 49.639 23.2835C50.6077 23.7379 51.4543 24.4164 52.1089 25.2628ZM46.6446 15.0142C46.6446 15.3255 46.6937 15.5712 46.6937 15.7432C46.671 16.7117 46.4032 17.6588 45.9155 18.4959C45.4458 19.3974 44.7481 20.16 43.892 20.7078C43.0691 21.2282 42.1128 21.4985 41.1393 21.486C41.1049 21.2388 41.083 20.9901 41.0738 20.7406C41.0974 19.8964 41.331 19.0713 41.7537 18.3401C42.2022 17.4998 42.8284 16.7674 43.5888 16.1938C44.3606 15.612 45.2638 15.2293 46.2186 15.0796L46.6446 15.0142Z" fill="#333333"/>
</svg>
