<svg width="168" height="87" viewBox="0 0 168 87" fill="none" xmlns="http://www.w3.org/2000/svg">
<path d="M155.282 1H12.5637C6.17722 1 1 6.17722 1 12.5637V74.2366C1 80.623 6.17722 85.8002 12.5637 85.8002H155.282C161.669 85.8002 166.846 80.623 166.846 74.2366V12.5637C166.846 6.17722 161.669 1 155.282 1Z" stroke="#231F20" stroke-width="2" stroke-miterlimit="10"/>
<path d="M57.5631 62.4718L55.861 56.765H42.6456L40.9434 62.4718H29.9805L43.0959 22.7249H55.4607L68.5762 62.4718H57.5631ZM45.2485 48.0047H53.2581L49.2033 34.4889L45.2485 48.0047Z" fill="black"/>
<path d="M95.5062 22.7249V32.7367H85.4944V62.7722H75.4825V32.7367H65.4707V22.7249H95.5062Z" fill="black"/>
<path d="M140.11 22.7258V62.4727H130.098V40.9474L120.437 56.8661H119.435L110.074 40.9474V62.2726H100.062V22.5256H110.074L120.086 39.4958L130.098 22.5256L140.11 22.7258Z" fill="black"/>
</svg>
