<svg width="39" height="80" viewBox="0 0 39 80" fill="none" xmlns="http://www.w3.org/2000/svg">
<path d="M8.16992 58.0498V61.8998H27.8999V78.3398C28.6763 78.3113 29.4115 77.9827 29.9506 77.4232C30.4896 76.8636 30.7904 76.1167 30.7899 75.3398V58.0498H8.16992Z" fill="#4DA3E2"/>
<path d="M28.4595 1.77985H28.1895V18.7199H8.18945V22.0299H30.8094V4.02985C30.803 3.72779 30.737 3.42996 30.6154 3.15339C30.4937 2.87682 30.3188 2.62692 30.1006 2.41797C29.8824 2.20903 29.6251 2.04517 29.3435 1.93567C29.0619 1.82618 28.7615 1.77321 28.4595 1.77985Z" fill="#4DA3E2"/>
<path d="M34.7002 22.0294H34.2802V51.9494C34.2802 52.6893 33.9862 53.399 33.463 53.9222C32.9398 54.4454 32.2302 54.7394 31.4902 54.7394H1.49023V55.2593C1.49023 55.9993 1.78415 56.709 2.30737 57.2322C2.8306 57.7554 3.5402 58.0494 4.28015 58.0494H34.7202C35.4602 58.0494 36.1698 57.7554 36.693 57.2322C37.2162 56.709 37.5103 55.9993 37.5103 55.2593V24.8193C37.5103 24.4513 37.4374 24.0868 37.2959 23.747C37.1544 23.4072 36.9472 23.0988 36.686 22.8394C36.4248 22.5801 36.1149 22.375 35.774 22.236C35.4332 22.0969 35.0683 22.0267 34.7002 22.0294Z" fill="#4DA3E2"/>
<path d="M34.6987 58.0493V57.0493H4.25879C3.78405 57.0493 3.32873 56.8607 2.99304 56.525C2.65735 56.1893 2.46875 55.734 2.46875 55.2593V24.8193C2.46875 24.3445 2.65735 23.8893 2.99304 23.5536C3.32873 23.2179 3.78405 23.0293 4.25879 23.0293H34.6987C35.1727 23.0319 35.6264 23.2213 35.9615 23.5565C36.2967 23.8916 36.4861 24.3453 36.4888 24.8193V55.2593C36.4888 55.734 36.3002 56.1893 35.9645 56.525C35.6288 56.8607 35.1735 57.0493 34.6987 57.0493V59.0493C35.7039 59.0493 36.6679 58.65 37.3787 57.9392C38.0894 57.2284 38.4888 56.2644 38.4888 55.2593V24.8193C38.4861 23.8149 38.0859 22.8525 37.3757 22.1423C36.6655 21.4321 35.7031 21.0319 34.6987 21.0293H4.25879C3.25362 21.0293 2.28962 21.4286 1.57886 22.1393C0.868095 22.8501 0.46875 23.8141 0.46875 24.8193V55.2593C0.46875 56.2644 0.868095 57.2284 1.57886 57.9392C2.28962 58.65 3.25362 59.0493 4.25879 59.0493H34.6987V58.0493Z" fill="#212121"/>
<path d="M30.7899 22.0293V21.0293H9.16994V4.02925C9.17258 3.68621 9.3107 3.35811 9.55422 3.11647C9.79773 2.87483 10.1269 2.73926 10.47 2.73927H28.47C28.813 2.73926 29.1422 2.87483 29.3858 3.11647C29.6293 3.35811 29.7674 3.68621 29.77 4.02925V22.0293H30.77H31.77V4.02925C31.77 3.59636 31.6845 3.16771 31.5186 2.7679C31.3526 2.36808 31.1094 2.00493 30.8029 1.69929C30.4963 1.39366 30.1324 1.15158 29.7321 0.986832C29.3318 0.822083 28.9029 0.737957 28.47 0.739273H10.47C10.0371 0.737957 9.60822 0.822083 9.2079 0.986832C8.80759 1.15158 8.44367 1.39366 8.1371 1.69929C7.83054 2.00493 7.58737 2.36808 7.4214 2.7679C7.25544 3.16771 7.16994 3.59636 7.16994 4.02925V22.0293C7.16918 22.1609 7.19439 22.2913 7.24416 22.4132C7.29392 22.535 7.3673 22.6458 7.45998 22.7393C7.55342 22.832 7.66419 22.9053 7.78603 22.955C7.90786 23.0048 8.03833 23.03 8.16994 23.0293H30.7899C31.0523 23.0281 31.3037 22.924 31.49 22.7393C31.5845 22.6467 31.6596 22.5362 31.7111 22.4143C31.7626 22.2924 31.7894 22.1616 31.7899 22.0293H30.7899Z" fill="#212121"/>
<path d="M27.749 78.3398V77.3398H11.209C10.6786 77.3398 10.1699 77.129 9.7948 76.754C9.41973 76.3789 9.20898 75.8702 9.20898 75.3398V59.0498H29.829V75.2698C29.8139 75.7954 29.5983 76.2954 29.2264 76.6673C28.8546 77.0391 28.3546 77.2547 27.829 77.2698V79.2698C28.8898 79.2698 29.9073 78.8484 30.6575 78.0982C31.4076 77.3481 31.829 76.3306 31.829 75.2698V58.0498C31.8284 57.9175 31.8016 57.7866 31.7501 57.6647C31.6986 57.5429 31.6234 57.4324 31.5289 57.3398C31.3427 57.155 31.0913 57.0509 30.829 57.0498H8.20898C7.94377 57.0498 7.68937 57.1551 7.50183 57.3427C7.31429 57.5302 7.20898 57.7846 7.20898 58.0498V75.2698C7.20898 76.3306 7.63047 77.3481 8.38062 78.0982C9.13076 78.8484 10.1481 79.2698 11.209 79.2698H27.749V78.3398Z" fill="#212121"/>
<path d="M15.4595 47.2192C15.9936 46.684 16.6279 46.2594 17.3263 45.9697C18.0247 45.68 18.7733 45.5309 19.5294 45.5309C20.2855 45.5309 21.0343 45.68 21.7327 45.9697C22.4311 46.2594 23.0654 46.684 23.5995 47.2192L25.0195 45.7992C24.2978 45.0759 23.4405 44.5022 22.4967 44.1107C21.5529 43.7192 20.5413 43.5176 19.5195 43.5176C18.4978 43.5176 17.486 43.7192 16.5422 44.1107C15.5985 44.5022 14.7413 45.0759 14.0195 45.7992L15.4395 47.2192H15.4595Z" fill="#212121"/>
<path d="M10.9794 42.9293C12.0942 41.8105 13.4189 40.9229 14.8776 40.3172C16.3362 39.7115 17.9 39.3998 19.4794 39.3998C21.0587 39.3998 22.6226 39.7115 24.0812 40.3172C25.5398 40.9229 26.8645 41.8105 27.9794 42.9293L29.3894 41.5192C28.089 40.2161 26.5442 39.1822 24.8438 38.4767C23.1433 37.7713 21.3204 37.4082 19.4794 37.4082C17.6384 37.4082 15.8154 37.7713 14.1149 38.4767C12.4144 39.1822 10.8697 40.2161 9.56934 41.5192L10.9794 42.9293Z" fill="#212121"/>
<path d="M7.45996 38.3393C9.03998 36.7489 10.919 35.4868 12.9888 34.6255C15.0585 33.7642 17.2782 33.3208 19.52 33.3208C21.7618 33.3208 23.9815 33.7642 26.0513 34.6255C28.121 35.4868 29.9999 36.7489 31.58 38.3393L33 36.9193C31.2286 35.1439 29.1244 33.7352 26.8079 32.7741C24.4913 31.813 22.008 31.3184 19.5 31.3184C16.992 31.3184 14.5085 31.813 12.192 32.7741C9.87548 33.7352 7.77138 35.1439 6 36.9193L7.45996 38.3393Z" fill="#212121"/>
</svg>
