<svg width="35" height="35" viewBox="0 0 35 35" fill="none" xmlns="http://www.w3.org/2000/svg">
<mask id="mask0_16_4125" style="mask-type:luminance" maskUnits="userSpaceOnUse" x="0" y="0" width="35" height="35">
<path d="M27.3633 0H7.63667C5.61129 0 3.66887 0.804499 2.23671 2.23666C0.804554 3.66881 0 5.61135 0 7.63672V27.3634C0 29.3888 0.804554 31.3311 2.23671 32.7632C3.66887 34.1954 5.61129 34.9999 7.63667 34.9999H27.3633C29.3879 34.9975 31.329 34.1923 32.7606 32.7606C34.1923 31.329 34.9976 29.388 35 27.3634V7.63672C35 5.61135 34.1954 3.66881 32.7632 2.23666C31.3311 0.804499 29.3887 0 27.3633 0Z" fill="white"/>
</mask>
<g mask="url(#mask0_16_4125)">
<path d="M27.3633 0H7.63667C5.61129 0 3.66887 0.804499 2.23671 2.23666C0.804554 3.66881 0 5.61135 0 7.63672V27.3634C0 29.3888 0.804554 31.3311 2.23671 32.7632C3.66887 34.1954 5.61129 34.9999 7.63667 34.9999H27.3633C29.3879 34.9975 31.329 34.1923 32.7606 32.7606C34.1923 31.329 34.9976 29.388 35 27.3634V7.63672C35 5.61135 34.1954 3.66881 32.7632 2.23666C31.3311 0.804499 29.3887 0 27.3633 0Z" fill="#3B5998"/>
<path d="M26.9258 12.2868C27.0255 12.2823 27.1197 12.2401 27.1895 12.1687C27.2592 12.0973 27.2992 12.0021 27.3014 11.9023C27.3014 7.18978 27.4444 7.04656 26.9169 7.0555C21.0329 7.10021 16.991 8.27164 16.991 14.2093C16.991 17.0708 17.1072 17.357 16.6154 17.357C13.0922 17.357 12.7971 17.223 12.7971 17.7417C12.7971 22.2128 12.6361 22.5883 13.1726 22.5883C16.6869 22.5883 16.991 22.4452 16.991 22.9638C16.991 35.483 16.83 35.0896 17.3755 35.0896C21.8466 35.0896 22.2222 35.2506 22.2222 34.7051C22.2222 22.1859 22.0612 22.5883 22.5978 22.5883C26.2999 22.5883 26.4608 22.7044 26.5145 22.2484C27.051 17.7236 27.2656 17.357 26.6665 17.357H22.5978C22.0881 17.357 22.2222 17.0172 22.2222 14.2093C22.1864 12.8322 21.9718 12.3226 26.9258 12.2868Z" fill="white"/>
</g>
</svg>
