<svg width="183" height="57" viewBox="0 0 183 57" fill="none" xmlns="http://www.w3.org/2000/svg">
<path d="M168.938 0.281494H13.4474C6.05458 0.281494 0.0615234 6.27455 0.0615234 13.6673V43.0125C0.0615234 50.4053 6.05458 56.3983 13.4474 56.3983H168.938C176.331 56.3983 182.324 50.4053 182.324 43.0125V13.6673C182.324 6.27455 176.331 0.281494 168.938 0.281494Z" fill="#F0F5F7"/>
<path d="M71.7754 18.9213C71.7939 19.2884 71.7378 19.6555 71.6107 20.0003C71.4835 20.3451 71.2878 20.6604 71.0354 20.9275C70.7496 21.2224 70.405 21.4538 70.024 21.6068C69.6429 21.7598 69.2339 21.831 68.8236 21.8156C68.4114 21.8212 68.0024 21.7438 67.6207 21.5882C67.239 21.4325 66.8925 21.2017 66.6018 20.9095C66.3111 20.6172 66.0821 20.2696 65.9285 19.8871C65.7748 19.5046 65.6996 19.095 65.7073 18.6829C65.6952 18.2678 65.7693 17.8548 65.925 17.4698C66.0807 17.0848 66.3145 16.7364 66.6118 16.4464C66.9004 16.1542 67.2451 15.9234 67.6252 15.7679C68.0053 15.6125 68.413 15.5358 68.8236 15.5421C69.2482 15.5384 69.6686 15.6251 70.0569 15.7968C70.4205 15.9408 70.7445 16.1691 71.0025 16.4629L70.4681 16.9975C70.2674 16.7598 70.0146 16.5715 69.7294 16.4474C69.4442 16.3234 69.1343 16.2668 68.8236 16.282C68.5188 16.2769 68.2161 16.3332 67.9336 16.4476C67.651 16.5621 67.3945 16.7323 67.1792 16.9481C66.7247 17.4095 66.47 18.0312 66.47 18.6789C66.47 19.3265 66.7247 19.9482 67.1792 20.4096C67.3929 20.628 67.649 20.8005 67.9318 20.9165C68.2145 21.0324 68.518 21.0894 68.8236 21.0839C69.1289 21.0875 69.4318 21.0295 69.7143 20.9137C69.9968 20.7978 70.2531 20.6265 70.4681 20.4096C70.7792 20.0787 70.9602 19.6466 70.9778 19.1927H68.8071V18.4691H71.7178C71.7526 18.6174 71.7719 18.769 71.7754 18.9213Z" fill="#333333"/>
<path d="M76.3969 16.4132H73.659V18.3455H76.1256V19.069H73.659V20.9684H76.3969V21.7085H72.9189V15.698H76.4299L76.3969 16.4132Z" fill="#333333"/>
<path d="M79.6527 21.6843H78.8798V16.4138H77.2354V15.6738H81.3465V16.4138H79.702L79.6527 21.6843Z" fill="#333333"/>
<path d="M84.3154 21.6843V15.6738H85.0883V21.6843H84.3154Z" fill="#333333"/>
<path d="M88.5409 21.6843H87.7187V16.4138H86.0742V15.6738H90.1853V16.4138H88.5409V21.6843Z" fill="#333333"/>
<path d="M98.013 20.9113C97.4264 21.4917 96.6346 21.8172 95.8094 21.8172C94.9842 21.8172 94.1923 21.4917 93.6058 20.9113C93.0356 20.3095 92.7178 19.5119 92.7178 18.6829C92.7178 17.8539 93.0356 17.0564 93.6058 16.4547C93.8945 16.1655 94.2373 15.9363 94.6148 15.7798C94.9922 15.6233 95.3967 15.5427 95.8053 15.5427C96.2138 15.5427 96.6184 15.6233 96.9958 15.7798C97.3732 15.9363 97.7161 16.1655 98.0047 16.4547C98.5641 17.0619 98.8746 17.8573 98.8746 18.6829C98.8746 19.5085 98.5641 20.304 98.0047 20.9113H98.013ZM94.1731 20.4014C94.3869 20.6212 94.6426 20.796 94.925 20.9153C95.2075 21.0346 95.511 21.096 95.8176 21.096C96.1242 21.096 96.4277 21.0346 96.7102 20.9153C96.9926 20.796 97.2482 20.6212 97.462 20.4014C97.6842 20.1754 97.8579 19.9064 97.9725 19.6109C98.087 19.3154 98.1399 18.9996 98.128 18.6829C98.1391 18.365 98.0858 18.0484 97.9714 17.7517C97.857 17.4549 97.6837 17.1844 97.462 16.9563C97.2471 16.7386 96.9911 16.5657 96.7088 16.4477C96.4265 16.3296 96.1235 16.2688 95.8176 16.2688C95.5116 16.2688 95.2087 16.3296 94.9264 16.4477C94.6441 16.5657 94.3881 16.7386 94.1731 16.9563C93.9515 17.1844 93.7783 17.4549 93.6638 17.7517C93.5494 18.0484 93.4961 18.365 93.5071 18.6829C93.4953 18.9996 93.5482 19.3154 93.6627 19.6109C93.7773 19.9064 93.9509 20.1754 94.1731 20.4014Z" fill="#333333"/>
<path d="M99.9785 21.6843V15.6738H100.916L103.835 20.3522V19.193V15.6738H104.608V21.6843H103.785L100.735 16.751V17.9103V21.6514L99.9785 21.6843Z" fill="#333333"/>
<path d="M92.529 30.4489C91.3928 30.4385 90.2988 30.879 89.4868 31.674C89.0824 32.0881 88.7649 32.579 88.5533 33.1177C88.3417 33.6565 88.2402 34.2323 88.2548 34.811C88.2693 35.3896 88.3997 35.9595 88.6381 36.4869C88.8766 37.0144 89.2183 37.4887 89.6431 37.8819C90.4184 38.5597 91.4072 38.9433 92.4368 38.9659C93.4664 38.9884 94.4711 38.6483 95.2753 38.0051C95.7601 37.6063 96.1492 37.1039 96.4139 36.5347C96.6786 35.9655 96.8121 35.3439 96.8046 34.7162C96.8136 34.153 96.7089 33.5938 96.497 33.072C96.2851 32.5501 95.9703 32.0764 95.5712 31.6788C95.1722 31.2813 94.6972 30.9684 94.1745 30.7585C93.6518 30.5486 93.0922 30.446 92.529 30.4572V30.4489ZM92.529 37.2899C92.0101 37.3279 91.4917 37.2087 91.0414 36.9478C90.5912 36.6869 90.23 36.2965 90.0049 35.8273C89.7797 35.3581 89.7012 34.832 89.7794 34.3176C89.8576 33.8031 90.0889 33.3242 90.4433 32.9431C90.7977 32.562 91.2586 32.2964 91.766 32.1811C92.2735 32.0658 92.8039 32.106 93.2881 32.2965C93.7724 32.487 94.188 32.8191 94.4809 33.2492C94.7737 33.6794 94.9302 34.1876 94.93 34.708C94.9409 35.0333 94.8874 35.3576 94.7724 35.6621C94.6575 35.9666 94.4834 36.2456 94.2602 36.4825C94.037 36.7195 93.7692 36.9098 93.4721 37.0428C93.1749 37.1757 92.8544 37.2485 92.529 37.257V37.2899ZM83.205 30.4489C82.3565 30.4444 81.525 30.6874 80.8123 31.1479C80.2238 31.5345 79.7426 32.0635 79.4134 32.686C79.0843 33.3084 78.9178 34.004 78.9295 34.708C78.9223 35.2743 79.0293 35.8364 79.244 36.3605C79.4587 36.8846 79.7768 37.3601 80.1793 37.7586C80.9903 38.5428 82.0769 38.9769 83.205 38.9673C84.1367 38.9774 85.0471 38.6893 85.8032 38.145C86.3254 37.7447 86.7462 37.2274 87.0318 36.6347C87.3174 36.042 87.4599 35.3905 87.4477 34.7327C87.4531 33.9644 87.2515 33.209 86.864 32.5456C86.4917 31.9058 85.9576 31.3752 85.3153 31.0072C84.673 30.6391 83.9453 30.4466 83.205 30.4489ZM83.205 37.2899C82.6861 37.3279 82.1677 37.2087 81.7174 36.9478C81.2672 36.6869 80.9059 36.2965 80.6808 35.8273C80.4557 35.3581 80.3771 34.832 80.4553 34.3176C80.5335 33.8031 80.7649 33.3242 81.1193 32.9431C81.4736 32.562 81.9346 32.2964 82.442 32.1811C82.9495 32.0658 83.4798 32.106 83.9641 32.2965C84.4483 32.487 84.864 32.8191 85.1568 33.2492C85.4497 33.6794 85.6062 34.1876 85.6059 34.708C85.6169 35.0333 85.5633 35.3576 85.4484 35.6621C85.3335 35.9666 85.1594 36.2456 84.9362 36.4825C84.713 36.7195 84.4451 36.9098 84.148 37.0428C83.8509 37.1757 83.5304 37.2485 83.205 37.257V37.2899ZM72.105 31.7563V33.5652H76.4299C76.3667 34.4113 76.0189 35.2112 75.4432 35.8345C75.0112 36.2776 74.4906 36.6244 73.9154 36.8525C73.3401 37.0806 72.7232 37.1848 72.105 37.1582C70.8648 37.1069 69.6924 36.5782 68.8331 35.6826C67.9737 34.7869 67.4938 33.5936 67.4938 32.3523C67.4938 31.1111 67.9737 29.9179 68.8331 29.0223C69.6924 28.1266 70.8648 27.5978 72.105 27.5464C72.7112 27.5345 73.3138 27.6425 73.8782 27.864C74.4426 28.0855 74.9577 28.4163 75.3939 28.8374L76.6766 27.5629C76.0739 26.9685 75.358 26.5014 74.5712 26.1893C73.7845 25.8771 72.943 25.7263 72.0968 25.7458C70.8935 25.7478 69.7126 26.0713 68.6763 26.6831C67.6693 27.2722 66.8371 28.1185 66.265 29.1353C65.6929 30.1521 65.4016 31.3028 65.4208 32.4694C65.4401 33.6359 65.7692 34.7763 66.3745 35.7737C66.9798 36.7711 67.8395 37.5895 68.8654 38.145C69.8567 38.6853 70.9678 38.968 72.0968 38.9673C72.9537 39.0046 73.8087 38.858 74.6043 38.5375C75.3999 38.217 76.1177 37.73 76.7094 37.109C77.7676 35.9611 78.3317 34.443 78.2799 32.8827C78.2841 32.5049 78.251 32.1277 78.1813 31.7563H72.0968H72.105ZM117.484 33.1458C117.227 32.3735 116.739 31.6988 116.086 31.2133C115.433 30.7279 114.646 30.4552 113.833 30.4325C112.933 30.4368 112.062 30.7503 111.366 31.3205C110.88 31.7343 110.492 32.2519 110.231 32.8353C109.971 33.4187 109.845 34.0529 109.862 34.6915C109.848 35.2517 109.948 35.8089 110.155 36.3296C110.363 36.8502 110.673 37.3235 111.068 37.7213C111.462 38.119 111.933 38.433 112.452 38.6443C112.971 38.8555 113.528 38.9598 114.088 38.9508C114.788 38.9552 115.479 38.7854 116.097 38.4568C116.716 38.1281 117.243 37.6508 117.632 37.0679L116.184 36.0977C115.957 36.4616 115.639 36.7598 115.261 36.9631C114.883 37.1664 114.459 37.2678 114.03 37.257C113.596 37.2738 113.168 37.1598 112.799 36.9296C112.431 36.6993 112.141 36.3635 111.966 35.966L117.656 33.6146L117.484 33.1458ZM111.67 34.56C111.653 34.2513 111.696 33.9422 111.799 33.6505C111.902 33.3588 112.062 33.0905 112.269 32.861C112.476 32.6315 112.727 32.4453 113.007 32.3136C113.287 32.1818 113.59 32.107 113.899 32.0934C114.222 32.072 114.544 32.1465 114.825 32.3074C115.105 32.4682 115.332 32.7085 115.477 32.9979L113.488 33.8201L111.67 34.56ZM107.041 38.6712H108.916V26.1487H107.041V38.6712ZM103.974 31.3617H103.909C103.625 31.0526 103.279 30.8075 102.894 30.643C102.508 30.4785 102.091 30.3983 101.672 30.4078C100.682 30.421 99.7327 30.8021 99.0082 31.4767C98.5598 31.8819 98.2016 32.3767 97.9566 32.929C97.7115 33.4814 97.5852 34.0792 97.5857 34.6835C97.5849 35.3783 97.7538 36.0627 98.0776 36.6774C98.4014 37.2922 98.8705 37.8184 99.444 38.2107C100.097 38.6703 100.874 38.92 101.672 38.9261C102.093 38.9368 102.511 38.8554 102.898 38.6878C103.284 38.5203 103.629 38.2706 103.909 37.9559H103.974V38.5726C103.974 40.2171 103.103 41.0393 101.705 41.0393C101.237 41.0291 100.784 40.8796 100.401 40.6101C100.019 40.3406 99.7258 39.9633 99.5591 39.5263L97.9146 40.2006C98.2281 40.9452 98.754 41.5808 99.4267 42.0283C100.099 42.4758 100.889 42.7151 101.697 42.7164C103.884 42.7164 105.742 41.4256 105.742 38.2847V30.6792H103.966L103.974 31.3617ZM101.828 37.2487C101.504 37.236 101.186 37.1596 100.892 37.0237C100.597 36.8879 100.332 36.6953 100.113 36.457C99.8926 36.2188 99.7218 35.9395 99.6099 35.6352C99.498 35.3309 99.4472 35.0075 99.4604 34.6835C99.4427 34.3568 99.4902 34.0297 99.6001 33.7216C99.7099 33.4134 99.88 33.1303 100.1 32.8885C100.321 32.6467 100.587 32.4511 100.884 32.3132C101.18 32.1753 101.501 32.0977 101.828 32.0851C102.15 32.1017 102.465 32.1827 102.755 32.3232C103.045 32.4637 103.304 32.6609 103.516 32.9031C103.729 33.1454 103.89 33.4276 103.991 33.7334C104.093 34.0392 104.132 34.3624 104.106 34.6835C104.133 35.0036 104.095 35.3257 103.993 35.6306C103.892 35.9355 103.73 36.2167 103.518 36.4572C103.305 36.6978 103.045 36.8927 102.755 37.0301C102.465 37.1676 102.149 37.2448 101.828 37.257V37.2487ZM126.248 26.1487H121.767V38.6712H123.642V33.9681H126.248C126.841 33.971 127.428 33.8506 127.972 33.6142C128.515 33.3778 129.004 33.0306 129.406 32.595C130.008 31.8999 130.34 31.0109 130.34 30.0912C130.34 29.1715 130.008 28.2827 129.406 27.5876C129.005 27.1491 128.517 26.7984 127.974 26.5578C127.43 26.3172 126.843 26.192 126.248 26.1899V26.1487ZM126.298 32.1839H123.642V27.8919H126.298C126.867 27.8919 127.413 28.118 127.815 28.5204C128.218 28.9229 128.444 29.4687 128.444 30.0378C128.444 30.607 128.218 31.1527 127.815 31.5552C127.413 31.9576 126.867 32.1839 126.298 32.1839ZM137.809 30.3831C137.128 30.3443 136.45 30.5049 135.859 30.8452C135.267 31.1854 134.788 31.6906 134.479 32.2989L136.123 32.9979C136.286 32.6949 136.534 32.4461 136.836 32.2825C137.139 32.1188 137.483 32.0473 137.825 32.0769C138.063 32.0532 138.303 32.0771 138.531 32.1474C138.759 32.2176 138.971 32.3326 139.154 32.4858C139.337 32.639 139.487 32.8273 139.597 33.0395C139.706 33.2516 139.772 33.4834 139.791 33.7214V33.853C139.191 33.5327 138.522 33.366 137.842 33.3679C137.082 33.3612 136.333 33.5449 135.663 33.9022C135.264 34.1007 134.924 34.3993 134.675 34.7688C134.426 35.1383 134.277 35.566 134.243 36.0102C134.209 36.4544 134.291 36.8997 134.481 37.3027C134.671 37.7058 134.962 38.0527 135.326 38.3094C135.917 38.7283 136.624 38.9499 137.349 38.9426C137.818 38.9693 138.286 38.8698 138.704 38.6543C139.122 38.4389 139.474 38.1154 139.725 37.7175H139.791V38.6794H141.599V33.8775C141.624 33.3093 141.496 32.7449 141.23 32.2421C140.965 31.7393 140.57 31.3161 140.087 31.0162C139.416 30.6234 138.652 30.4189 137.875 30.4242L137.809 30.3831ZM137.587 37.2487C136.979 37.2487 136.123 36.9445 136.123 36.1798C136.123 35.2178 137.184 34.8479 138.105 34.8479C138.7 34.8286 139.289 34.9737 139.807 35.2672C139.742 35.8062 139.485 36.3039 139.084 36.6692C138.682 37.0345 138.163 37.2431 137.62 37.257L137.587 37.2487ZM148.185 30.6709L147.297 32.9156L146.039 36.0977H145.982L143.754 30.6709H141.739L143.384 34.3298L145.11 38.2518L143.211 42.4699H145.16L148.802 34.0996L150.299 30.6709H148.185ZM131.355 38.6794H133.221V26.1569H131.355V38.6794Z" fill="#333333"/>
<path d="M51.2286 23.9782L36.3464 15.246C35.9992 15.0472 35.5913 14.9817 35.1993 15.062C34.8073 15.1422 34.458 15.3626 34.2168 15.6818L46.8215 28.3523L51.2286 23.9782Z" fill="url(#paint0_linear_135_579)"/>
<path d="M33.9044 40.0031C33.9013 40.3327 34.002 40.6547 34.1922 40.9239L46.8215 28.3521L34.2168 15.6816C34.0117 15.9571 33.902 16.2919 33.9044 16.6353V40.0031Z" fill="url(#paint1_linear_135_579)"/>
<path d="M51.1544 32.7099L56.2522 29.7171C56.4902 29.5697 56.6866 29.3637 56.8227 29.1191C56.9589 28.8745 57.0304 28.5992 57.0304 28.3192C57.0304 28.0392 56.9589 27.7641 56.8227 27.5195C56.6866 27.2748 56.4902 27.0689 56.2522 26.9215L51.2284 23.978L46.8213 28.3521L51.1544 32.7099Z" fill="url(#paint2_linear_135_579)"/>
<path d="M34.1924 40.9241C34.4285 41.2565 34.7796 41.4894 35.1776 41.5775C35.5757 41.6657 35.9923 41.6028 36.3466 41.4011L51.1467 32.7101L46.8135 28.3523L34.1924 40.9241Z" fill="url(#paint3_linear_135_579)"/>
<defs>
<linearGradient id="paint0_linear_135_579" x1="14.0558" y1="-2.56317" x2="44.7493" y2="22.6545" gradientUnits="userSpaceOnUse">
<stop stop-color="#32A071"/>
<stop offset="0.07" stop-color="#2DA771"/>
<stop offset="0.48" stop-color="#15CF74"/>
<stop offset="0.8" stop-color="#06E775"/>
<stop offset="1" stop-color="#00F076"/>
</linearGradient>
<linearGradient id="paint1_linear_135_579" x1="55.6276" y1="28.1794" x2="32.7039" y2="28.311" gradientUnits="userSpaceOnUse">
<stop stop-color="#00A0FF"/>
<stop offset="0.01" stop-color="#00A1FF"/>
<stop offset="0.26" stop-color="#00BEFF"/>
<stop offset="0.51" stop-color="#00D2FF"/>
<stop offset="0.76" stop-color="#00DFFF"/>
<stop offset="1" stop-color="#00E3FF"/>
</linearGradient>
<linearGradient id="paint2_linear_135_579" x1="58.834" y1="28.9442" x2="38.1468" y2="27.3162" gradientUnits="userSpaceOnUse">
<stop stop-color="#FFE000"/>
<stop offset="0.41" stop-color="#FFBD00"/>
<stop offset="0.78" stop-color="#FFA500"/>
<stop offset="1" stop-color="#FF9C00"/>
</linearGradient>
<linearGradient id="paint3_linear_135_579" x1="56.1458" y1="25.7787" x2="16.3171" y2="52.2214" gradientUnits="userSpaceOnUse">
<stop stop-color="#FF3A44"/>
<stop offset="1" stop-color="#C31162"/>
</linearGradient>
</defs>
</svg>
