<svg width="35" height="35" viewBox="0 0 35 35" fill="none" xmlns="http://www.w3.org/2000/svg">
<mask id="mask0_16_4131" style="mask-type:luminance" maskUnits="userSpaceOnUse" x="0" y="0" width="35" height="35">
<path d="M27.3633 0H7.63667C5.61129 0 3.66887 0.804499 2.23671 2.23666C0.804554 3.66881 0 5.61135 0 7.63672V27.3634C0.00236663 29.388 0.807686 31.329 2.23933 32.7606C3.67097 34.1923 5.61202 34.9975 7.63667 34.9999H27.3633C29.3887 34.9999 31.3311 34.1954 32.7632 32.7632C34.1954 31.3311 35 29.3888 35 27.3634V7.63672C35 5.61135 34.1954 3.66881 32.7632 2.23666C31.3311 0.804499 29.3887 0 27.3633 0Z" fill="white"/>
</mask>
<g mask="url(#mask0_16_4131)">
<path d="M0.000976562 -0.0266113H35.0009V34.9731H0.000976562V-0.0266113Z" fill="#5456DA"/>
<path d="M35.7062 3.28168C34.9103 3.28168 35.1518 -0.295115 35.1518 35.1341H-0.152219V3.07603C-1.10904 3.07603 -1.62769 3.29069 0.911911 2.23551C6.4558 -0.0602581 12.4236 -1.1541 18.4213 -0.973749C24.419 -0.793402 30.3103 0.656962 35.7062 3.28168Z" fill="#5456DA"/>
<path d="M35.6525 3.38031C34.9282 3.38031 35.1518 -0.142931 35.1518 35.1343H-0.152232V3.17465C-1.04646 3.17465 -1.58301 3.39827 0.947648 2.34309C6.47634 0.0501174 12.4288 -1.04324 18.4115 -0.864425C24.3941 -0.685608 30.2707 0.761232 35.6525 3.38031Z" fill="#5555D9"/>
<path d="M35.609 3.48735C34.9562 3.48735 35.1529 -0.0268345 35.1529 35.1341H-0.151107V3.27274C-1.04533 3.27274 -1.5193 3.48742 0.993473 2.44118C6.50823 0.153771 12.446 -0.935788 18.4136 -0.755419C24.3812 -0.57505 30.2424 0.871061 35.609 3.48735Z" fill="#5654D9"/>
<path d="M35.5376 3.57714C34.9563 3.57714 35.1352 0.0717959 35.1352 35.1254H-0.150933V3.37148C-0.919967 3.37148 -1.47443 3.57721 1.03835 2.53991C6.53458 0.260938 12.4521 -0.825241 18.3994 -0.646421C24.3467 -0.467602 30.1882 0.972062 35.5376 3.57714Z" fill="#5753D8"/>
<path d="M35.5369 3.68459C35.0271 3.68459 35.1791 0.197044 35.1791 35.1344H-0.151657V3.47872C-0.831268 3.47872 -1.44833 3.70234 1.08232 2.64715C6.56754 0.374216 12.4728 -0.70861 18.4076 -0.529795C24.3424 -0.35098 30.1716 1.08554 35.51 3.68459" fill="#5852D7"/>
<path d="M35.4568 3.78272C35.0186 3.78272 35.1527 0.304238 35.1527 35.1343H-0.15126V3.57707C-0.768276 3.57707 -1.40318 3.8007 1.12748 2.75445C6.59652 0.486752 12.4846 -0.59431 18.4025 -0.417035C24.3204 -0.23976 30.1333 1.19173 35.4568 3.78272Z" fill="#5951D7"/>
<path d="M35.4112 3.89012C35.0446 3.89012 35.1519 0.420469 35.1519 35.1343H-0.152086V3.67551C-0.634968 3.67551 -1.45768 3.94363 1.1624 2.85267C6.61955 0.592591 12.4942 -0.483655 18.3982 -0.304842C24.3021 -0.126028 30.1009 1.30391 35.4112 3.89012Z" fill="#5A50D6"/>
<path d="M35.3578 3.98852C35.0449 3.98852 35.1522 1.59207 35.1522 35.1345H-0.151829V3.78287C-0.572115 3.78287 -1.42167 4.0512 1.20736 2.96025C6.64834 0.7054 12.5059 -0.368865 18.393 -0.191592C24.28 -0.0143176 30.0624 1.41037 35.3578 3.98852Z" fill="#5B4FD6"/>
<path d="M35.3133 4.08674C35.0719 4.08674 35.1523 1.69913 35.1523 35.1342H-0.151664V3.88108C-0.509354 3.88108 -1.36786 4.1492 1.25222 3.05825C6.6793 0.810387 12.5216 -0.260164 18.3931 -0.0828935C24.2647 0.0943772 30.0317 1.51557 35.3133 4.08674Z" fill="#5C4ED5"/>
<path d="M35.2593 4.185C35.0983 4.185 35.152 1.80645 35.152 35.1342H-0.152026V3.97934C-0.652792 3.97934 -1.04626 4.14932 1.29662 3.16568C6.71001 0.920418 12.5385 -0.149674 18.3964 0.0260634C24.2543 0.201801 30.0081 1.61926 35.2772 4.185" fill="#5D4DD4"/>
<path d="M35.2147 4.28344C35.1253 4.28344 35.1521 1.92269 35.1521 35.1342H-0.151901V4.08674C-0.554302 4.08674 -1.04615 4.24755 1.33249 3.2639C6.73088 1.02751 12.5423 -0.037902 18.383 0.137826C24.2236 0.313554 29.9605 1.72654 35.2147 4.28344Z" fill="#5E4CD4"/>
<path d="M35.1613 4.39067C35.1613 4.39067 35.1613 2.91531 35.1613 35.1343H-0.151701V4.18501C-0.750832 4.18501 16.3468 -4.81091 35.1613 4.39067Z" fill="#5F4BD3"/>
<path d="M35.1174 4.47098C36.3335 5.07011 36.253 4.9181 35.1174 4.9181V35.1161H-0.150899V4.26533C-0.893106 4.26533 16.4996 -4.63223 35.1174 4.47098Z" fill="#604AD2"/>
<path d="M35.0625 4.58748C36.2787 5.17767 36.1803 5.03459 35.152 5.03459V35.1344H-0.152021V4.38183C-0.804806 4.38183 16.4984 -4.48891 35.0625 4.58748Z" fill="#614AD2"/>
<path d="M35.0182 4.68587C36.1718 5.24923 36.1092 5.13298 35.1524 5.13298V35.1343H-0.151635V4.47127C-0.509325 4.47127 16.3468 -4.47102 35.0182 4.66797" fill="#6249D1"/>
<path d="M34.9645 4.7932C36.1091 5.34762 36.0466 5.23136 35.1523 5.23136V35.1342H-0.151677C-0.151677 2.2446 -0.267968 4.58733 -0.250083 4.58733C5.26036 1.98234 11.2856 0.648446 17.3806 0.684044C23.4757 0.719642 29.4849 2.12403 34.9645 4.7932Z" fill="#6348D1"/>
<path d="M34.92 4.89166C36.0557 5.44608 35.9752 5.32982 35.1525 5.32982V35.1344H-0.151486C-0.151486 2.35212 -0.223022 4.686 -0.205137 4.686C5.29127 2.08743 11.3012 0.756723 17.3808 0.792322C23.4604 0.82792 29.4544 2.2289 34.92 4.89166Z" fill="#6447D0"/>
<path d="M34.8665 4.98986C36.0111 5.54428 35.9127 5.42802 35.1526 5.42802V35.1342H-0.151367C-0.151367 4.10454 -0.151367 4.79316 -0.151367 4.79316C5.3288 2.19975 11.3216 0.870884 17.3844 0.904935C23.4471 0.938987 29.4247 2.33506 34.8754 4.98986" fill="#6546CF"/>
<path d="M34.8214 5.08804C35.9571 5.64246 35.8408 5.5262 35.1523 5.5262V35.1341H-0.151721V5.3653H-0.983398C4.55976 2.57993 10.6705 1.11002 16.874 1.0697C23.0775 1.02938 29.2067 2.41972 34.7856 5.13279" fill="#6645CF"/>
<path d="M34.7759 5.18672C35.9026 5.74114 35.7685 5.62489 35.1515 5.62489V35.1343H-0.15253V5.41923H-0.939453C4.59413 2.63386 10.6961 1.16374 16.891 1.12341C23.086 1.08308 29.2065 2.47363 34.7759 5.18672Z" fill="#6744CE"/>
<path d="M34.7233 5.29388C35.85 5.83936 35.7069 5.73205 35.1525 5.73205V35.1343H-0.151494V5.51744H-0.884766C4.63333 2.7434 10.7171 1.28004 16.8931 1.24127C23.0691 1.2025 29.1708 2.58934 34.7233 5.29388Z" fill="#6843CD"/>
<path d="M35.1526 5.83022V35.134H-0.151435V5.62456H-0.831055C18.3322 -4.05096 36.3061 5.83917 35.1526 5.83917" fill="#6942CD"/>
<path d="M35.1518 5.92863V35.1342H-0.15219V5.71403H-0.787109C18.3493 -3.94361 36.1355 5.92863 35.1518 5.92863Z" fill="#6A41CC"/>
<path d="M35.1529 6.02724V35.1343H-0.151154V5.82158H-0.732422C18.404 -3.845 35.9308 6.02724 35.1529 6.02724Z" fill="#6B40CC"/>
<path d="M36.2344 6.58154H35.1523V35.1341H-0.151661V5.91983C-0.831272 5.91983 -0.947526 6.02694 0.179198 5.49935C5.84663 2.81658 12.0694 1.51604 18.3369 1.70413C24.6044 1.89222 30.738 3.56376 36.2344 6.58154Z" fill="#6D3FCB"/>
<path d="M36.1807 6.67104H35.1524V35.1343H-0.151642V6.01827C-0.759715 6.01827 -0.893864 6.12561 0.223917 5.59801C5.87563 2.92243 12.0811 1.62478 18.3313 1.81131C24.5816 1.99784 30.6986 3.66319 36.1807 6.67104Z" fill="#6E3ECA"/>
<path d="M36.1271 6.76954H35.1524V35.1343H-0.151628V6.11677C-0.697105 6.11677 -0.840199 6.2241 0.277583 5.69651C5.91272 3.02955 12.0998 1.73616 18.3313 1.92269C24.5629 2.10922 30.6615 3.7703 36.1271 6.76954Z" fill="#6F3DCA"/>
<path d="M36.0726 6.86744H35.1784V35.134H-0.152408V6.25943C-1.30596 6.25943 17.0346 -3.57707 36.0726 6.91219" fill="#703CC9"/>
<path d="M36.0207 6.9663C34.7688 6.9663 35.1265 3.83651 35.1265 35.1344H-0.150674V6.31354C-0.562017 6.31354 -0.740902 6.42088 0.367938 5.90223C5.97195 3.24958 12.1249 1.96286 18.3223 2.14783C24.5196 2.33281 30.5849 3.98415 36.0207 6.9663Z" fill="#713BC8"/>
<path d="M35.9667 7.06441C34.7953 7.06441 35.153 3.95263 35.153 35.1343H-0.151018V6.4206C-0.902168 6.4206 17.0181 -3.36226 35.9667 7.06441Z" fill="#723AC8"/>
<path d="M35.9124 7.15395C34.8214 7.15395 35.1523 4.05102 35.1523 35.1254H-0.15169V6.93935H-1.21582C4.50327 3.88703 10.8929 2.30827 17.3754 2.34574C23.858 2.38322 30.229 4.03572 35.9124 7.15395Z" fill="#7339C7"/>
<path d="M35.8502 7.26119C34.8398 7.26119 35.1528 4.1671 35.1528 35.1341H-0.151247V7.04637H-1.12598C4.57654 4.00266 10.9478 2.42839 17.4117 2.46586C23.8755 2.50334 30.2281 4.15157 35.895 7.26119" fill="#7438C7"/>
<path d="M35.7966 7.35966C34.9024 7.35966 35.1528 4.27464 35.1528 35.1344H-0.151247V7.15401H-1.12598C4.56021 4.11969 10.913 2.55022 17.358 2.58769C23.8031 2.62516 30.1372 4.26838 35.7877 7.36861" fill="#7537C6"/>
<path d="M35.7425 7.45817C34.9198 7.45817 35.1523 3.38941 35.1523 35.1344H-0.151673V7.24357H-1.0459C4.62372 4.21786 10.958 2.65288 17.3844 2.69035C23.8108 2.72783 30.1265 4.36655 35.7604 7.45817" fill="#7636C5"/>
<path d="M35.6888 7.5561C34.9109 7.5561 35.1523 4.49793 35.1523 35.1341H-0.151673V7.3415H-1.0459C4.60268 4.33065 10.9121 2.77374 17.3129 2.81121C23.7136 2.84868 30.0044 4.47933 35.6173 7.5561" fill="#7735C5"/>
<path d="M35.6356 7.65482C34.9381 7.65482 35.1528 4.6055 35.1528 35.1344H-0.15123V7.41336H-0.956055C4.6809 4.40643 10.9782 2.8515 17.3669 2.88897C23.7556 2.92644 30.0343 4.55513 35.6356 7.62797" fill="#7834C4"/>
<path d="M35.582 7.7529C34.965 7.7529 35.1528 4.72158 35.1528 35.1342H-0.15117V7.5383H-0.902344C4.7178 4.53919 10.9969 2.98822 17.3671 3.02569C23.7372 3.06316 29.9976 4.68789 35.582 7.7529Z" fill="#7933C3"/>
<path d="M35.5374 7.8515C34.9919 7.8515 35.1618 4.82008 35.1618 35.1343H-0.151111V7.63689H-0.848633C4.75493 4.6464 11.0156 3.09991 17.3671 3.13738C23.7186 3.17486 29.9606 4.7951 35.5285 7.8515" fill="#7A33C3"/>
<path d="M35.4739 7.94951C35.0089 7.94951 35.152 4.92716 35.152 35.1341H-0.152028V7.73491H-0.795898C4.79109 4.75302 11.0334 3.21124 17.3662 3.24871C23.699 3.28619 29.9226 4.90172 35.4739 7.94951Z" fill="#7B32C2"/>
<path d="M35.4213 8.04808C35.0368 8.04808 35.153 5.04352 35.153 35.1342H-0.150991V7.83348H-0.741211C4.82921 4.8602 11.0531 3.32269 17.3672 3.36017C23.6814 3.39764 29.8865 5.0089 35.4213 8.04808Z" fill="#7C31C2"/>
<path d="M35.3669 8.14671C35.0449 8.14671 35.1523 6.08099 35.1523 35.1344H-0.151747V7.93211H-0.697266C4.85843 4.96823 11.0653 3.43573 17.362 3.47321C23.6587 3.51068 29.8468 5.11692 35.3669 8.14671Z" fill="#7D30C1"/>
<path d="M35.3133 8.24499C35.0629 8.24499 35.1523 6.19727 35.1523 35.1344H-0.151687V8.04828H-0.643555C4.89557 5.09301 11.084 3.56501 17.3621 3.60248C23.6401 3.63995 29.8098 5.24171 35.3133 8.26289" fill="#7E2FC0"/>
<path d="M35.2597 8.34326C35.0987 8.34326 35.1524 6.2776 35.1524 35.17H-0.151627V8.16424H-0.589844C4.9327 5.21758 11.1027 3.69428 17.3621 3.73175C23.6215 3.76923 29.7728 5.36649 35.2597 8.37906" fill="#7F2EC0"/>
<path d="M35.2061 8.43239C35.1256 8.43239 35.1524 6.37577 35.1524 35.1341H-0.151568V8.23568H-0.536133C4.97219 5.29176 11.1278 3.76798 17.3733 3.80233C23.6189 3.83668 29.7573 5.42806 35.2329 8.43239" fill="#802DBF"/>
<path d="M35.1525 8.53085C36.1719 9.09421 36.1719 8.97796 35.1525 8.97796V35.1341H-0.151508V8.3073H-0.482422C5.00574 5.3759 11.1381 3.8588 17.36 3.89315C23.5818 3.9275 29.697 5.51218 35.1525 8.504" fill="#812CBE"/>
<path d="M35.0989 8.62933C36.1183 9.19269 36.1004 9.07644 35.1525 9.07644V35.1343H-0.151503V8.43263H-0.428711C5.04287 5.50984 11.1568 3.99723 17.36 4.03158C23.5632 4.06593 29.66 5.64612 35.0989 8.62933Z" fill="#822BBE"/>
<path d="M35.0446 8.72794C36.064 9.2913 36.0282 9.17505 35.1519 9.17505V35.1076H-0.152104V8.50438C-1.04633 8.50438 16.6772 -1.41261 35.0446 8.70109" fill="#832ABD"/>
<path d="M34.991 8.82624C36.0015 9.38066 35.9478 9.27335 35.152 9.27335V35.1343H-0.152037V8.62931C-0.661745 8.62931 16.5431 -1.33217 34.991 8.82624Z" fill="#8429BD"/>
<path d="M34.9378 8.94222C35.9482 9.49664 35.832 9.38038 35.1524 9.38038V35.152H-0.151636C-0.151636 5.81248 -0.285774 8.74551 -0.26789 8.74551C5.15422 5.84933 11.2128 4.35051 17.3598 4.38485C23.5069 4.4192 29.5484 5.98562 34.9378 8.94222Z" fill="#8528BC"/>
<path d="M34.8844 9.02299C35.8948 9.57741 35.7786 9.46115 35.1526 9.46115V35.1343H-0.151386C-0.151386 6.80527 -0.231882 8.82629 -0.222939 8.82629C5.1842 5.93872 11.2258 4.44438 17.3556 4.47873C23.4854 4.51308 29.5099 6.075 34.8844 9.02299Z" fill="#8528BC"/>
<path d="M34.8124 9.16586C35.805 9.72028 35.7066 9.60402 35.1522 9.60402V35.1342H-0.151823V9.38941H-0.920898C4.52732 6.30494 10.6739 4.66509 16.9346 4.62596C23.1952 4.58683 29.3618 6.14972 34.8481 9.16586" fill="#8628BB"/>
<path d="M35.1527 9.73816V35.1343H-0.151273V9.5325H-0.839844C18.1356 -1.1982 36.2705 9.73816 35.1527 9.73816Z" fill="#8627BB"/>
<path d="M34.6426 9.45208C36.6636 10.5609 36.4311 10.3463 35.1434 10.3463V35.1521H-0.151644V9.69354H-0.759766C4.63407 6.64043 10.719 5.01703 16.9169 4.9779C23.1147 4.93877 29.2196 6.48521 34.6516 9.46998" fill="#8726BA"/>
<path d="M34.5716 9.58614C36.5926 10.7039 36.2975 10.4804 35.1529 10.4804V35.1432H-0.151094V9.83654H-0.678711C4.69016 6.79699 10.7468 5.18015 16.9163 5.13946C23.0857 5.09877 29.1631 6.63557 34.5716 9.60404" fill="#8826B9"/>
<path d="M34.4997 9.72918C36.5028 10.838 36.1808 10.6234 35.1525 10.6234V35.1522H-0.15152V9.97064H-0.598633C4.74871 6.94824 10.7792 5.34149 16.9215 5.30237C23.0638 5.26324 29.1143 6.79305 34.4997 9.74708" fill="#8925B9"/>
<path d="M34.4188 9.8365C36.5203 10.9901 35.9748 10.7307 35.1521 10.7307V35.1163H-0.151892V10.078H-0.518555C4.80377 7.06805 10.8068 5.46759 16.9211 5.42847C23.0355 5.38935 29.0584 6.91285 34.4188 9.85441" fill="#8A24B8"/>
<path d="M34.3391 10.0152C36.3332 11.1151 35.9577 10.9094 35.1529 10.9094V35.1609H-0.151144V10.6948H-1.18848C4.16323 7.5001 10.2568 5.75921 16.4885 5.64471C22.7202 5.53021 28.8736 7.04609 34.3391 10.042" fill="#8B24B7"/>
<path d="M34.2675 10.1586C36.2616 11.2585 35.8413 11.0528 35.1617 11.0528V35.1969H-0.151247V10.8738H-1.12598C4.19943 7.68807 10.2659 5.95175 16.4704 5.83723C22.6749 5.72271 28.8013 7.23399 34.2406 10.221" fill="#8C23B7"/>
<path d="M34.1866 10.3018C36.1539 11.3838 35.7425 11.196 35.1523 11.196V35.1702H-0.151673V10.9814H-1.0459C4.25613 7.81201 10.2951 6.08505 16.4712 5.97211C22.6472 5.85916 28.7454 7.36418 34.1598 10.3376" fill="#8D22B6"/>
<path d="M35.1515 11.2941V35.1343H-0.15253V11.0884H-0.939453C18.0539 -0.304022 36.2782 11.2941 35.1515 11.2941Z" fill="#8E22B5"/>
<path d="M35.1531 11.437V35.134H-0.150949V11.2224H-0.857422C18.0197 -0.0984564 36.1993 11.437 35.1531 11.437Z" fill="#8F21B4"/>
<path d="M35.1525 11.5715V35.1345H-0.151537V11.3659H-0.768555C18.0102 0.116536 36.002 11.5715 35.1525 11.5715Z" fill="#9020B4"/>
<path d="M35.1521 11.7054V35.1341H-0.151909V11.4998H-0.688477C18.0098 0.28619 35.7423 11.7054 35.1521 11.7054Z" fill="#9020B3"/>
<path d="M35.2421 11.8486C35.1079 11.8486 35.1526 10.0602 35.1526 35.0985H-0.151358V11.6251H-0.607422C4.81661 8.38074 11.0259 6.68452 17.346 6.72078C23.6662 6.75704 29.8556 8.52437 35.2421 11.8307" fill="#911FB2"/>
<path d="M35.8588 12.4298C34.8573 12.4298 35.1524 9.20173 35.1524 35.1343H-0.151581V11.777C-0.607636 11.777 -0.947485 11.9559 0.921446 10.9633C6.34463 8.0634 12.4459 6.66982 18.5903 6.92774C24.7347 7.18566 30.6978 9.08555 35.8588 12.4298Z" fill="#921EB1"/>
<path d="M35.7691 12.564C34.8749 12.564 35.1521 10.0512 35.1521 35.1343H-0.151924V11.8844C-0.536441 11.8844 -0.804728 12.0365 1.00161 11.0618C6.39979 8.17952 12.4713 6.79538 18.5853 7.05328C24.6994 7.31117 30.6328 9.2016 35.7691 12.5282" fill="#931EB0"/>
<path d="M35.6804 12.6981C34.9203 12.6981 35.1528 10.2122 35.1528 35.1343H-0.151163V12.0543C-1.04539 12.0543 17.2772 0.75126 35.6804 12.6981Z" fill="#941DB0"/>
<path d="M35.591 12.8322C34.9561 12.8322 35.1529 10.3552 35.1529 35.1342H-0.151151V12.1971C-0.714513 12.1971 17.2505 0.930082 35.6179 12.8322" fill="#951CAF"/>
<path d="M36.1818 13.4133H35.1534V35.1252H-0.150579V12.3224C-0.713941 12.3224 17.8501 0.876287 36.1818 13.4133Z" fill="#961BAE"/>
<path d="M36.0909 13.5565H35.1967V35.1343H-0.15203V12.8948C-0.992602 12.8948 -1.04626 13.011 -0.15203 12.4745C5.35514 9.17964 11.6906 7.53066 18.1053 7.72241C24.52 7.91415 30.7457 9.93856 36.0462 13.5565" fill="#971BAD"/>
<path d="M36.0026 13.6906H35.1531V35.152H-0.15089V13.0558C-0.875213 13.0558 -0.911023 13.1631 -0.02574 12.6266C5.45629 9.34856 11.7622 7.70847 18.1466 7.90021C24.5311 8.09195 30.7272 10.1075 36.0026 13.7085" fill="#981AAC"/>
<path d="M35.9128 13.825C34.8486 13.825 35.1527 10.6953 35.1527 35.1345H-0.151306V13.1722C-0.759379 13.1722 -0.821983 13.2796 0.0632998 12.752C5.51727 9.48821 11.7919 7.85489 18.145 8.04505C24.4981 8.23522 30.6638 10.2409 35.9128 13.825Z" fill="#9919AC"/>
<path d="M35.8139 13.9502C34.9197 13.9502 35.1522 10.9456 35.1522 35.1344H-0.151797V13.7446H-1.20703C4.28115 10.0843 10.7382 8.14807 17.3349 8.18471C23.9316 8.22136 30.3668 10.2292 35.8139 13.9502Z" fill="#9B18AB"/>
<path d="M35.7251 14.0844C34.9024 14.0844 35.1528 11.7415 35.1528 35.1345H-0.151247V13.8787H-1.12598C4.33705 10.2396 10.7624 8.31494 17.3265 8.35159C23.8905 8.38823 30.2941 10.3845 35.7161 14.0844" fill="#9C18AA"/>
<path d="M35.6352 14.2182C34.9377 14.2182 35.1523 11.8934 35.1523 35.1343H-0.151673V14.0126H-1.0459C4.39066 10.3911 10.7849 8.47608 17.3171 8.51272C23.8493 8.54937 30.2218 10.536 35.6173 14.2182" fill="#9D17A9"/>
<path d="M35.536 14.3526C34.9726 14.3526 35.1425 12.0455 35.1425 35.1344H-0.15253V14.147H-0.939453C4.47108 10.5443 10.8341 8.63929 17.3342 8.67593C23.8342 8.71258 30.1754 10.6892 35.5449 14.3526" fill="#9E16A8"/>
<path d="M35.4569 14.4864C35.0187 14.4864 35.1529 12.1973 35.1529 35.1342H-0.151111V14.3076H-0.848633C4.53543 10.7227 10.8673 8.82704 17.3356 8.86368C23.8038 8.90032 30.1138 10.8676 35.4569 14.5133" fill="#9F15A7"/>
<path d="M35.358 14.6207C35.0361 14.6207 35.1524 13.0379 35.1524 35.1342H-0.151644V14.4151H-0.759766C4.5969 10.8498 10.896 8.96461 17.3306 9.00126C23.7652 9.0379 30.0423 10.9946 35.358 14.6207Z" fill="#A015A7"/>
<path d="M35.269 14.7547C35.0902 14.7547 35.1528 13.1899 35.1528 35.1342H-0.151256V14.567H-0.669922C4.66202 11.0239 10.9292 9.15103 17.3309 9.18766C23.7326 9.2243 29.978 11.1688 35.269 14.7726" fill="#A114A6"/>
<path d="M35.179 14.889C35.179 14.889 35.179 13.9144 35.179 35.1344H-0.151789V14.6834H-0.581055C4.7236 11.1515 10.9621 9.2842 17.3349 9.32084C23.7077 9.35749 29.9243 11.2964 35.188 14.889" fill="#A213A5"/>
<path d="M35.089 15.0231C35.8938 15.5775 35.8849 15.4612 35.1516 15.4612V35.1342H-0.152377V14.8174H-0.492188C4.78507 11.3052 10.9907 9.44839 17.3298 9.48503C23.6689 9.52167 29.8527 11.45 35.089 15.0231Z" fill="#A312A4"/>
<path d="M35.0003 15.2021C35.8051 15.7475 35.7604 15.6402 35.1523 15.6402V35.1791H-0.151724V14.9964C-1.54672 14.9964 17.0621 2.93328 35.0003 15.2021Z" fill="#A412A3"/>
<path d="M34.9108 15.2913C36.5473 16.4091 36.3863 16.1855 35.1523 16.1855V35.143H-0.151703V15.0944C-1.04593 15.0944 17.0174 3.06723 34.9108 15.3002" fill="#A511A2"/>
<path d="M34.8125 15.4257C36.44 16.5346 36.2612 16.3199 35.1523 16.3199V35.1524H-0.151668C-0.151668 13.0203 -0.241106 15.238 -0.223221 15.238C4.97106 11.7738 11.0827 9.94228 17.3261 9.97893C23.5695 10.0156 29.6593 11.9187 34.8125 15.4436" fill="#A610A2"/>
<path d="M34.724 15.5504C36.3515 16.6682 36.1189 16.4447 35.1532 16.4447V35.152H-0.15083V15.7919H-0.75C4.4396 12.154 10.6146 10.184 16.9521 10.1441C23.2897 10.1041 29.4889 11.9962 34.724 15.5684" fill="#A70FA1"/>
<path d="M34.6429 15.685C36.2525 16.7938 36.0111 16.5792 35.1615 16.5792V35.1523H-0.151418V15.9264H-0.661133C4.50247 12.3074 10.6461 10.3473 16.9515 10.3074C23.257 10.2674 29.4249 12.1495 34.6339 15.7029" fill="#A80EA0"/>
<path d="M34.5447 15.8188C36.1454 16.9187 35.8771 16.713 35.1528 16.713V35.161H-0.151247V16.5074H-1.12598C4.02362 12.7072 10.2274 10.6021 16.6262 10.4836C23.0251 10.365 29.3026 12.2388 34.5894 15.8456" fill="#A90E9F"/>
<path d="M34.4548 15.953C36.0286 17.0351 35.7604 16.8473 35.1523 16.8473V35.161H-0.151673V16.6327H-1.0459C4.07727 12.8535 10.2486 10.7603 16.6138 10.6434C22.979 10.5264 29.2231 12.3915 34.4817 15.9799" fill="#AA0D9E"/>
<path d="M34.3572 16.096C35.9221 17.1691 35.636 16.9903 35.1531 16.9903V35.1789H-0.150906V16.7846H-0.973633C4.1208 13.0258 10.2578 10.9437 16.5878 10.8267C22.9177 10.7098 29.1274 12.5638 34.3572 16.1318" fill="#AB0C9D"/>
<path d="M34.2671 16.2214C35.7873 17.2587 35.5279 17.1156 35.1613 17.1156V35.1791H-0.151656V16.91H-0.875977C4.19414 13.1771 10.2981 11.1104 16.5931 10.9951C22.8881 10.8798 29.0636 12.7215 34.2671 16.2661" fill="#AD0B9C"/>
<path d="M35.1518 17.2048V35.134H-0.15219V16.9902H-0.787109C17.4283 3.53207 36.2607 17.1958 35.1518 17.1958" fill="#AE0A9C"/>
<path d="M35.1521 17.3301V35.1342H-0.151909V17.1244H-0.688477C17.3481 3.80044 36.1983 17.3301 35.1521 17.3301Z" fill="#AF0A9B"/>
<path d="M35.1524 17.4644V35.1343H-0.151627V17.2498H-0.589844C17.2947 3.99741 35.8946 17.4555 35.1792 17.4555" fill="#B0099A"/>
<path d="M36.1801 18.4747H35.1518V35.1343H-0.152216V17.3838H-0.500977C4.8516 13.4385 11.3725 11.4019 18.019 11.5997C24.6655 11.7975 31.0537 14.2182 36.1623 18.4747" fill="#B10899"/>
<path d="M36.082 18.5998H35.1878V35.134H-0.151934V17.5178H-0.402344C4.92264 13.5886 11.412 11.5596 18.0268 11.7558C24.6416 11.952 30.9993 14.362 36.082 18.5998Z" fill="#B20798"/>
<path d="M35.975 18.7252H35.1523V35.1343H-0.151726V17.6432C-1.41258 17.6432 18.3855 4.042 35.975 18.7252Z" fill="#B30697"/>
<path d="M35.8768 18.8503C34.8485 18.8503 35.1525 16.5432 35.1525 35.1341H-0.151486C-0.151486 16.4448 -0.223022 17.7771 -0.205137 17.7771C5.06173 13.8923 11.4795 11.8869 18.0212 12.0814C24.5629 12.276 30.8501 14.6595 35.8768 18.8503Z" fill="#B40696"/>
<path d="M35.7693 18.9757C34.8751 18.9757 35.1523 17.1874 35.1523 35.1345H-0.15169V18.779H-1.21582C4.01724 14.5199 10.5681 12.2124 17.3152 12.2516C24.0624 12.2907 30.5861 14.6741 35.7693 18.9936" fill="#B50595"/>
<path d="M35.6625 19.1008C34.9292 19.1008 35.1528 17.3123 35.1528 35.1342H-0.151247V18.8862H-1.12598C4.07674 14.6478 10.5918 12.3512 17.3023 12.3904C24.0128 12.4295 30.5006 14.802 35.6535 19.1008" fill="#B60494"/>
<path d="M35.5368 19.2259C34.9467 19.2259 35.1255 17.4375 35.1255 35.1342H-0.151673V19.0382H-1.0459C4.12792 14.8238 10.6066 12.5403 17.2795 12.5795C23.9524 12.6186 30.4039 14.978 35.5279 19.2528" fill="#B80394"/>
<path d="M35.456 19.3513C35.0179 19.3513 35.152 17.5629 35.152 35.1345H-0.151985V19.1366H-0.912109C4.23498 14.9511 10.6765 12.684 17.3105 12.7232C23.9445 12.7623 30.3587 15.1053 35.456 19.3513Z" fill="#B90293"/>
<path d="M35.3578 19.4674C35.0627 19.4674 35.1521 17.7326 35.1521 35.1342H-0.151866V19.2617H-0.804688C4.3103 15.0941 10.7157 12.8354 17.3135 12.8729C23.9113 12.9104 30.2905 15.2418 35.3578 19.4674Z" fill="#BA0292"/>
<path d="M35.1524 19.5926V35.1343H-0.151585V19.3869H-0.706055C16.9996 4.94516 36.2881 19.5926 35.1524 19.5926Z" fill="#BB0191"/>
<path d="M36.1631 20.612H35.1526V35.1342H-0.151358V19.5121H-0.607422C4.63134 15.2474 11.2305 13.0113 17.9827 13.2133C24.7349 13.4152 31.1886 16.0417 36.1631 20.612Z" fill="#BC0090"/>
<path d="M36.055 20.7281H35.1607V35.1342H-0.152216V19.673H-0.500977C4.7064 15.4316 11.2671 13.2076 17.9802 13.408C24.6934 13.6083 31.1098 16.2196 36.055 20.7639" fill="#BC0090"/>
<path d="M35.939 20.8537H35.1521V35.1613H-0.151934V19.7983H-0.402344C4.77288 15.5786 11.2955 13.3653 17.9701 13.5641C24.6446 13.7628 31.024 16.3604 35.939 20.8805" fill="#BD008F"/>
<path d="M17.303 13.6907C24.171 13.7204 30.7797 16.3166 35.8314 20.9696C34.8746 20.9696 35.1518 18.9129 35.1518 35.1342H-0.152252V19.9324C-0.429462 19.9324 6.60806 13.6728 17.303 13.7265" fill="#BD008E"/>
<path d="M17.3039 13.8517C24.1302 13.8833 30.6979 16.4671 35.716 21.095C34.9023 21.095 35.1526 19.5301 35.1526 35.1343H-0.151367V20.0218C4.75443 15.9658 10.9389 13.7797 17.3039 13.8517Z" fill="#BE008D"/>
<path d="M35.6084 21.211C34.9735 21.211 35.1523 19.1723 35.1523 35.1342H-0.151673V21.0054H-1.0459C3.99913 16.4797 10.548 13.9937 17.3254 14.0317C24.1028 14.0697 30.6234 16.629 35.6173 21.211" fill="#BF018C"/>
<path d="M35.5366 21.3362C35.0447 21.3362 35.1968 19.816 35.1968 35.1341H-0.151955V21.1216C-1.18031 21.1216 -1.28762 21.345 0.0179505 20.2809C5.0704 16.1637 11.4369 14.0044 17.9515 14.1982C24.4662 14.3919 30.6931 16.926 35.4919 21.3362" fill="#C0018B"/>
<path d="M35.3848 21.4615C35.054 21.4615 35.1523 19.9682 35.1523 35.1432H-0.151673V21.2558C-1.0459 21.2558 -1.18003 21.4794 0.125535 20.4153C5.14815 16.325 11.4754 14.1797 17.95 14.3719C24.4246 14.564 30.6136 17.0806 35.3848 21.4615Z" fill="#C0018A"/>
<path d="M36.1994 22.4719H35.1532V35.1342H-0.15083V21.372H-0.75C4.37518 16.7825 11.0677 14.3375 17.9444 14.5422C24.8211 14.7469 31.3563 17.5857 36.1994 22.4719Z" fill="#C10189"/>
<path d="M36.0831 22.5881H35.1889V35.1073H-0.150872V21.4614H-0.633789C4.45388 16.89 11.1063 14.4529 17.9431 14.656C24.7798 14.8592 31.2758 17.6869 36.0831 22.5523" fill="#C20187"/>
<path d="M35.967 22.7045H35.1533V35.1344H-0.150753V21.6136H-0.526367C4.53226 17.0732 11.1442 14.6538 17.9386 14.8569C24.733 15.06 31.1886 17.8701 35.967 22.7045Z" fill="#C20186"/>
<path d="M35.841 22.8208C34.8752 22.8208 35.1524 20.9787 35.1524 35.1343H-0.151611V21.7209H-0.419922C4.6051 17.2068 11.1753 14.8007 17.9271 15.0022C24.679 15.2037 31.094 17.9972 35.841 22.8029" fill="#C30185"/>
<path d="M35.7246 22.9368C34.9198 22.9368 35.1523 21.1485 35.1523 35.1341H-0.15169V22.7222H-1.21582C1.22316 20.3096 4.11366 18.4012 7.29051 17.1062C10.4674 15.8112 13.8683 15.1548 17.2989 15.1748C20.7295 15.1947 24.1225 15.8905 27.2841 17.2224C30.4457 18.5542 33.3138 20.496 35.7246 22.9368Z" fill="#C40184"/>
<path d="M35.6088 23.0534C34.9739 23.0534 35.1528 21.265 35.1528 35.1344H-0.151247V22.8388H-1.12598C1.29695 20.4384 4.1696 18.5394 7.32747 17.2508C10.4853 15.9621 13.8664 15.309 17.277 15.3289C20.6876 15.3489 24.0608 16.0415 27.2034 17.3669C30.346 18.6924 33.1962 20.6248 35.5909 23.0534" fill="#C50283"/>
<path d="M35.5369 23.1693C35.0451 23.1693 35.1971 21.837 35.1971 35.1341H-0.151613V22.9547H-0.992188C1.41748 20.5731 4.27259 18.6895 7.41022 17.4114C10.5479 16.1333 13.9066 15.4858 17.2945 15.5057C20.6824 15.5256 24.0331 16.2126 27.1555 17.5275C30.2779 18.8425 33.1107 20.7595 35.4922 23.1693" fill="#C50282"/>
<path d="M35.3759 23.2498C35.054 23.2498 35.1524 21.9353 35.1524 35.0983H-0.151656V23.071H-0.875977C3.96017 18.2929 10.4961 15.6313 17.2944 15.6716C24.0927 15.7118 30.5967 18.4506 35.3759 23.2856" fill="#C60281"/>
<path d="M17.2946 15.8369C28.2042 15.8995 35.6442 23.402 35.1792 23.402V35.1343H-0.151644V23.1963H-0.759766C1.61703 20.8416 4.43542 18.9793 7.53365 17.7163C10.6319 16.4534 13.949 15.8147 17.2946 15.8369Z" fill="#C70280"/>
<path d="M35.975 24.3948H35.1523V35.1255H-0.151687V23.3038H-0.643555C1.7927 20.8885 4.69462 18.9937 7.88586 17.7346C11.0771 16.4755 14.491 15.8783 17.9202 15.9795C21.3493 16.0807 24.7221 16.8781 27.8336 18.3231C30.945 19.7682 33.7301 21.831 36.0197 24.3858" fill="#C7027F"/>
<path d="M35.8507 24.5108C34.876 24.5108 35.1533 22.9282 35.1533 35.1344H-0.150753V23.4289H-0.526367C1.89339 21.0365 4.77371 19.1603 7.94001 17.914C11.1063 16.6677 14.4927 16.0772 17.8939 16.1783C21.2952 16.2795 24.6405 17.0703 27.7272 18.5025C30.8138 19.9348 33.5774 21.9789 35.8507 24.5108Z" fill="#C8027E"/>
<path d="M35.7246 24.6183C34.9287 24.6183 35.1522 23.0624 35.1522 35.1344H-0.151772V23.5095H-0.411133C1.99223 21.1325 4.85328 19.2682 7.99854 18.0297C11.1438 16.7913 14.5078 16.2045 17.8866 16.3048C21.2654 16.4052 24.5886 17.1906 27.6549 18.6135C30.7211 20.0364 33.4665 22.0671 35.7246 24.5825" fill="#C9027D"/>
<path d="M17.2852 16.4987C20.7446 16.5134 24.1625 17.2532 27.3184 18.6703C30.4744 20.0873 33.2982 22.1499 35.6079 24.7255C34.964 24.7255 35.1518 23.2323 35.1518 35.1344H-0.152213V23.6614C-0.474134 23.6614 6.37563 16.4361 17.2852 16.5076" fill="#CA037C"/>
<path d="M17.286 16.6595C20.7227 16.6755 24.1178 17.4121 27.2522 18.8215C30.3866 20.2308 33.1907 22.2817 35.4835 24.8418C35.0096 24.8418 35.1526 23.6972 35.1526 35.1343H-0.151367V23.7777C4.49296 19.191 10.7585 16.6205 17.286 16.6239" fill="#CA037B"/>
<path d="M36.127 25.8433H35.1523V35.1344H-0.151691V24.7434C-1.04592 24.7434 -1.13536 24.9581 -0.0622901 23.8492C2.36509 21.4507 5.26704 19.586 8.45741 18.3749C11.6478 17.1638 15.0561 16.633 18.4637 16.8166C21.8713 17.0001 25.2029 17.8942 28.2447 19.441C31.2865 20.9878 33.9713 23.1533 36.127 25.7988" fill="#CB037A"/>
<path d="M35.9929 25.9327H35.1524V35.1164H-0.15165V24.8329C-0.9028 24.8329 -1.04589 25.0565 0.0540043 23.9923C2.46486 21.6106 5.34699 19.7591 8.51547 18.5567C11.684 17.3543 15.0688 16.8276 18.4528 17.0103C21.8368 17.1931 25.1453 18.0811 28.1659 19.6177C31.1865 21.1543 33.8526 23.3052 35.9929 25.9327Z" fill="#CC0379"/>
<path d="M35.8681 26.0488H35.1528V35.1343H-0.151241V24.9668C-0.74143 24.9668 -0.893461 25.1815 0.170667 24.1353C2.56391 21.7678 5.42577 19.9269 8.57253 18.7308C11.7193 17.5348 15.0814 17.0102 18.443 17.1904C21.8046 17.3706 25.0913 18.2516 28.0922 19.7772C31.0931 21.3028 33.7417 23.439 35.8681 26.0488Z" fill="#CC0378"/>
<path d="M35.743 26.1563C34.9203 26.1563 35.1528 24.8507 35.1528 35.0985H-0.151175V25.0385C-0.589346 25.0385 -0.723488 25.2085 0.286986 24.2159C2.66448 21.865 5.50725 20.0371 8.63285 18.8497C11.7585 17.6623 15.0978 17.1414 18.4365 17.3208C21.7753 17.5001 25.0396 18.3758 28.02 19.8912C31.0004 21.4067 33.631 23.5284 35.743 26.1205" fill="#CD0377"/>
<path d="M35.6088 26.2636C34.965 26.2636 35.1528 24.9759 35.1528 35.1343H-0.151247V26.0488H-1.12598C1.12393 23.3511 3.94284 21.1846 7.12864 19.7045C10.3144 18.2245 13.7882 17.4674 17.301 17.488C20.8138 17.5085 24.2785 18.3059 27.4468 19.8231C30.6151 21.3402 33.4084 23.5398 35.6267 26.2636" fill="#CE0376"/>
<path d="M35.4832 26.3616C35.0182 26.3616 35.1523 25.074 35.1523 35.1341H-0.151673V26.1918H-1.0459C1.18916 23.5136 3.98869 21.3627 7.15233 19.8931C10.316 18.4236 13.7654 17.6718 17.2537 17.6914C20.7419 17.7111 24.1827 18.5018 27.3296 20.0069C30.4764 21.512 33.2516 23.6942 35.4563 26.3975" fill="#CE0375"/>
<path d="M35.3582 26.4694C35.0631 26.4694 35.1525 25.5125 35.1525 35.1344H-0.151494V26.2637H-0.884766C1.33344 23.6029 4.11287 21.4658 7.25425 20.0057C10.3956 18.5455 13.8211 17.7985 17.2852 17.8181C20.7493 17.8378 24.1661 18.6237 27.2907 20.1194C30.4153 21.6151 33.1703 23.7836 35.3582 26.4694Z" fill="#CF0474"/>
<path d="M35.2239 26.5766C35.1166 26.5766 35.1524 25.9149 35.1524 35.1344H-0.151644V26.362H-0.759766C1.44404 23.722 4.20446 21.602 7.32369 20.1539C10.4429 18.7059 13.8438 17.9657 17.2827 17.9863C20.7216 18.0068 24.1133 18.7875 27.2151 20.2727C30.3168 21.7578 33.0518 23.9105 35.2239 26.5766Z" fill="#D00473"/>
<path d="M35.0995 26.6748C35.9937 27.7836 35.9937 27.569 35.1531 27.569V35.1431H-0.150872V26.4781H-0.633789C1.5532 23.8485 4.29564 21.736 7.39639 20.2927C10.4971 18.8494 13.8792 18.1111 17.2993 18.1308C20.7194 18.1504 24.0928 18.9276 27.1767 20.4065C30.2607 21.8854 32.9786 24.0292 35.1352 26.6838" fill="#D10472"/>
<path d="M34.9731 26.8269C35.8673 27.9268 35.769 27.7212 35.152 27.7212V35.2059H-0.152054V26.6481H-0.509766C1.6623 24.0435 4.38373 21.9517 7.4594 20.5226C10.5351 19.0935 13.8888 18.3626 17.2802 18.3822C20.6716 18.4019 24.0166 19.1717 27.0755 20.6363C30.1344 22.101 32.8314 24.2242 34.9731 26.8538" fill="#D10471"/>
<path d="M36.1453 28.6153H35.1527V35.0984H-0.151282V26.648H-0.383789C1.89265 23.9223 4.77332 21.7651 8.02943 20.3476C11.2855 18.9301 14.8274 18.2915 18.3735 18.4825C21.9196 18.6735 25.3723 19.6887 28.4574 21.4477C31.5424 23.2067 34.1748 25.6609 36.1453 28.6153Z" fill="#D20470"/>
<path d="M17.2771 18.6447C20.9883 18.6618 24.6382 19.5916 27.9053 21.3522C31.1723 23.1128 33.9561 25.65 36.0112 28.7403H35.1169V35.1341H-0.15133V26.8267C-0.464309 26.8267 6.05459 18.6176 17.2771 18.6802" fill="#D3046F"/>
<path d="M35.8766 28.83H35.1522V35.1344H-0.151777V27.7212C-0.974464 27.7212 -1.046 27.9448 -0.151777 26.8807C2.0901 24.1921 4.92839 22.0638 8.13738 20.665C11.3464 19.2662 14.8375 18.6353 18.3331 18.8228C21.8287 19.0104 25.2323 20.0111 28.2732 21.7452C31.3141 23.4794 33.9084 25.8991 35.8497 28.8121" fill="#D3046E"/>
<path d="M35.734 28.9285C34.9202 28.9285 35.1527 27.9806 35.1527 35.1344H-0.151258V27.8374C-0.804042 27.8374 -0.884538 28.061 0.000745535 26.9968C2.22932 24.3267 5.05016 22.2135 8.23893 20.825C11.4277 19.4365 14.8964 18.811 18.3693 18.9986C21.8422 19.1861 25.2234 20.1815 28.2441 21.9053C31.2648 23.6291 33.8417 26.0339 35.7698 28.9285" fill="#D4046D"/>
<path d="M35.5999 29.0176C34.9739 29.0176 35.1528 28.1234 35.1528 35.1341H-0.151247V28.803H-1.12598C0.922083 25.8067 3.67423 23.3588 6.88892 21.6743C10.1036 19.9897 13.6826 19.1199 17.3119 19.1411C20.9411 19.1623 24.5098 20.0739 27.7046 21.7959C30.8994 23.5179 33.6227 25.9976 35.6356 29.0176" fill="#D5056C"/>
<path d="M35.4563 29.1072C35.0361 29.1072 35.1523 28.213 35.1523 35.1343H-0.151673V28.8747H-1.0459C0.985718 25.9001 3.71645 23.4696 6.90662 21.7966C10.0968 20.1237 13.6488 19.2596 17.251 19.2799C20.8531 19.3002 24.3952 20.2045 27.5663 21.9132C30.7374 23.622 33.4405 26.083 35.4385 29.0803" fill="#D5056B"/>
<path d="M35.3224 29.1965C35.081 29.1965 35.1525 28.5349 35.1525 35.1343H-0.151494V28.9908H-0.884766C1.13113 26.0383 3.84106 23.6261 7.00711 21.9656C10.1732 20.3052 13.6985 19.4473 17.2735 19.4676C20.8485 19.4879 24.3638 20.3857 27.5108 22.082C30.6578 23.7783 33.3402 26.2213 35.3224 29.1965Z" fill="#D6056A"/>
<path d="M35.1889 29.2949C35.1353 29.2949 35.1889 28.8389 35.1889 35.1342H-0.15083V29.0803H-0.75C1.25329 26.1523 3.94437 23.7605 7.08724 22.1147C10.2301 20.4689 13.7288 19.6193 17.2765 19.6405C20.8241 19.6617 24.3125 20.5531 27.4355 22.2363C30.5585 23.9195 33.2207 26.3432 35.1889 29.2949Z" fill="#D60569"/>
<path d="M36.1176 31.1638H35.1518V35.1341H-0.152173V29.1784H-0.617188C1.47003 26.1277 4.30772 23.666 7.62252 22.0303C10.9373 20.3946 14.6175 19.6403 18.3085 19.8397C21.9995 20.0392 25.577 21.1859 28.6962 23.1693C31.8154 25.1526 34.3713 27.9059 36.1176 31.1638Z" fill="#D70568"/>
<path d="M35.9662 31.2352H35.1525V35.1342H-0.151508V29.268H-0.482422C1.58796 26.2404 4.4033 23.7971 7.69223 22.1736C10.9812 20.55 14.6328 19.801 18.2953 19.9987C21.9578 20.1964 25.5076 21.3342 28.6027 23.3023C31.6978 25.2704 34.2337 28.0024 35.9662 31.2352Z" fill="#D70568"/>
<path d="M35.8853 31.298H35.1521V35.1432H-0.151934V29.3307H-0.402344C1.65889 26.3159 4.46218 23.883 7.73716 22.2667C11.0121 20.6503 14.6483 19.905 18.2951 20.1027C21.9419 20.3004 25.4762 21.4344 28.5573 23.3954C31.6383 25.3563 34.1621 28.078 35.8853 31.298Z" fill="#D70668"/>
<path d="M17.2679 20.1562C21.0772 20.1754 24.8104 21.2243 28.0722 23.1921C31.334 25.1599 34.0029 27.9732 35.7962 31.334H35.1524V35.1345H-0.151604V29.3757C-0.57189 29.3757 5.55354 20.0936 17.2679 20.1562Z" fill="#D70767"/>
<path d="M17.2671 20.2541C21.0593 20.2729 24.7759 21.3169 28.0234 23.2751C31.2709 25.2334 33.9286 28.0333 35.715 31.3784C34.9639 31.3784 35.1516 30.7613 35.1516 35.1341H-0.152361V29.4288C-0.438513 29.4288 5.57961 20.1825 17.2671 20.2541Z" fill="#D80967"/>
<path d="M35.6265 31.4229C35.0006 31.4229 35.1526 30.815 35.1526 35.1341H-0.151367C-0.151367 29.0802 -0.151367 29.4915 -0.151367 29.4915C1.88129 26.5215 4.64439 24.125 7.87188 22.5326C11.0994 20.9403 14.6825 20.2058 18.2762 20.3999C21.8699 20.5939 25.3531 21.7099 28.3904 23.6406C31.4276 25.5712 33.9166 28.2513 35.6177 31.4229" fill="#D80A66"/>
<path d="M35.5373 31.4676C34.9918 31.4676 35.1438 30.9133 35.1438 35.134H-0.151247V31.2978H-1.12598C0.689297 28.0146 3.35559 25.281 6.59261 23.3847C9.82964 21.4883 13.5178 20.4993 17.2693 20.5212C21.0209 20.5432 24.6972 21.5754 27.9118 23.5096C31.1265 25.4437 33.7606 28.2082 35.5373 31.5124" fill="#D80B66"/>
<path d="M35.4563 31.5124C35.0361 31.5124 35.1523 30.967 35.1523 35.1341H-0.151673V31.2978H-1.0459C0.759272 28.0251 3.41364 25.2996 6.63765 23.4087C9.86166 21.5178 13.536 20.5316 17.2735 20.5536C21.011 20.5756 24.6735 21.605 27.875 23.5336C31.0766 25.4623 33.6987 28.2187 35.4653 31.5124" fill="#D80C66"/>
<path d="M17.2684 20.6388C29.7876 20.7103 35.7789 31.5572 35.1529 31.5572V35.1341H-0.151068V31.3516H-0.964844C0.823956 28.0847 3.46308 25.3625 6.67297 23.4734C9.88285 21.5843 13.544 20.5987 17.2684 20.6208" fill="#D80E65"/>
<path d="M36.1451 33.4085H35.1525V35.1342H-0.151494V31.3964H-0.884766C7.42259 16.3109 29.5189 17.5002 36.1451 33.4085Z" fill="#D90F65"/>
<path d="M36.0552 33.444H35.1609V35.1342H-0.152028V31.4409H-0.795898C7.46675 16.4269 29.4647 17.6073 36.0552 33.444Z" fill="#D91064"/>
<path d="M35.9653 33.48H35.1516V35.1344H-0.152454V31.4859H-0.71582C7.51105 16.5434 29.4106 17.7148 35.9474 33.48" fill="#D91164"/>
<path d="M35.8775 33.5157H35.1531V35.1343H-0.150872V31.5574H-0.633789C7.55732 16.6864 29.3496 17.8578 35.8775 33.5425" fill="#D91263"/>
<path d="M35.7964 33.5514C34.9468 33.5514 35.1525 33.2474 35.1525 35.1342H-0.15146V31.5573H-0.544922C7.60147 16.7579 29.2953 17.9203 35.7964 33.5335" fill="#D91463"/>
<path d="M35.7066 33.5873C34.9733 33.5873 35.1522 33.2832 35.1522 35.1343H-0.151832V31.629H-0.464844C7.64578 16.8922 29.2324 18.0546 35.7066 33.5873Z" fill="#DA1563"/>
<path d="M17.2586 21.3093C21.1897 21.3317 25.0273 22.5115 28.2922 24.7013C31.557 26.8911 34.1047 29.9941 35.617 33.6228C35 33.6228 35.152 33.3277 35.152 35.134H-0.151994V31.6733C-0.769009 31.6733 5.06132 21.2378 17.2586 21.3093Z" fill="#DA1662"/>
<path d="M35.5373 33.6586C35.0365 33.6586 35.1617 33.3726 35.1617 35.1342H-0.151247V33.4529H-1.12598C5.80427 17.3569 28.7859 17.4373 35.5373 33.6586Z" fill="#DA1762"/>
<path d="M35.4385 33.7034C35.0629 33.7034 35.1523 33.4173 35.1523 35.1342H-0.151673V33.4888H-1.0459C5.84858 17.4464 28.7229 17.5447 35.4474 33.7034" fill="#DA1861"/>
<path d="M35.3496 33.7391C35.0903 33.7391 35.1529 33.5156 35.1529 35.1341H-0.151068V33.5245H-0.964844C5.89387 17.5626 28.6608 17.6609 35.3496 33.7391Z" fill="#DA1A61"/>
<path d="M35.2597 33.7749C35.1166 33.7749 35.1523 33.5692 35.1523 35.1341H-0.151656V33.5692H-0.875977C5.94696 17.6788 28.6334 17.7772 35.2597 33.7749Z" fill="#DB1B61"/>
<path d="M35.1697 33.8106C35.1697 33.8106 35.1697 33.7033 35.1697 35.134H-0.15219V33.6049H-0.787109C6.00006 17.795 28.5435 17.8934 35.1697 33.8106Z" fill="#DB1C60"/>
<path d="M35.7246 35.6351C34.9108 34.9197 39.0779 35.1343 -0.151747 35.1343V33.641H-0.697266C6.45654 16.9905 30.4755 18.4391 35.7246 35.6351Z" fill="#DB1D60"/>
<path d="M35.6352 35.6616C34.9467 34.9105 39.078 35.1342 -0.13378 35.1342V33.6765H-0.589844C6.56396 17.1065 30.4309 18.5283 35.6531 35.6616" fill="#DB1E5F"/>
<path d="M34.9028 33.9179C35.9849 36.5201 35.4752 35.5992 35.1533 35.1342H-0.150753V33.7212H-0.526367C6.17138 18.1438 28.375 18.2421 34.9028 33.9179Z" fill="#DB205F"/>
<path d="M35.4478 35.7156C35.0275 34.875 39.0783 35.1345 -0.151341 35.1345V33.7573H-0.4375C6.61794 17.3483 30.2792 18.7611 35.4478 35.7156Z" fill="#DC215F"/>
<path d="M17.2591 22.2662C32.9796 22.3646 36.485 39.1672 35.1436 35.1343H-0.151408V33.7929C-0.893615 33.7929 4.66844 22.1679 17.2591 22.2662Z" fill="#DC225E"/>
<path d="M17.2594 22.3558C20.978 22.3739 24.609 23.4859 27.7002 25.553C30.7913 27.6201 33.2059 30.551 34.6431 33.9807C35.3138 35.5903 35.3764 36.3683 35.1528 35.0806H-0.151166V33.775C-0.580394 33.775 4.57926 22.2395 17.2594 22.311" fill="#DC235E"/>
<path d="M17.2596 22.463C20.9659 22.4859 24.5831 23.6007 27.6591 25.6683C30.7351 27.736 33.1334 30.6647 34.5539 34.0879C35.3051 35.8764 35.1888 36.3592 35.1531 35.152H-0.150949V33.891C-0.320852 33.891 4.499 22.4092 17.2596 22.4807" fill="#DC245D"/>
<path d="M34.4631 34.1059C35.2232 35.948 35.0802 36.3595 35.0802 35.1344H-0.152292L-0.724609 35.6263C4.55132 19.0116 27.7654 18.0188 34.4631 34.1059Z" fill="#DC255D"/>
<path d="M34.3752 34.1416C35.1442 35.9837 34.9922 36.3951 34.9922 35.1342H-0.150872L-0.633789 35.653C4.61531 19.1187 27.7132 18.1349 34.3752 34.1416Z" fill="#DC265D"/>
<path d="M34.285 34.1771C35.054 36.0371 34.902 36.4217 34.902 35.134H-0.151568L-0.536133 35.6794C4.6772 19.2345 27.6588 18.251 34.285 34.1771Z" fill="#DD285C"/>
<path d="M17.2502 22.8476C20.8864 22.8598 24.4382 23.9447 27.4605 25.9665C30.4828 27.9883 32.8413 30.857 34.2405 34.2132C35.0095 36.0642 34.8485 36.4577 34.8485 35.1074H-0.15141C-1.19765 37.1641 -0.303446 33.2027 3.18403 29.2412C4.91417 27.2048 7.07118 25.574 9.50207 24.4645C11.933 23.3549 14.5782 22.7937 17.2502 22.8208" fill="#DD295C"/>
<path d="M17.25 22.9459C20.861 22.9637 24.3864 24.0465 27.3848 26.0587C30.3832 28.0709 32.7213 30.9231 34.1062 34.258C34.8752 36.0912 34.7143 36.5025 34.7143 35.1522H-0.160515C-0.89378 37.3341 -0.160508 33.3638 3.25543 29.3666C4.95243 27.3133 7.09212 25.6705 9.51419 24.5617C11.9363 23.4529 14.5779 22.9066 17.2411 22.9638" fill="#DD2A5C"/>
<path d="M17.2507 23.0353C20.8427 23.0557 24.349 24.1345 27.3312 26.1369C30.3134 28.1393 32.639 30.9766 34.0174 34.2936C34.7775 36.1268 34.6255 36.5381 34.6255 35.1342H-0.150889C-0.553291 37.3966 0.0279338 33.4082 3.29186 29.411C4.96367 27.3373 7.09551 25.6815 9.51842 24.5748C11.9413 23.4682 14.5887 22.9411 17.2507 23.0353Z" fill="#DD2B5B"/>
<path d="M33.9276 34.3292C34.6876 36.1624 34.5267 36.5738 34.5267 35.1341H-0.151367V35.7958C4.95466 19.6998 27.4533 18.7339 33.9454 34.3292" fill="#DD2C5B"/>
<path d="M33.8379 34.3651C34.598 36.1983 34.4371 36.6008 34.4371 35.1342H-0.0800781V35.8317C4.99912 19.8072 27.3816 18.8413 33.8379 34.3651Z" fill="#DE2D5A"/>
<path d="M33.7489 34.4011C34.509 36.1896 34.348 36.6457 34.348 35.1344H0.00976562V35.8588C5.07108 19.9237 27.3283 18.9668 33.7489 34.4011Z" fill="#DE2E5A"/>
<path d="M33.6589 34.4367C34.419 36.2252 34.2581 36.6723 34.2581 35.1342H0.0986328V35.8853C5.13312 20.0396 27.2742 19.0918 33.6589 34.4367Z" fill="#DE305A"/>
<path d="M33.5691 34.4726C34.3292 36.261 34.1593 36.7171 34.1593 35.1343H0.178711V35.9211C5.17743 20.147 27.2022 19.2081 33.5512 34.4726" fill="#DE3159"/>
<path d="M33.4897 34.5085C34.2409 36.297 34.0709 36.753 34.0709 35.1344H0.287109V35.9481C5.259 20.2634 27.1675 19.3246 33.4897 34.5085Z" fill="#DE3259"/>
<path d="M33.3997 34.5439C34.1509 36.3324 33.981 36.7886 33.981 35.1342H0.375977V35.9748C5.32999 20.3795 27.1133 19.4494 33.3997 34.5439Z" fill="#DE3359"/>
<path d="M33.3097 34.5887C34.0609 36.3771 33.882 36.8243 33.882 35.1342H0.464844V36.0285C5.39203 20.5226 27.0591 19.5925 33.3097 34.6155" fill="#DF3458"/>
<path d="M33.2206 34.6244C33.6051 35.5187 33.5246 35.5724 33.5246 35.1342H0.563477V36.0284C5.45489 20.603 27.0057 19.6819 33.2206 34.6155" fill="#DF3558"/>
<path d="M33.1314 34.6603C33.4981 35.5545 33.4355 35.6529 33.4355 35.1343H0.662109V36.0285C5.5267 20.6836 26.9613 19.7714 33.1404 34.6245" fill="#DF3657"/>
<path d="M33.0426 34.6962C33.4271 35.5904 33.3466 35.662 33.3466 35.1344H0.743164V36.0912C5.58092 20.8358 26.8903 19.9236 33.0426 34.6962Z" fill="#DF3757"/>
<path d="M32.9526 34.7319C33.3371 35.6262 33.2567 35.7066 33.2567 35.1343H0.832031V36.1178C5.65191 20.916 26.8361 20.0219 32.9526 34.7319Z" fill="#DF3857"/>
<path d="M32.8545 34.7675C33.248 35.6617 33.1586 35.7513 33.1586 35.1343H0.930664V36.1536C5.71477 21.068 26.7827 20.1648 32.8635 34.7675" fill="#E03956"/>
<path d="M32.7734 34.8031C33.1669 35.6974 33.0775 35.7869 33.0775 35.1341H1.01953V36.1803C5.77681 21.1752 26.7285 20.2809 32.7734 34.8031Z" fill="#E03A56"/>
<path d="M32.6845 34.8748C33.0779 35.8137 32.9796 35.8674 32.9796 35.1699H1.10938V36.243C5.83983 21.3273 26.6753 20.442 32.6845 34.8748Z" fill="#E03B56"/>
<path d="M32.5948 34.8748C32.9793 35.769 32.8898 35.8763 32.8898 35.1252H1.4668V35.4559C6.75167 21.2825 26.7555 20.8354 32.5948 34.8748Z" fill="#E03C55"/>
<path d="M32.5058 34.9199C32.8903 35.8141 32.8009 35.9303 32.8009 35.1345H1.55664V35.4921C6.80574 21.408 26.7022 20.961 32.5058 34.9199Z" fill="#E03D55"/>
<path d="M32.4158 34.9556C32.8004 35.8498 32.7109 35.975 32.7109 35.1344H1.64551V35.5278C6.86778 21.5242 26.6839 21.0862 32.4158 34.9556Z" fill="#E03F55"/>
<path d="M32.3357 34.9912C32.7113 35.8854 32.6219 36.0108 32.6219 35.1344H1.73535V35.5636C6.9308 21.6406 26.5948 21.2023 32.3357 34.9912Z" fill="#E14054"/>
<path d="M32.2468 35.0269C32.6223 35.9212 32.5329 36.0554 32.5329 35.1343H1.8252V35.5994C6.98488 21.7478 26.5326 21.2916 32.2289 35.0269" fill="#E14154"/>
<path d="M32.1566 35.0626C32.5322 35.9569 32.4428 36.1 32.4428 35.1342H1.92285V35.6261C7.04676 21.864 26.4783 21.4346 32.1566 35.0626Z" fill="#E14254"/>
<path d="M32.0676 35.0984C32.4432 35.9926 32.3538 36.1357 32.3538 35.0984H2.0127V35.6261C7.10978 21.9444 26.425 21.5151 32.0676 35.0626" fill="#E14353"/>
<path d="M31.9603 35.1343H2.10209C2.10209 35.948 2.00373 35.8586 2.38825 34.9644C7.97716 21.9624 26.5324 22.0428 31.9782 35.1343" fill="#E14453"/>
<path d="M31.8881 35.179C31.8881 35.1074 33.3011 35.1342 2.19094 35.1342C2.19094 36.0284 2.10153 35.8942 2.4771 35.0089C8.03024 22.0784 26.4691 22.1591 31.8881 35.179Z" fill="#E14553"/>
<path d="M31.799 35.2146C31.799 35.0894 34.0704 35.1342 2.28958 35.1342C2.28958 36.0285 2.20016 35.93 2.57574 35.0447C8.10205 22.1947 26.4247 22.2751 31.808 35.2146" fill="#E24652"/>
<path d="M31.7092 35.2503C31.7092 35.0714 33.9716 35.1341 2.36966 35.1341C2.36966 36.082 2.27131 35.9657 2.65582 35.0804C8.14637 22.3109 26.3528 22.3913 31.7092 35.2503Z" fill="#E24752"/>
<path d="M31.6202 35.2864C31.6202 35.045 33.8647 35.1345 2.45951 35.1345C2.45951 36.127 2.36115 36.0287 2.74567 35.1345C8.20044 22.4454 26.2995 22.5258 31.6202 35.3043" fill="#E24852"/>
<path d="M31.5307 35.322C31.5307 35.0269 33.7304 35.1343 2.83496 35.1343C3.63337 33.2989 4.77453 31.6327 6.19726 30.225C8.01336 28.433 10.2416 27.1143 12.6863 26.3846C15.1311 25.6548 17.7176 25.5364 20.2188 26.0396C22.72 26.5429 25.0595 27.6522 27.0318 29.2707C29.0041 30.8892 30.5489 32.9671 31.5307 35.322Z" fill="#E24951"/>
<path d="M31.4416 35.3576C31.4416 35.0089 33.6772 35.1341 2.9248 35.1341C2.9248 35.6259 3.39874 33.1309 6.2692 30.2962C8.07263 28.5136 10.2864 27.2015 12.7158 26.475C15.1453 25.7484 17.716 25.6297 20.202 26.1296C22.688 26.6294 25.0131 27.7324 26.9729 29.3415C28.9328 30.9505 30.4673 33.0165 31.4416 35.3576Z" fill="#E24A51"/>
<path d="M17.232 25.9328C20.2559 25.9485 23.208 26.8552 25.7193 28.5395C28.2307 30.2238 30.1898 32.611 31.3518 35.4027C31.3518 35.0271 34.5084 35.1433 3.00488 35.1433C3.00488 35.5279 3.8276 33.0418 6.16153 30.5559C7.56915 29.0388 9.28567 27.8411 11.1954 27.0436C13.1051 26.2461 15.1635 25.8674 17.232 25.9328Z" fill="#E24A51"/>
<path d="M31.2628 35.4294C31.2628 35.0002 34.4016 35.1342 3.09473 35.1342C3.09473 35.8854 3.41666 33.3905 6.40337 30.4306C8.18491 28.6713 10.3712 27.3762 12.7703 26.6594C15.1693 25.9426 17.7077 25.8259 20.1623 26.3195C22.617 26.8131 24.913 27.9019 26.8485 29.4903C28.784 31.0787 30.2998 33.1182 31.2628 35.4294Z" fill="#E24B50"/>
<path d="M31.1818 35.474C31.1818 34.9822 34.2848 35.1343 3.18359 35.1343C3.18359 36.0285 3.43396 33.4979 6.46539 30.5023C8.23665 28.7528 10.4105 27.465 12.7959 26.7523C15.1813 26.0395 17.7052 25.9235 20.1459 26.4145C22.5866 26.9055 24.8694 27.9884 26.7937 29.5681C28.7179 31.1478 30.2248 33.1757 31.1818 35.474Z" fill="#E34C50"/>
<path d="M31.0654 35.5098C31.0654 34.9285 33.2295 35.1343 3.24609 35.1343C3.24609 36.1 3.44279 33.6051 6.50998 30.5647C8.27114 28.829 10.4313 27.552 12.801 26.8457C15.1707 26.1393 17.6775 26.0252 20.1015 26.5134C22.5256 27.0015 24.7928 28.077 26.7044 29.6456C28.6159 31.2141 30.1134 33.2277 31.0654 35.5098Z" fill="#E34D50"/>
<path d="M31.0028 35.5454C31.0028 34.9462 34.0611 35.134 3.3623 35.134C3.3623 36.1982 3.50538 33.6943 6.5994 30.6629C8.34877 28.9367 10.4952 27.6664 12.8501 26.9633C15.2051 26.2603 17.6967 26.1461 20.1061 26.6308C22.5155 27.1155 24.769 28.1842 26.6689 29.7432C28.5688 31.3022 30.057 33.3038 31.0028 35.5722" fill="#E34E4F"/>
<path d="M30.9138 35.5815C30.9138 34.9287 33.9631 35.1344 3.45215 35.1344C3.45215 36.2879 3.54155 33.7931 6.67134 30.708C8.40901 28.9932 10.541 27.7312 12.8803 27.0326C15.2195 26.3341 17.6945 26.2203 20.0879 26.7015C22.4813 27.1826 24.72 28.2439 26.6076 29.7922C28.4951 31.3404 29.9738 33.3284 30.9138 35.5815Z" fill="#E34F4F"/>
<path d="M30.8248 35.6173C30.8248 34.9198 33.8562 35.1344 3.54199 35.1344C3.54199 36.4042 3.54201 33.9003 6.74334 30.7705C8.46993 29.0674 10.5882 27.8143 12.9121 27.1209C15.2361 26.4275 17.6947 26.3151 20.0722 26.7936C22.4498 27.2721 24.6735 28.3269 26.5483 29.8653C28.423 31.4038 29.8915 33.3789 30.8248 35.6173Z" fill="#E3504F"/>
<path d="M30.7348 35.6528C30.7348 34.9016 33.7394 35.1341 3.63086 35.1341C3.63086 36.4754 3.63085 34.0163 6.80535 30.8418C8.52113 29.1502 10.6257 27.9054 12.9345 27.2166C15.2434 26.5278 17.6859 26.416 20.048 26.8909C22.4101 27.3658 24.6197 28.4129 26.4829 29.9405C28.3461 31.4681 29.8061 33.4296 30.7348 35.6528Z" fill="#E3514E"/>
<path d="M30.6452 35.6885C30.6452 34.8837 33.6408 35.1342 3.71107 35.1342C3.71107 36.5471 3.63956 34.1059 6.87666 30.9135C8.57977 29.2314 10.6699 27.9929 12.9634 27.3073C15.2569 26.6218 17.6836 26.5099 20.0305 26.9814C22.3774 27.4529 24.5727 28.4935 26.4234 30.0116C28.2742 31.5298 29.7239 33.4791 30.6452 35.6885Z" fill="#E4524E"/>
<path d="M30.5563 35.7689C30.5563 34.8747 33.5341 35.1788 3.8011 35.1788C3.8011 36.6722 3.70275 34.2219 6.93984 31.0205C8.63276 29.3502 10.7097 28.121 12.9886 27.4406C15.2674 26.7602 17.6785 26.6496 20.01 27.1183C22.3416 27.5871 24.5225 28.6211 26.3612 30.1294C28.2 31.6376 29.6405 33.5741 30.5563 35.7689Z" fill="#E4534E"/>
<path d="M30.4676 35.7693C30.4676 34.8751 33.4274 35.1345 3.89115 35.1345C3.89115 36.6904 3.77489 34.2402 7.01199 31.0478C8.69285 29.387 10.756 28.1646 13.02 27.4881C15.284 26.8116 17.6795 26.7018 19.996 27.1681C22.3124 27.6344 24.4788 28.6625 26.3047 30.1623C28.1307 31.6621 29.5602 33.5876 30.4676 35.7693Z" fill="#E4544E"/>
<path d="M30.3779 35.7691C30.3779 34.7944 33.311 35.0984 3.98044 35.0984C3.98044 36.7348 3.83733 34.2847 7.07442 31.0833C8.74155 29.4279 10.7907 28.2083 13.0409 27.5326C15.291 26.8569 17.673 26.7457 19.9763 27.2089C22.2797 27.672 24.4335 28.6953 26.2476 30.1882C28.0617 31.6812 29.4803 33.5979 30.3779 35.7691Z" fill="#E4544D"/>
<path d="M30.2882 35.8405C30.2882 34.8211 33.2034 35.1341 4.06949 35.1341C4.06949 36.851 3.91747 34.3651 7.14562 31.1817C8.8046 29.5442 10.8403 28.339 13.0739 27.6722C15.3074 27.0054 17.6706 26.8974 19.9557 27.3574C22.2409 27.8174 24.3781 28.8315 26.1797 30.3106C27.9813 31.7897 29.3921 33.6887 30.2882 35.8405Z" fill="#E4554D"/>
<path d="M30.1711 35.8763C30.1711 34.8032 33.0684 35.134 4.13122 35.134C4.13122 36.9225 3.97024 34.4275 7.18051 31.253C8.82867 29.6271 10.8507 28.4307 13.0692 27.7685C15.2876 27.1063 17.6347 26.9985 19.9044 27.455C22.1741 27.9114 24.2971 28.918 26.0872 30.3863C27.8772 31.8546 29.2795 33.7397 30.1711 35.8763Z" fill="#E4564D"/>
<path d="M30.1084 35.9119C30.1084 34.7852 32.9878 35.1341 4.24744 35.1341C4.24744 37.003 4.05072 34.517 7.27888 31.3157C8.91595 29.7015 10.9241 28.5138 13.1273 27.8567C15.3305 27.1996 17.6613 27.0933 19.9151 27.5471C22.1689 28.0009 24.2769 29.0008 26.0542 30.4592C27.8314 31.9177 29.2236 33.79 30.1084 35.9119Z" fill="#E4574C"/>
<path d="M30.0291 35.9478C30.0291 34.7674 32.8816 35.1342 4.33793 35.1342C4.33793 37.0657 4.1233 34.5798 7.34252 31.3874C8.96871 29.7828 10.9639 28.6017 13.153 27.948C15.342 27.2944 17.658 27.1882 19.8978 27.6385C22.1376 28.0887 24.2326 29.0817 25.999 30.5305C27.7654 31.9793 29.1493 33.8395 30.0291 35.9478Z" fill="#E5584C"/>
<path d="M29.9386 35.9837V35.1342H4.41739C4.41739 37.1194 4.19381 34.6423 7.41302 31.4589C9.02751 29.8657 11.0083 28.6931 13.1817 28.044C15.355 27.3948 17.6544 27.289 19.8781 27.7357C22.1019 28.1824 24.1821 29.1681 25.9362 30.6061C27.6902 32.0442 29.0645 33.8907 29.9386 35.9837Z" fill="#E5594C"/>
<path d="M29.8494 36.0197V35.1255H4.50704C4.50704 37.1822 4.26561 34.6963 7.48482 31.5486C9.08646 29.9684 11.0511 28.8049 13.2067 28.1601C15.3623 27.5153 17.6431 27.409 19.8494 27.8503C22.0557 28.2916 24.1202 29.267 25.862 30.6913C27.6038 32.1155 28.9698 33.945 29.8405 36.0197" fill="#E5594C"/>
<path d="M29.7603 36.0643V35.1701H4.59681C4.59681 37.2894 4.33748 34.8034 7.54775 31.5932C9.14096 30.0235 11.0949 28.8686 13.2382 28.2298C15.3816 27.591 17.649 27.4878 19.8415 27.9292C22.0341 28.3705 24.0849 29.3428 25.8142 30.7612C27.5435 32.1795 28.8984 34.0005 29.7603 36.0643Z" fill="#E55A4B"/>
<path d="M29.6704 36.1002V35.1343H4.6857C4.6857 37.3162 4.40851 34.8302 7.61878 31.6646C9.20082 30.1032 11.1425 28.9548 13.2729 28.3204C15.4032 27.6861 17.6569 27.5855 19.8354 28.0273C22.0138 28.469 24.0503 29.4393 25.7653 30.8534C27.4804 32.2674 28.8214 34.0814 29.6704 36.1358" fill="#E55B4B"/>
<path d="M29.581 36.1355V35.1341H4.77517C4.77517 37.3697 4.48902 34.8926 7.6814 31.727C9.25175 30.1786 11.1782 29.0392 13.2915 28.4088C15.4049 27.7785 17.6407 27.6765 19.8027 28.1117C21.9648 28.5469 23.9869 29.5061 25.6918 30.9051C27.3966 32.3041 28.7322 34.1 29.581 36.1355Z" fill="#E55C4B"/>
<path d="M29.4922 36.1717V35.1345H4.86521C4.86521 37.4326 4.56115 34.9557 7.75354 31.799C9.31602 30.2703 11.2285 29.1467 13.3244 28.5258C15.4203 27.905 17.6362 27.8057 19.7792 28.2368C21.9222 28.6678 23.9274 29.6162 25.6203 30.9991C27.3131 32.3821 28.6423 34.1577 29.4922 36.1717Z" fill="#E55C4B"/>
<path d="M29.4026 36.2074V35.1344H4.95442C4.95442 37.5041 4.63251 35.018 7.81595 31.8703C9.36185 30.3407 11.26 29.2146 13.3434 28.5908C15.4267 27.967 17.6315 27.8648 19.7637 28.2932C21.8958 28.7216 23.89 29.6672 25.5708 31.0473C27.2516 32.4273 28.5674 34.1994 29.4026 36.2074Z" fill="#E55D4A"/>
<path d="M29.0533 35.6616C29.0533 34.9015 31.736 35.1341 5.04338 35.1341C5.04338 37.5664 4.72145 35.0625 7.88701 31.9327C9.3845 30.4548 11.214 29.3567 13.2227 28.7305C15.2313 28.1042 17.3607 27.9681 19.4328 28.3331C21.5049 28.6982 23.4595 29.554 25.1332 30.8289C26.8069 32.1039 28.151 33.7609 29.0533 35.6616Z" fill="#E55E4A"/>
<path d="M17.2237 28.2308C19.5794 28.2358 21.8893 28.8808 23.9069 30.0967C25.9245 31.3126 27.5739 33.0537 28.6788 35.1341H5.13379V36.1445C6.14862 33.7817 7.83772 31.7707 9.98975 30.3631C12.1418 28.9554 14.6612 28.2138 17.2327 28.2308" fill="#E65E4A"/>
<path d="M17.2233 28.3202C19.554 28.3415 21.8368 28.9843 23.8363 30.182C25.8358 31.3798 27.4795 33.0894 28.5978 35.1343H5.21387V36.1805C6.22318 33.8362 7.90009 31.8409 10.0357 30.4432C12.1712 29.0454 14.671 28.307 17.2233 28.3202Z" fill="#E65F4A"/>
<path d="M17.2232 28.4188C25.4769 28.4188 28.5084 35.4384 28.5084 35.1344H5.5625V35.6531C6.62546 33.4774 8.27955 31.6449 10.3355 30.3655C12.3913 29.0861 14.766 28.4114 17.1874 28.4188" fill="#E66049"/>
<path d="M17.2231 28.517C25.4231 28.5617 28.4277 35.5189 28.4277 35.1344C4.87381 35.1344 5.93797 35.1344 5.93797 35.1344C7.0478 33.1159 8.68222 31.4347 10.6686 30.2683C12.655 29.102 14.9196 28.4937 17.2231 28.5081" fill="#E66049"/>
<path d="M17.2234 28.6154C25.3698 28.6691 28.3386 35.6173 28.3386 35.1433C4.31077 35.1433 5.98297 35.2149 5.98297 35.197C7.08544 33.1932 8.70827 31.524 10.6803 30.3657C12.6524 29.2073 14.9005 28.6026 17.1876 28.6154" fill="#E66149"/>
<path d="M17.2232 28.7049C25.316 28.7496 28.2579 35.6977 28.2579 35.1344C3.66674 35.1344 6.10801 35.2505 6.10801 35.2326C7.20134 33.2446 8.81118 31.5887 10.7676 30.4397C12.724 29.2907 14.9544 28.6914 17.2232 28.7049Z" fill="#E66149"/>
<path d="M17.2232 28.8029C19.269 28.8169 21.28 29.3322 23.0806 30.3034C24.8811 31.2745 26.4162 32.6721 27.5515 34.3739C28.2937 35.4916 28.1775 35.6169 28.1775 35.134H6.18848C6.18848 35.4739 6.93068 33.7301 8.80855 31.9864C11.0874 29.8627 14.1094 28.7193 17.2232 28.8029Z" fill="#E66149"/>
<path d="M27.4882 34.4277C28.2394 35.5455 28.1053 35.6797 28.1053 35.1342H6.28613V35.322C7.31485 33.4538 8.80761 31.8823 10.6204 30.7589C12.4331 29.6355 14.5048 28.9981 16.6355 28.9082C18.7663 28.8184 20.8843 29.2791 22.7852 30.2459C24.6861 31.2127 26.3059 32.6528 27.4882 34.4277Z" fill="#E66248"/>
<path d="M27.3996 34.4814C28.1507 35.6081 28.0076 35.7512 28.0076 35.1342H6.3584V35.3756C7.37788 33.5203 8.85848 31.9592 10.6572 30.8429C12.456 29.7267 14.5121 29.0931 16.6271 29.0032C18.7422 28.9133 20.8447 29.3701 22.7317 30.3297C24.6186 31.2893 26.2263 32.7193 27.3996 34.4814Z" fill="#E66347"/>
<path d="M27.3192 34.5262C28.0793 35.6708 27.9272 35.7959 27.9272 35.1342H6.46582V35.4204C7.47782 33.58 8.94694 32.0312 10.7315 30.9237C12.5161 29.8162 14.5559 29.1874 16.6543 29.0975C18.7527 29.0076 20.8388 29.4598 22.7115 30.4107C24.5842 31.3615 26.1804 32.779 27.346 34.5262" fill="#E76446"/>
<path d="M27.2387 34.5798C27.9988 35.7154 27.8468 35.8497 27.8468 35.1343H6.51953V35.4651C7.52229 33.6375 8.97926 32.0993 10.7498 30.9989C12.5203 29.8986 14.5447 29.2735 16.6273 29.1836C18.71 29.0938 20.7806 29.5422 22.6394 30.4859C24.4981 31.4296 26.0822 32.8364 27.2387 34.5708" fill="#E76545"/>
<path d="M27.1668 34.6336C27.9179 35.7603 27.7659 35.9124 27.7659 35.1344H6.59961V35.5099C7.59432 33.6953 9.04011 32.1677 10.7973 31.0748C12.5546 29.9819 14.5639 29.3605 16.6314 29.2706C18.6988 29.1807 20.7545 29.6255 22.5999 30.5618C24.4454 31.4981 26.0183 32.8942 27.1668 34.6157" fill="#E76644"/>
<path d="M27.0869 34.6873C27.838 35.8051 27.6771 35.9661 27.6771 35.1344H6.68066V35.5547C7.66789 33.7549 9.10221 32.24 10.8453 31.1558C12.5883 30.0716 14.5814 29.4548 16.6321 29.365C18.6829 29.2751 20.7223 29.715 22.5535 30.6426C24.3847 31.5701 25.946 32.954 27.0869 34.6605" fill="#E76743"/>
<path d="M27.006 34.7317C27.7482 35.8406 27.5962 36.0283 27.5962 35.1341H6.76074V35.5991C7.74049 33.8142 9.16333 32.3117 10.8922 31.2363C12.6211 30.1608 14.5978 29.5488 16.6319 29.4589C18.666 29.3691 20.689 29.8044 22.506 30.7232C24.3229 31.642 25.8727 33.0134 27.006 34.7049" fill="#E86842"/>
<path d="M26.9341 34.7853C27.6674 35.8852 27.5154 36.0821 27.5154 35.1342H6.84082V35.644C7.81252 33.872 9.22418 32.3802 10.9398 31.3121C12.6554 30.2441 14.6171 29.6358 16.636 29.5459C18.6549 29.4561 20.6629 29.8877 22.4666 30.7991C24.2703 31.7105 25.8088 33.0711 26.9341 34.7497" fill="#E86941"/>
<path d="M26.8541 34.8748C27.5874 35.9747 27.4354 36.1805 27.4354 35.17H6.92188V35.7243C7.87951 33.9574 9.27888 32.469 10.9834 31.4043C12.6879 30.3395 14.6393 29.7348 16.6472 29.6492C18.6551 29.5636 20.6509 30 22.4398 30.9159C24.2287 31.8317 25.7496 33.1958 26.8541 34.8748Z" fill="#E86A40"/>
<path d="M26.7732 34.8749C27.5154 35.9748 27.3544 36.1895 27.3544 35.1164H7.01074V35.7155C7.9694 33.9743 9.36042 32.5094 11.0497 31.462C12.739 30.4146 14.6696 29.82 16.6555 29.7356C18.6413 29.6511 20.6155 30.0796 22.3876 30.9797C24.1597 31.8799 25.6701 33.2215 26.7732 34.8749Z" fill="#E86B3F"/>
<path d="M26.7022 34.9464C27.4354 36.0374 27.2655 36.2609 27.2655 35.1342H7.0918V35.778C8.04323 34.0503 9.42367 32.5967 11.1001 31.5575C12.7765 30.5183 14.6924 29.9286 16.663 29.845C18.6336 29.7615 20.5926 30.187 22.3509 31.0805C24.1093 31.974 25.6079 33.3055 26.7022 34.9464Z" fill="#E86C3E"/>
<path d="M26.5944 34.9911C27.3098 36.0642 27.1578 36.3147 27.1578 35.1343H7.17188V35.8229C8.11407 34.108 9.48235 32.6647 11.1447 31.6327C12.8071 30.6007 14.7075 30.0148 16.6624 29.9312C18.6173 29.8476 20.5607 30.2694 22.3052 31.1557C24.0496 32.042 25.5361 33.3629 26.6213 34.9911" fill="#E96D3D"/>
<path d="M26.5404 35.0449C27.2916 36.1627 27.1038 36.3506 27.1038 35.1344H7.25195V35.8677C8.18747 34.1682 9.545 32.7382 11.1937 31.7158C12.8423 30.6934 14.7265 30.1128 16.6647 30.0302C18.6029 29.9475 20.5297 30.3654 22.2595 31.2438C23.9892 32.1221 25.4636 33.4312 26.5404 35.0449Z" fill="#E96E3C"/>
<path d="M26.4691 35.0984C27.1845 36.1804 27.0235 36.4397 27.0235 35.0984H7.35059V35.8764C8.27888 34.1904 9.62588 32.7719 11.2617 31.7577C12.8975 30.7435 14.7669 30.1676 16.6899 30.0858C18.6129 30.004 20.5245 30.419 22.2404 31.2907C23.9564 32.1624 25.419 33.4614 26.487 35.0626" fill="#E96F3B"/>
<path d="M26.3892 35.1522C26.3892 35.1522 27.2834 35.1522 7.41368 35.1522C7.41368 36.3594 7.25272 36.1268 7.97704 35.0627C9.00265 33.5618 10.381 32.3356 11.9911 31.4917C13.6012 30.6478 15.3938 30.212 17.2116 30.2226C19.0294 30.2332 20.8169 30.69 22.417 31.5526C24.0172 32.4152 25.3811 33.6574 26.3892 35.1701" fill="#E9703A"/>
<path d="M26.3079 35.1967C26.3079 35.0984 27.7655 35.1341 7.52915 35.1341C7.52915 36.4039 7.37713 36.1446 8.09251 35.1341C9.10831 33.6456 10.474 32.4293 12.0697 31.5919C13.6654 30.7545 15.4422 30.3216 17.2442 30.3313C19.0463 30.341 20.8184 30.793 22.4049 31.6476C23.9915 32.5021 25.3439 33.733 26.3436 35.2323" fill="#EA7139"/>
<path d="M17.2143 30.4036C19.0013 30.4148 20.7584 30.8641 22.3314 31.7122C23.9044 32.5603 25.2455 33.7813 26.237 35.2681C26.237 35.0893 27.6051 35.152 8.12891 35.152C8.76246 34.2722 9.50461 33.4759 10.3377 32.7821C12.2765 31.2011 14.7129 30.3584 17.2143 30.4036Z" fill="#EA7238"/>
<path d="M17.2051 30.4845C18.9764 30.4938 20.7183 30.9382 22.2775 31.7786C23.8368 32.6191 25.1657 33.8298 26.1473 35.3042C26.1473 35.0449 27.5423 35.1344 8.2002 35.1344C8.88528 34.3065 9.63265 33.5322 10.4358 32.8183C12.3424 31.2656 14.7376 30.4388 17.1961 30.4845" fill="#EA7337"/>
<path d="M17.2054 30.5736C18.9627 30.5837 20.6907 31.0253 22.2374 31.8595C23.7842 32.6937 25.1023 33.895 26.0761 35.3578C26.0761 35.0359 28.0524 35.1342 8.29004 35.1342C8.98289 34.3303 9.72662 33.5716 10.5167 32.8629C12.4109 31.3428 14.777 30.5329 17.2054 30.5736Z" fill="#EA7436"/>
<path d="M17.2052 30.6633C18.9484 30.675 20.6621 31.1139 22.1961 31.9418C23.7302 32.7696 25.0378 33.9611 26.0044 35.4117C26.0044 35.0093 27.9628 35.1344 8.36133 35.1344C8.36133 35.4117 9.04095 34.1687 10.6058 32.9168C12.4753 31.4186 14.8099 30.6214 17.2052 30.6633Z" fill="#EA7535"/>
<path d="M17.2048 30.7615C18.9315 30.7695 20.6298 31.2019 22.1502 32.0205C23.6705 32.8392 24.9663 34.019 25.9235 35.4562C25.9235 34.9912 27.864 35.1344 8.44141 35.1344C8.44141 35.51 9.09418 34.24 10.668 32.9792C12.5183 31.4942 14.8329 30.709 17.2048 30.7615Z" fill="#EB7634"/>
<path d="M25.8432 35.5098C25.8432 34.9643 27.7658 35.1343 8.51314 35.1343C8.51314 35.7692 8.35213 35.313 9.80077 33.8733C10.8963 32.7889 12.2184 31.9607 13.672 31.4476C15.1255 30.9346 16.6746 30.7495 18.2081 30.906C19.7417 31.0624 21.2216 31.5563 22.5416 32.3523C23.8617 33.1483 24.9891 34.2266 25.8432 35.5098Z" fill="#EB7733"/>
<path d="M25.772 35.5635C25.772 34.9465 27.6856 35.1343 8.59393 35.1343C8.59393 35.8497 8.41507 35.3756 9.86371 33.9359C10.951 32.862 12.2624 32.0419 13.7039 31.5342C15.1453 31.0266 16.6812 30.8438 18.2016 30.9994C19.7219 31.1549 21.189 31.6449 22.4978 32.4339C23.8066 33.223 24.9247 34.2916 25.772 35.5635Z" fill="#EB7832"/>
<path d="M25.7003 35.6173C25.7003 34.9198 27.5872 35.1344 8.71006 35.1344C8.71006 35.9303 8.51331 35.4384 9.9709 34.0077C11.0469 32.9425 12.3455 32.1288 13.7733 31.625C15.2011 31.1211 16.7227 30.9395 18.229 31.0934C19.7353 31.2473 21.1887 31.7327 22.4851 32.5148C23.7816 33.297 24.8888 34.3566 25.7272 35.6173" fill="#EB7830"/>
<path d="M25.6105 35.6617C25.6105 34.8927 27.4883 35.1343 8.74534 35.1343C8.74534 36.0285 8.55758 35.5009 9.99728 34.0702C11.0644 33.0166 12.3512 32.2119 13.7656 31.7137C15.18 31.2154 16.687 31.0359 18.1788 31.188C19.6707 31.3401 21.1105 31.8201 22.3952 32.5935C23.68 33.3669 24.7779 34.4145 25.6105 35.6617Z" fill="#EC792F"/>
<path d="M25.5307 35.7152C25.5307 34.8747 27.3907 35.1341 8.82656 35.1341C8.82656 36.073 8.62089 35.5632 10.0606 34.1414C11.1165 33.095 12.391 32.2953 13.7927 31.7999C15.1943 31.3046 16.6882 31.1257 18.1672 31.2762C19.6462 31.4267 21.0735 31.9029 22.3466 32.6704C23.6197 33.4379 24.7071 34.4776 25.5307 35.7152Z" fill="#EC7A2E"/>
<path d="M25.4593 35.7689C25.4593 34.8747 27.2477 35.1341 8.89824 35.1341C8.89824 36.1535 8.66575 35.6438 10.1323 34.2399C11.1791 33.204 12.4422 32.4126 13.8311 31.9226C15.2199 31.4327 16.6999 31.2563 18.165 31.4059C19.6301 31.5555 21.0439 32.0273 22.3051 32.7878C23.5662 33.5484 24.6433 34.5787 25.4593 35.8047" fill="#EC7B2D"/>
<path d="M25.3789 35.823C25.3789 34.8304 27.1674 35.1344 8.97882 35.1344C8.97882 36.2433 8.73737 35.7157 10.195 34.2402C11.2329 33.2117 12.4858 32.4259 13.8636 31.9394C15.2414 31.4529 16.7099 31.2778 18.1635 31.4265C19.6171 31.5753 21.0196 32.0444 22.2703 32.8C23.521 33.5555 24.5888 34.5787 25.3968 35.7961" fill="#EC7C2C"/>
<path d="M25.2983 35.8764C25.2983 34.8212 27.6322 35.1341 9.05918 35.1341C9.05918 36.2787 8.81771 35.7689 10.2574 34.3381C11.2885 33.3289 12.5291 32.5591 13.891 32.0829C15.253 31.6067 16.703 31.4357 18.1383 31.5825C19.5736 31.7293 20.9591 32.1901 22.1964 32.9321C23.4338 33.6741 24.4928 34.6794 25.2983 35.8764Z" fill="#EC7D2B"/>
<path d="M25.2265 35.921V35.1342H9.13046C9.13046 36.3593 8.88904 35.8227 10.3287 34.4009C11.3464 33.3944 12.5742 32.6255 13.924 32.1494C15.2739 31.6733 16.7123 31.5017 18.1362 31.647C19.5601 31.7923 20.9343 32.251 22.1601 32.9899C23.3859 33.7288 24.4331 34.7297 25.2265 35.921Z" fill="#ED7E2A"/>
<path d="M25.1463 35.9747V35.1342H9.21116C9.21116 36.4308 8.96079 35.8854 10.3915 34.4725C11.3988 33.4746 12.6145 32.7121 13.9513 32.2398C15.2882 31.7674 16.713 31.5971 18.1235 31.7407C19.534 31.8843 20.8953 32.3384 22.1095 33.0705C23.3238 33.8025 24.3608 34.7944 25.1463 35.9747Z" fill="#ED7F29"/>
<path d="M25.0655 36.0285V35.1343H9.29144C9.29144 36.5114 9.02316 35.9571 10.4539 34.5353C11.4521 33.548 12.6564 32.7937 13.9804 32.3268C15.3044 31.8599 16.7154 31.6917 18.112 31.8345C19.5087 31.9772 20.8565 32.4273 22.0587 33.1524C23.2609 33.8775 24.2877 34.8598 25.0655 36.0285Z" fill="#ED8028"/>
<path d="M24.9946 36.0822V35.1342H9.36346C9.36346 36.5382 9.12207 36.0284 10.526 34.5976C11.5151 33.6209 12.708 32.8751 14.0192 32.4136C15.3304 31.9521 16.7275 31.7864 18.1103 31.9283C19.4931 32.0701 20.8274 32.5161 22.0175 33.2342C23.2077 33.9524 24.2244 34.925 24.9946 36.0822Z" fill="#ED8127"/>
<path d="M24.9138 36.1266V35.1341H9.44368C9.44368 36.6096 9.18433 36.0283 10.5883 34.6691C11.5662 33.7039 12.7454 32.9667 14.0414 32.5102C15.3375 32.0537 16.7184 31.8891 18.0854 32.0284C19.4524 32.1676 20.7717 32.6073 21.9491 33.3158C23.1264 34.0243 24.1327 34.984 24.8959 36.1266" fill="#EE8226"/>
<path d="M24.8057 36.1805V35.1344H9.51443C9.51443 36.6903 9.2193 36.1449 10.6501 34.732C11.6191 33.7741 12.788 33.0422 14.073 32.5892C15.358 32.1362 16.7274 31.9731 18.0829 32.1115C19.4384 32.25 20.7465 32.6865 21.9135 33.39C23.0804 34.0935 24.0772 35.0465 24.8325 36.1805" fill="#EE8325"/>
<path d="M24.2342 35.5276C24.2342 34.9553 25.8617 35.1342 9.5957 35.1342C9.5957 36.7617 9.30062 36.1982 10.7224 34.8032C11.6276 33.9059 12.7107 33.208 13.9019 32.7545C15.0931 32.3011 16.3661 32.1021 17.6389 32.1703C18.9117 32.2385 20.156 32.5726 21.2919 33.1508C22.4278 33.729 23.4301 34.5386 24.2342 35.5276Z" fill="#EE8424"/>
<path d="M24.1627 35.5905C24.1627 34.9377 26.2194 35.1344 9.67624 35.1344C9.67624 36.8245 9.38114 36.2521 10.7851 34.8661C11.683 33.9736 12.7581 33.2795 13.9411 32.8285C15.1241 32.3776 16.3885 32.1798 17.6527 32.248C18.9169 32.3163 20.1526 32.649 21.2802 33.2248C22.4077 33.8005 23.4019 34.6065 24.1985 35.5905" fill="#EE8523"/>
<path d="M24.0907 35.6438C24.0907 34.9284 26.1206 35.134 10.266 35.134C10.266 35.76 10.114 35.6527 10.8473 34.9284C11.7344 34.0482 12.7961 33.3638 13.9639 32.9192C15.1318 32.4746 16.3799 32.2796 17.6277 32.347C18.8756 32.4144 20.0954 32.7426 21.2086 33.3104C22.3218 33.8782 23.3036 34.6732 24.0907 35.6438Z" fill="#EE8622"/>
<path d="M24.0189 35.7063C24.0189 34.8837 25.5302 35.1341 10.3373 35.1341C10.3373 35.8316 10.1852 35.7242 10.9185 34.9999C11.7965 34.1302 12.8469 33.454 14.002 33.0147C15.157 32.5755 16.3913 32.3829 17.6253 32.4495C18.8593 32.516 20.0657 32.8402 21.1669 33.4011C22.2681 33.9621 23.2396 34.7473 24.0189 35.7063Z" fill="#EF8721"/>
<path d="M23.3843 35.1343H10.4092V35.6886C11.192 34.7491 12.1626 33.9838 13.2588 33.4415C14.3549 32.8992 15.5522 32.5921 16.774 32.5399C17.9958 32.4877 19.2151 32.6915 20.3535 33.1383C21.4918 33.585 22.5242 34.265 23.3843 35.1343Z" fill="#EF8820"/>
<path d="M17.1968 32.6214C21.5964 32.6214 23.3222 35.5546 23.3222 35.1343H10.499V35.7423C11.3195 34.7596 12.3469 33.9705 13.5079 33.431C14.6688 32.8915 15.9345 32.615 17.2147 32.6214" fill="#EF891F"/>
<path d="M17.1968 32.72C21.7752 32.72 23.2507 35.7871 23.2507 35.1343C9.77474 35.1343 11.1161 35.2149 11.1161 35.197C11.9152 34.4021 12.8642 33.7737 13.908 33.3485C14.9518 32.9233 16.0697 32.7097 17.1968 32.72Z" fill="#EF8A1E"/>
<path d="M17.1968 32.8092C18.3122 32.8151 19.4155 33.041 20.4435 33.4737C21.4716 33.9064 22.4042 34.5375 23.1882 35.3309V35.1342H11.1787C11.1787 35.4919 11.6347 34.7497 12.7794 34.0165C14.1009 33.188 15.6376 32.768 17.1968 32.8092Z" fill="#F08B1D"/>
<path d="M23.1165 35.4026C23.1165 35.0181 24.44 35.1343 11.2412 35.1343V35.331C12.0256 34.5559 12.955 33.9429 13.9763 33.527C14.9977 33.1111 16.0909 32.9004 17.1937 32.907C18.2964 32.9137 19.3871 33.1375 20.4033 33.5657C21.4196 33.9938 22.3415 34.6181 23.1165 35.4026Z" fill="#F08C1C"/>
<path d="M23.0176 35.4648C23.0176 34.9819 24.3231 35.134 11.2764 35.134V35.3934C12.8435 33.8471 14.9603 32.9861 17.1618 32.9995C19.3632 33.013 21.4694 33.8995 23.0176 35.4648Z" fill="#F08D1B"/>
<path d="M23.0185 35.5275C23.0185 34.9552 24.3062 35.1341 11.3936 35.1341V35.4648C12.1602 34.7043 13.0694 34.1026 14.0691 33.6941C15.0687 33.2855 16.1391 33.078 17.219 33.0839C18.2989 33.0897 19.367 33.3086 20.3622 33.7279C21.3574 34.1472 22.26 34.7587 23.0185 35.5275Z" fill="#F08E1A"/>
<path d="M22.9194 35.5991C22.9194 34.9284 24.207 35.1341 11.4375 35.1341V35.5275C12.9696 34.0145 15.04 33.1722 17.1933 33.1856C19.3465 33.199 21.4062 34.0671 22.9194 35.5991Z" fill="#F08F19"/>
<path d="M22.8565 35.6615C22.8565 34.9193 24.5108 35.134 11.5088 35.134V35.5991C13.0249 34.1084 15.0694 33.2782 17.1956 33.2899C19.3217 33.3016 21.3569 34.1542 22.8565 35.6615Z" fill="#F19018"/>
<path d="M22.7849 35.7689C22.7849 34.9373 24.475 35.1788 11.5713 35.1788V35.7063C13.0669 34.2282 15.0883 33.4044 17.191 33.4161C19.2938 33.4279 21.3058 34.2742 22.7849 35.7689Z" fill="#F19117"/>
<path d="M22.7231 35.7692C22.7231 34.8749 24.3775 35.1074 11.6348 35.1074V35.6976C13.1149 34.237 15.1144 33.4241 17.1938 33.4375C19.2731 33.451 21.262 34.2896 22.7231 35.7692Z" fill="#F19216"/>
<path d="M22.6514 35.8587C22.6514 34.8392 24.2968 35.1343 11.7061 35.1343V35.796C12.4285 35.0809 13.2849 34.5153 14.2262 34.1313C15.1675 33.7474 16.1752 33.5527 17.1917 33.5585C18.2082 33.5643 19.2137 33.7705 20.1505 34.1652C21.0873 34.5598 21.9372 35.1353 22.6514 35.8587Z" fill="#F19315"/>
<path d="M22.5887 35.9209V35.1341H11.7686V35.8584C13.2121 34.4327 15.1627 33.6384 17.1916 33.6502C19.2205 33.6619 21.1617 34.4786 22.5887 35.9209Z" fill="#F29414"/>
<path d="M22.5256 35.9924V35.0982H11.7949V35.894C12.5015 35.1897 13.3405 34.6323 14.2636 34.254C15.1868 33.8756 16.1757 33.684 17.1733 33.6898C18.1709 33.6956 19.1575 33.8989 20.0762 34.288C20.9948 34.6771 21.8273 35.2441 22.5256 35.9566" fill="#F29513"/>
<path d="M22.4542 36.0551V35.1609H11.9023V36.0551C12.5991 35.3659 13.4248 34.8208 14.3323 34.4509C15.2398 34.081 16.2113 33.8936 17.1912 33.8994C18.1712 33.9052 19.1404 34.1041 20.0435 34.4847C20.9465 34.8653 21.7657 35.4201 22.4542 36.1175" fill="#F29612"/>
<path d="M22.3915 36.1179V35.1344H11.9648V36.0286C12.6527 35.347 13.4681 34.8075 14.3646 34.4412C15.261 34.075 16.2209 33.8892 17.1893 33.8941C18.1576 33.8991 19.1155 34.095 20.0082 34.4705C20.9008 34.8459 21.7107 35.3937 22.3915 36.0823" fill="#F29711"/>
<path d="M22.3198 36.1894V35.1343H12.0273V36.1268C13.4006 34.7704 15.2564 34.0153 17.1866 34.027C19.1167 34.0387 20.9631 34.8165 22.3198 36.1894Z" fill="#F29810"/>
<path d="M21.2292 35.3666C21.2292 35.0268 22.2397 35.1341 12.126 35.1341V36.1892C13.3134 35.0193 14.8701 34.2978 16.5302 34.1478C18.1904 33.9977 19.8512 34.4285 21.2292 35.3666Z" fill="#F3990F"/>
<path d="M17.1872 34.2133C18.6017 34.2167 19.9824 34.6467 21.1486 35.4473C21.1486 35.0002 22.2932 35.1344 13.2168 35.1344C13.2168 35.5636 13.5208 35.1343 14.3972 34.7676C15.2736 34.3751 16.2273 34.1857 17.1872 34.2133Z" fill="#F39A0E"/>
<path d="M21.0959 35.5188C21.0959 34.9733 22.2405 35.1344 13.2714 35.1344C13.2714 35.7514 13.0657 35.4204 14.4607 34.8392C15.5358 34.3909 16.7058 34.2184 17.8646 34.3371C19.0233 34.4558 20.134 34.8619 21.0959 35.5188Z" fill="#F39B0D"/>
<path d="M21.0409 35.5992C21.0409 34.9464 22.1855 35.1342 13.3148 35.1342C13.3148 35.8585 13.0912 35.5098 14.4951 34.9286C15.5555 34.4852 16.71 34.3141 17.8533 34.4312C18.9967 34.5484 20.0925 34.95 21.0409 35.5992Z" fill="#F39C0C"/>
<path d="M20.9878 35.6796C20.9878 34.9016 22.1324 35.1343 13.369 35.1343C13.369 35.957 13.1365 35.5902 14.5315 35.009C15.578 34.5725 16.7172 34.4054 17.845 34.5225C18.9728 34.6397 20.0533 35.0374 20.9878 35.6796Z" fill="#F49C0B"/>
<path d="M20.9342 35.769C20.9342 34.8748 22.0699 35.152 13.4227 35.152C13.4227 36.0463 13.1723 35.6886 14.5673 35.152C15.5989 34.7217 16.7217 34.556 17.8337 34.67C18.9456 34.784 20.0114 35.174 20.9342 35.8048" fill="#F49D0A"/>
<path d="M19.7625 35.1341C13.8249 35.1341 14.6029 35.1967 14.6029 35.1789C15.9507 34.5851 17.4658 34.4899 18.8773 34.9106C19.4496 35.0805 19.7715 35.2414 19.7715 35.1341" fill="#F49E09"/>
<path d="M17.1872 34.7674C19.2707 34.7674 19.7268 35.5634 19.7268 35.1342H14.6387C14.6387 35.3846 14.7817 35.1967 15.354 35.0089C15.9498 34.8381 16.5676 34.7567 17.1872 34.7674Z" fill="#F49F08"/>
<path d="M17.1876 34.8748C19.6109 34.8748 19.6915 35.8227 19.6915 35.1431H14.6748C14.6748 35.5008 14.7732 35.304 15.3902 35.1431C15.9702 34.9712 16.5739 34.8927 17.1786 34.9106" fill="#F4A007"/>
<path d="M17.1869 34.9554C19.7891 34.9554 19.655 35.9837 19.655 35.1342H14.71C14.71 35.626 14.71 35.4115 15.327 35.1969C15.9296 35.0154 16.5579 34.9339 17.1869 34.9554Z" fill="#F5A106"/>
</g>
<path d="M22.123 27.1665H12.8589C11.5205 27.1641 10.2376 26.6309 9.29207 25.6837C8.3465 24.7364 7.81543 23.4526 7.81543 22.1142V12.8412C7.81543 11.5028 8.3465 10.219 9.29207 9.27172C10.2376 8.32447 11.5205 7.79107 12.8589 7.7887H22.123C23.4623 7.79106 24.746 8.32408 25.693 9.27107C26.64 10.2181 27.1731 11.502 27.1754 12.8412V22.1142C27.1731 23.4535 26.64 24.7371 25.693 25.6841C24.746 26.6311 23.4623 27.1641 22.123 27.1665ZM12.841 9.28198C11.9081 9.28435 11.0142 9.65676 10.3554 10.3172C9.69663 10.9777 9.32667 11.8725 9.32667 12.8054V22.0784C9.3255 22.5407 9.41552 22.9987 9.5916 23.4261C9.76768 23.8535 10.0264 24.2419 10.3528 24.5692C10.6793 24.8965 11.0671 25.1561 11.4941 25.3333C11.921 25.5105 12.3787 25.6016 12.841 25.6016H22.123C22.5857 25.6016 23.0438 25.5106 23.4713 25.3335C23.8988 25.1564 24.2872 24.897 24.6144 24.5698C24.9415 24.2427 25.201 23.8542 25.3781 23.4267C25.5551 22.9993 25.6463 22.5411 25.6463 22.0784V12.8054C25.6324 11.8753 25.2568 10.987 24.599 10.3292C23.9413 9.67149 23.0531 9.29583 22.123 9.28198H12.841Z" fill="white"/>
<path d="M17.4999 22.7042C16.4646 22.706 15.4519 22.4005 14.5903 21.8264C13.7286 21.2523 13.0567 20.4353 12.6597 19.479C12.2627 18.5228 12.1583 17.4703 12.3598 16.4547C12.5614 15.4391 13.0598 14.5061 13.7919 13.774C14.5241 13.0419 15.457 12.5436 16.4726 12.342C17.4882 12.1405 18.5408 12.2448 19.497 12.6418C20.4532 13.0388 21.2702 13.7107 21.8443 14.5724C22.4185 15.434 22.724 16.4467 22.7222 17.4821C22.7198 18.8664 22.1689 20.1932 21.19 21.1721C20.2112 22.1509 18.8843 22.7019 17.4999 22.7042ZM17.4999 13.762C12.6085 13.762 12.6175 21.1572 17.4999 21.1572C22.3824 21.1572 22.3914 13.7799 17.4999 13.7799V13.762Z" fill="white"/>
<path d="M23.9742 12.1436C23.9481 12.447 23.8091 12.7295 23.5847 12.9354C23.3604 13.1413 23.067 13.2555 22.7625 13.2555C22.458 13.2555 22.1646 13.1413 21.9402 12.9354C21.7159 12.7295 21.5769 12.447 21.5508 12.1436C21.5769 11.8402 21.7159 11.5577 21.9402 11.3518C22.1646 11.1459 22.458 11.0315 22.7625 11.0315C23.067 11.0315 23.3604 11.1459 23.5847 11.3518C23.8091 11.5577 23.9481 11.8402 23.9742 12.1436Z" fill="white"/>
</svg>
