<svg width="104" height="68" viewBox="0 0 104 68" fill="none" xmlns="http://www.w3.org/2000/svg">
<path d="M97.8184 56.9297C97.7975 58.1128 97.3134 59.2405 96.4702 60.0707C95.6269 60.9008 94.4917 61.3673 93.3084 61.3697H1.39844C1.41682 62.5536 1.90009 63.6828 2.7439 64.5135C3.5877 65.3443 4.72435 65.8098 5.90845 65.8096H98.2084C99.4072 65.8096 100.557 65.3334 101.405 64.4858C102.252 63.6381 102.728 62.4885 102.728 61.2897V56.9297H97.8184Z" fill="#4DA3E2"/>
<path d="M91.2502 1.23926H90.0302V51.4592H8.24023V56.9293H95.8802V5.87921C95.8815 5.27035 95.7627 4.6672 95.5306 4.10431C95.2985 3.54142 94.9577 3.02987 94.5276 2.59888C94.0976 2.16788 93.5867 1.82596 93.0244 1.59265C92.462 1.35935 91.859 1.23926 91.2502 1.23926Z" fill="#4DA3E2"/>
<path d="M95.8788 56.9298V55.7398H9.45881V5.87976C9.45881 4.96649 9.82093 4.0905 10.4658 3.44379C11.1106 2.79707 11.9855 2.43246 12.8988 2.42981H91.2788C92.1921 2.43246 93.067 2.79707 93.7119 3.44379C94.3567 4.0905 94.7188 4.96649 94.7188 5.87976V56.9298H95.9088H97.0988V5.87976C97.1001 5.11463 96.9505 4.35674 96.6586 3.64948C96.3667 2.94221 95.9383 2.29943 95.3977 1.75793C94.8571 1.21644 94.2151 0.786882 93.5083 0.493774C92.8015 0.200667 92.044 0.0498036 91.2788 0.0498047H12.8688C12.1036 0.0498036 11.3461 0.200667 10.6393 0.493774C9.93252 0.786882 9.29045 1.21644 8.74989 1.75793C8.20932 2.29943 7.78085 2.94221 7.48896 3.64948C7.19707 4.35674 7.04752 5.11463 7.04884 5.87976V56.9298C7.05145 57.2446 7.17761 57.5458 7.40022 57.7684C7.62282 57.991 7.92404 58.1172 8.23884 58.1198H95.8788C96.1936 58.1172 96.4947 57.991 96.7174 57.7684C96.94 57.5458 97.0662 57.2446 97.0688 56.9298H95.8788Z" fill="#212121"/>
<path d="M98.2092 65.81V64.6201H5.90924C5.02688 64.6174 4.18142 64.2657 3.5575 63.6418C2.93357 63.0179 2.58186 62.1724 2.57922 61.29V58.1201H101.579V61.34C101.577 62.2224 101.225 63.0678 100.601 63.6918C99.977 64.3157 99.1316 64.6674 98.2492 64.67V67.05C99.7628 67.0474 101.214 66.445 102.284 65.3747C103.354 64.3044 103.957 62.8536 103.959 61.34V56.98C103.956 56.6652 103.831 56.3638 103.609 56.14C103.387 55.9167 103.085 55.7908 102.769 55.79H1.38922C1.07442 55.7927 0.773264 55.9189 0.550659 56.1415C0.328055 56.3641 0.201831 56.6652 0.199219 56.98V61.34C0.199219 62.8544 0.80081 64.3068 1.87164 65.3776C2.94248 66.4485 4.39485 67.05 5.90924 67.05H98.2092V65.81Z" fill="#212121"/>
<path d="M66.7785 61.34V60.15H38.5285V58.09H65.5885V61.34H66.7785H67.9685V56.9C67.9693 56.5863 67.8472 56.2847 67.6285 56.0599C67.401 55.8378 67.0964 55.7124 66.7785 55.71H37.3385C37.0206 55.7124 36.716 55.8378 36.4885 56.0599C36.2697 56.2847 36.1477 56.5863 36.1485 56.9V61.34C36.1471 61.4966 36.177 61.652 36.2364 61.7969C36.2957 61.9419 36.3833 62.0736 36.4941 62.1844C36.6048 62.2952 36.7365 62.3827 36.8815 62.4421C37.0265 62.5014 37.1818 62.5313 37.3385 62.53H66.7785C66.9351 62.5313 67.0905 62.5014 67.2355 62.4421C67.3804 62.3827 67.5121 62.2952 67.6229 62.1844C67.7337 62.0736 67.8213 61.9419 67.8806 61.7969C67.9399 61.652 67.9698 61.4966 67.9685 61.34H66.7785Z" fill="#212121"/>
</svg>
