<svg width="35" height="35" viewBox="0 0 35 35" fill="none" xmlns="http://www.w3.org/2000/svg">
<path d="M28.0006 35H6.99945C3.13359 35 0 31.8664 0 28.0006V6.99945C0 3.13359 3.13359 0 6.99945 0H28.0006C31.8664 0 35 3.13359 35 6.99945V28.0006C35 31.8664 31.8664 35 28.0006 35Z" fill="#000083"/>
<path d="M17.5055 28.8821C17.3065 28.8821 17.1103 28.8324 16.9362 28.7356C15.4524 27.8762 4.46546 20.9901 4.05096 20.7773C3.73594 20.6309 3.52041 20.3269 3.48172 19.9815V10.321C3.47343 9.95899 3.65305 9.62187 3.95425 9.42291L4.03438 9.3787C5.09825 8.71827 8.65463 6.54907 9.21834 6.23406C9.34821 6.15668 9.49467 6.11523 9.64389 6.11523C9.78482 6.118 9.92298 6.15116 10.0473 6.21748C10.0473 6.21748 15.0268 9.4616 15.7867 9.75174C16.32 9.99768 16.9031 10.1193 17.4917 10.111C18.1576 10.1248 18.8153 9.96452 19.4011 9.64397C20.1444 9.25158 24.9028 6.23406 24.9526 6.23406C25.0714 6.16221 25.2096 6.12352 25.3505 6.12629C25.4997 6.12629 25.6489 6.16774 25.7761 6.24511C26.4227 6.60434 30.8357 9.30409 31.0208 9.42291C31.3303 9.61081 31.5182 9.94794 31.5154 10.3099V19.9704C31.4795 20.3186 31.264 20.6198 30.9462 20.7663C30.5317 20.9929 19.578 27.8818 18.0664 28.7246C17.9006 28.8268 17.7044 28.8821 17.5055 28.8821Z" fill="url(#paint0_linear_3044_7195)"/>
<path d="M17.4475 28.8823H17.5055C17.7045 28.8823 17.9007 28.8325 18.0748 28.7358C19.5587 27.8764 30.54 20.9903 30.9545 20.7775C31.2723 20.631 31.4879 20.3298 31.5238 19.9817V10.3212C31.5265 10.1581 31.4879 9.99509 31.416 9.84863L17.4475 17.5168V28.8823Z" fill="url(#paint1_linear_3044_7195)"/>
<path d="M17.4007 28.747H17.3454C17.1492 28.747 16.953 28.6972 16.7844 28.6005C15.3171 27.7522 4.45183 20.9351 4.04286 20.7278C3.72784 20.5842 3.51507 20.283 3.47914 19.9403V10.382C3.47638 10.219 3.51507 10.0615 3.58691 9.91504L17.4034 17.5003V28.747H17.4007Z" fill="url(#paint2_linear_3044_7195)"/>
<defs>
<linearGradient id="paint0_linear_3044_7195" x1="3.55356" y1="17.5771" x2="31.3332" y2="17.3617" gradientUnits="userSpaceOnUse">
<stop stop-color="#FFB900"/>
<stop offset="0.338" stop-color="#F38000"/>
<stop offset="0.567" stop-color="#F83C72"/>
<stop offset="0.78" stop-color="#FC1CBE"/>
<stop offset="0.93" stop-color="#FE08ED"/>
<stop offset="1" stop-color="#FF00FF"/>
</linearGradient>
<linearGradient id="paint1_linear_3044_7195" x1="11.3606" y1="26.6699" x2="39.6832" y2="10.9881" gradientUnits="userSpaceOnUse">
<stop stop-color="#EE0A3F"/>
<stop offset="1" stop-color="#EE0A3F" stop-opacity="0"/>
</linearGradient>
<linearGradient id="paint2_linear_3044_7195" x1="14.3344" y1="22.0374" x2="0.647999" y2="11.0125" gradientUnits="userSpaceOnUse">
<stop stop-color="#ED6600"/>
<stop offset="1" stop-color="#F98200"/>
</linearGradient>
</defs>
</svg>
