<svg width="94" height="73" viewBox="0 0 94 73" fill="none" xmlns="http://www.w3.org/2000/svg">
<g clip-path="url(#clip0_529_341)">
<path d="M92.1367 72.0027V72.1904H92.312C92.3449 72.191 92.3774 72.1827 92.406 72.1664C92.4174 72.1583 92.4265 72.1475 92.4327 72.135C92.4388 72.1225 92.4418 72.1086 92.4412 72.0947C92.4418 72.081 92.4389 72.0673 92.4328 72.0551C92.4266 72.0429 92.4174 72.0324 92.406 72.0248C92.3776 72.0078 92.345 71.9995 92.312 72.0008H92.1367V72.0027ZM92.3139 71.87C92.389 71.8653 92.4634 71.8868 92.5244 71.9309C92.5489 71.9509 92.5684 71.9763 92.5812 72.0052C92.594 72.034 92.5998 72.0655 92.5982 72.097C92.5993 72.1241 92.5946 72.1512 92.5844 72.1764C92.5742 72.2015 92.5587 72.2242 92.539 72.2429C92.4919 72.2836 92.4329 72.3082 92.3707 72.3128L92.6057 72.5802H92.4248L92.2086 72.3147H92.1386V72.5802H91.9873V71.8704H92.3139V71.87ZM92.2669 72.8251C92.3463 72.826 92.4249 72.81 92.4976 72.7781C92.6392 72.7174 92.7521 72.6048 92.8129 72.4634C92.8743 72.3146 92.8743 72.1477 92.8129 71.999C92.7824 71.9291 92.7393 71.8655 92.6856 71.8113C92.6316 71.7574 92.5678 71.7143 92.4976 71.6842C92.4244 71.6542 92.346 71.6392 92.2669 71.6401C92.1864 71.6392 92.1065 71.6542 92.0319 71.6842C91.9602 71.7138 91.8949 71.7569 91.8397 71.8113C91.7565 71.8964 91.7002 72.0041 91.6779 72.1208C91.6556 72.2376 91.6682 72.3584 91.7142 72.4681C91.7429 72.5384 91.7856 72.6023 91.8397 72.6557C91.8949 72.7101 91.9602 72.7533 92.0319 72.7828C92.1061 72.8145 92.1861 72.8305 92.2669 72.8297M92.2669 71.4693C92.4734 71.4692 92.6717 71.5501 92.819 71.6945C92.9278 71.8012 93.0019 71.9381 93.0316 72.0873C93.0612 72.2366 93.0452 72.3914 92.9854 72.5314C92.9458 72.6223 92.8894 72.7049 92.819 72.7749C92.747 72.8439 92.6631 72.8996 92.5714 72.939C92.4751 72.9798 92.3715 73.0006 92.2669 73C92.161 73.0008 92.0561 72.98 91.9586 72.939C91.8647 72.9019 91.7796 72.8458 91.7084 72.7743C91.6373 72.7027 91.5816 72.6174 91.545 72.5234C91.4853 72.3834 91.4692 72.2287 91.4989 72.0794C91.5285 71.9301 91.6026 71.7932 91.7114 71.6865C91.7825 71.6154 91.8674 71.5596 91.9609 71.5224C92.0585 71.4814 92.1634 71.4606 92.2692 71.4614M20.3095 68.7284C20.3095 67.375 21.1976 66.2632 22.6493 66.2632C24.0366 66.2632 24.9727 67.3272 24.9727 68.7284C24.9727 70.1296 24.0366 71.1935 22.6493 71.1935C21.1976 71.1935 20.3095 70.0817 20.3095 68.7284ZM26.554 68.7284V64.877H24.8768V65.8152C24.3448 65.1219 23.538 64.6894 22.4406 64.6894C20.2789 64.6894 18.5824 66.3819 18.5824 68.7326C18.5824 71.0833 20.278 72.7758 22.4406 72.7758C23.5375 72.7758 24.3448 72.3405 24.8768 71.65V72.5849H26.5522V68.7284H26.554ZM83.2252 68.7284C83.2252 67.375 84.1134 66.2632 85.5655 66.2632C86.9542 66.2632 87.8889 67.3272 87.8889 68.7284C87.8889 70.1296 86.9542 71.1935 85.5655 71.1935C84.1139 71.1935 83.2252 70.0817 83.2252 68.7284ZM89.4717 68.7284V61.7856H87.793V65.8152C87.2611 65.1219 86.4542 64.6894 85.3568 64.6894C83.1951 64.6894 81.4986 66.3819 81.4986 68.7326C81.4986 71.0833 83.1942 72.7758 85.3568 72.7758C86.4542 72.7758 87.2611 72.3405 87.793 71.65V72.5849H89.4717V68.7284ZM47.3706 66.184C48.4514 66.184 49.1455 66.8604 49.3227 68.0515H45.3207C45.4997 66.9397 46.176 66.184 47.371 66.184M47.4044 64.6828C45.144 64.6828 43.5626 66.3247 43.5626 68.726C43.5626 71.1743 45.2074 72.7692 47.5167 72.7692C48.6784 72.7692 49.7424 72.4798 50.6785 71.6903L49.8565 70.4495C49.2099 70.9655 48.3866 71.255 47.6126 71.255C46.5317 71.255 45.5477 70.7554 45.3056 69.3692H51.0328C51.0493 69.1609 51.0662 68.9507 51.0662 68.7256C51.0493 66.3252 49.5624 64.6824 47.4035 64.6824M67.6532 68.7237C67.6532 67.3703 68.5414 66.2585 69.9931 66.2585C71.3803 66.2585 72.3165 67.3225 72.3165 68.7237C72.3165 70.1249 71.3803 71.1888 69.9931 71.1888C68.5414 71.1888 67.6528 70.077 67.6528 68.7237M73.8973 68.7237V64.877H72.221V65.8152C71.6872 65.1219 70.8822 64.6894 69.7849 64.6894C67.6231 64.6894 65.9267 66.3819 65.9267 68.7326C65.9267 71.0833 67.6222 72.7758 69.7849 72.7758C70.8822 72.7758 71.6872 72.3405 72.221 71.65V72.5849H73.8978V68.7237H73.8973ZM58.1816 68.7237C58.1816 71.0594 59.8104 72.7669 62.2964 72.7669C63.4581 72.7669 64.2321 72.5089 65.069 71.8489L64.2635 70.4955C63.6338 70.9472 62.9726 71.1888 62.2428 71.1888C60.9039 71.1724 59.9194 70.2061 59.9194 68.7237C59.9194 67.2413 60.9063 66.2754 62.2428 66.2585C62.9707 66.2585 63.6319 66.5001 64.2635 66.9519L65.069 65.5985C64.2306 64.9385 63.4566 64.6805 62.2964 64.6805C59.8104 64.6805 58.1816 66.3876 58.1816 68.7237ZM79.8036 64.6805C78.8359 64.6805 78.2058 65.1322 77.7701 65.8087V64.877H76.1079V72.576H77.787V68.2602C77.787 66.9861 78.3355 66.2782 79.4318 66.2782C79.7909 66.273 80.1474 66.3388 80.4807 66.472L80.9977 64.8939C80.6264 64.748 80.1424 64.6838 79.8026 64.6838M34.8462 65.4892C34.0393 64.9582 32.9274 64.6838 31.7008 64.6838C29.7468 64.6838 28.4888 65.6187 28.4888 67.1484C28.4888 68.4038 29.4254 69.1782 31.1501 69.4198L31.9424 69.5324C32.8621 69.6614 33.2963 69.903 33.2963 70.3379C33.2963 70.9332 32.6854 71.2728 31.5382 71.2728C30.3765 71.2728 29.5382 70.9022 28.9728 70.4673L28.1847 71.7729C29.1044 72.4493 30.2661 72.772 31.5241 72.772C33.7517 72.772 35.0426 71.725 35.0426 70.2591C35.0426 68.9057 34.0266 68.1978 32.3479 67.9562L31.5575 67.8418C30.8314 67.7479 30.2497 67.6021 30.2497 67.086C30.2497 66.5231 30.7981 66.1844 31.7182 66.1844C32.7051 66.1844 33.6558 66.555 34.1229 66.8445L34.849 65.4911L34.8462 65.4892ZM56.4874 64.6852C55.5198 64.6852 54.8896 65.1369 54.4559 65.811V64.8728H52.7937V72.5717H54.4709V68.256C54.4709 66.9819 55.0193 66.274 56.1157 66.274C56.4747 66.2688 56.8312 66.3346 57.1646 66.4678L57.6815 64.8897C57.3103 64.7438 56.8262 64.6795 56.4865 64.6795M42.1749 64.877H39.4323V62.5414H37.7368V64.877H36.1723V66.4073H37.7368V69.9194C37.7368 71.7058 38.4313 72.7697 40.4154 72.7697C41.1434 72.7697 41.9817 72.5445 42.5137 72.1744L42.0292 70.7408C41.5287 71.0303 40.9803 71.1762 40.5442 71.1762C39.7058 71.1762 39.4323 70.6601 39.4323 69.8875V66.4087H42.1749V64.877ZM17.0993 72.5778V67.7461C17.0993 65.9264 15.9376 64.7021 14.0649 64.6856C13.0804 64.6692 12.0648 64.9751 11.3538 66.0554C10.8218 65.2017 9.98344 64.6856 8.80483 64.6856C7.98102 64.6856 7.17601 64.9272 6.54582 65.8288V64.877H4.86719V72.576H6.55898V68.3071C6.55898 66.9706 7.30148 66.2604 8.44814 66.2604C9.5619 66.2604 10.1254 66.9852 10.1254 68.2902V72.575H11.8209V68.3062C11.8209 66.9697 12.5949 66.2595 13.7082 66.2595C14.8534 66.2595 15.4 66.9842 15.4 68.2893V72.5741L17.0993 72.5778Z" fill="#231F20"/>
<path d="M93.0925 46.9675V45.8417H92.7987L92.459 46.6143L92.1211 45.8417H91.8264V46.9675H92.0351V46.1194L92.3528 46.8512H92.5689L92.8866 46.1175V46.9675H93.0925ZM91.2291 46.9675V46.0345H91.6051V45.8445H90.6445V46.0345H91.0205V46.9675H91.2291Z" fill="#F79410"/>
<path d="M59.7102 51.7961H34.293V6.19922H59.7107L59.7102 51.7961Z" fill="#FF5F00"/>
<path d="M35.9035 28.9985C35.9035 19.7492 40.242 11.5098 46.9979 6.20005C41.884 2.17489 35.559 -0.00969586 29.0466 -9.05303e-05C13.0042 -9.05303e-05 0 12.9828 0 28.9985C0 45.0141 13.0042 57.997 29.0466 57.997C35.5592 58.0069 41.8844 55.8223 46.9984 51.7969C40.243 46.4881 35.9035 38.2483 35.9035 28.9985Z" fill="#EB001B"/>
<path d="M94.0007 28.9986C94.0007 45.0143 80.9965 57.9972 64.9541 57.9972C58.4409 58.0066 52.115 55.822 47 51.797C53.7578 46.4872 58.0963 38.2484 58.0963 28.9986C58.0963 19.7488 53.7578 11.51 47 6.20017C52.1149 2.17523 58.4406 -0.009296 64.9536 2.9735e-05C80.996 2.9735e-05 94.0002 12.9829 94.0002 28.9986" fill="#F79E1B"/>
</g>
<defs>
<clipPath id="clip0_529_341">
<rect width="94" height="73" fill="white"/>
</clipPath>
</defs>
</svg>
