<svg width="99" height="79" viewBox="0 0 99 79" fill="none" xmlns="http://www.w3.org/2000/svg">
<path d="M36.0491 19.8193H34.3492V71.4594C34.3465 72.1826 34.058 72.8754 33.5466 73.3868C33.0352 73.8982 32.3424 74.1867 31.6191 74.1893H1.36914V75.1393C1.37178 75.8626 1.66026 76.5554 2.17166 77.0668C2.68307 77.5782 3.37592 77.8668 4.09915 77.8694H36.0491C36.7724 77.8668 37.4652 77.5782 37.9766 77.0668C38.488 76.5554 38.7765 75.8626 38.7791 75.1393V22.5593C38.7791 21.8344 38.4918 21.139 37.9801 20.6254C37.4684 20.1119 36.7741 19.822 36.0491 19.8193Z" fill="#4DA3E2"/>
<path d="M92.9003 2.39941H90.7403V68.9194C90.7351 69.8372 90.3675 70.7157 89.7176 71.3637C89.0677 72.0117 88.1881 72.3768 87.2703 72.3794H46.0703V73.5794C46.073 74.498 46.4397 75.378 47.0902 76.0266C47.7407 76.6752 48.6217 77.0394 49.5403 77.0394H92.9003C93.8172 77.0368 94.6957 76.6714 95.344 76.0231C95.9923 75.3748 96.3577 74.4962 96.3603 73.5794V5.85944C96.3577 4.9426 95.9923 4.06408 95.344 3.41577C94.6957 2.76747 93.8172 2.40205 92.9003 2.39941Z" fill="#4DA3E2"/>
<path d="M36.0491 77.8701V77.04H4.09909C3.59599 77.0374 3.11424 76.8364 2.75848 76.4807C2.40273 76.1249 2.20169 75.6431 2.19907 75.14V22.56C2.19812 22.3091 2.24715 22.0605 2.34329 21.8287C2.43944 21.597 2.58078 21.3866 2.75906 21.21C2.93379 21.032 3.14237 20.8908 3.3725 20.7946C3.60263 20.6984 3.84968 20.6493 4.09909 20.65H36.0491C36.5555 20.6503 37.0411 20.8518 37.3991 21.21C37.7555 21.5692 37.9566 22.054 37.9591 22.56V75.14C37.9564 75.6448 37.754 76.1281 37.3961 76.4841C37.0382 76.8402 36.5539 77.04 36.0491 77.04V78.7C36.9924 78.6974 37.8964 78.3215 38.5634 77.6544C39.2305 76.9874 39.6064 76.0834 39.6091 75.14V22.56C39.6091 21.6158 39.234 20.7104 38.5664 20.0427C37.8987 19.3751 36.9932 19 36.0491 19H4.09909C3.15573 19.0026 2.25174 19.3786 1.58469 20.0457C0.917628 20.7127 0.541701 21.6166 0.539062 22.56V75.14C0.544314 76.0826 0.921091 76.9851 1.58759 77.6516C2.25408 78.318 3.15654 78.6948 4.09909 78.7H36.0491V77.8701Z" fill="#212121"/>
<path d="M15.909 24.49H24.239C24.3549 24.5028 24.4723 24.4909 24.5834 24.4553C24.6945 24.4197 24.7968 24.361 24.8837 24.2832C24.9706 24.2053 25.0401 24.1101 25.0877 24.0035C25.1353 23.897 25.1599 23.7816 25.1599 23.665C25.1599 23.5483 25.1353 23.4329 25.0877 23.3264C25.0401 23.2199 24.9706 23.1246 24.8837 23.0467C24.7968 22.9689 24.6945 22.9103 24.5834 22.8746C24.4723 22.839 24.3549 22.8272 24.239 22.84H15.909C15.7058 22.8624 15.5181 22.9589 15.3817 23.1111C15.2453 23.2634 15.1699 23.4606 15.1699 23.665C15.1699 23.8693 15.2453 24.0665 15.3817 24.2187C15.5181 24.371 15.7058 24.4676 15.909 24.49Z" fill="#212121"/>
<path d="M13.8191 75.6198H26.3291C26.5322 75.5974 26.72 75.5007 26.8564 75.3485C26.9927 75.1963 27.0681 74.9991 27.0681 74.7947C27.0681 74.5904 26.9927 74.3931 26.8564 74.2409C26.72 74.0887 26.5322 73.9921 26.3291 73.9697H13.8191C13.6159 73.9921 13.4282 74.0887 13.2918 74.2409C13.1555 74.3931 13.0801 74.5904 13.0801 74.7947C13.0801 74.9991 13.1555 75.1963 13.2918 75.3485C13.4282 75.5007 13.6159 75.5974 13.8191 75.6198Z" fill="#212121"/>
<path d="M90.0688 0.790039H52.3588C50.1566 0.790037 48.0444 1.66419 46.4863 3.22046C44.9282 4.77672 44.0515 6.88781 44.0488 9.09003V70.39C44.0515 72.5932 44.9278 74.7053 46.4857 76.2632C48.0435 77.821 50.1557 78.6974 52.3588 78.7H90.0688C92.272 78.6974 94.3841 77.821 95.942 76.2632C97.4998 74.7053 98.3762 72.5932 98.3788 70.39V9.09003C98.3762 6.88781 97.4995 4.77672 95.9413 3.22046C94.3832 1.66419 92.271 0.790037 90.0688 0.790039ZM96.3588 70.39C96.3588 72.0582 95.6961 73.6581 94.5165 74.8377C93.3369 76.0173 91.737 76.6801 90.0688 76.6801H52.3588C51.5328 76.6801 50.7149 76.5173 49.9518 76.2012C49.1886 75.8851 48.4952 75.4218 47.9111 74.8377C47.3271 74.2536 46.8637 73.5603 46.5476 72.7971C46.2315 72.034 46.0688 71.216 46.0688 70.39V9.09003C46.0715 7.42355 46.7354 5.82625 47.9147 4.6488C49.094 3.47136 50.6923 2.81 52.3588 2.81H90.0688C91.7353 2.81 93.3337 3.47136 94.513 4.6488C95.6923 5.82625 96.3562 7.42355 96.3588 9.09003V70.39Z" fill="#212121"/>
<path d="M71.22 4.65922C70.9798 4.65724 70.7445 4.7268 70.544 4.85899C70.3435 4.99118 70.1868 5.18003 70.094 5.40153C70.0012 5.62303 69.9764 5.86712 70.0228 6.10276C70.0691 6.33841 70.1846 6.55495 70.3544 6.72477C70.5242 6.89459 70.7407 7.01001 70.9764 7.05638C71.212 7.10275 71.4561 7.07797 71.6776 6.98515C71.8991 6.89233 72.088 6.73571 72.2202 6.5352C72.3524 6.33469 72.4219 6.09939 72.42 5.85923C72.4173 5.54178 72.2901 5.23807 72.0656 5.01359C71.8411 4.78911 71.5374 4.66183 71.22 4.65922Z" fill="#212121"/>
</svg>
