<svg width="35" height="35" viewBox="0 0 35 35" fill="none" xmlns="http://www.w3.org/2000/svg">
<path d="M28.0006 35H6.99945C3.13359 35 0 31.8664 0 28.0006V6.99945C0 3.13359 3.13359 0 6.99945 0H28.0006C31.8664 0 35 3.13359 35 6.99945V28.0006C35 31.8664 31.8664 35 28.0006 35Z" fill="#EA501F"/>
<path d="M6.47988 11.4268H12.0396C12.2082 9.54498 12.7332 7.85384 13.4876 6.5468C14.4852 4.81973 15.9027 3.75586 17.5027 3.75586C19.1054 3.75586 20.5147 4.82526 21.5178 6.5468C22.2722 7.84555 22.7944 9.54498 22.9657 11.4268H28.5172C29.1749 11.4268 29.7662 11.9656 29.7137 12.6233L28.6001 28.1779C28.4592 30.1261 27.235 31.2424 25.4555 31.2424H9.54991C7.57138 31.2424 6.52409 29.8608 6.40527 28.1779L5.28337 12.6288C5.23916 11.9739 5.82221 11.4268 6.47988 11.4268ZM13.4268 11.4268H21.562C21.399 9.79644 20.9485 8.34847 20.3074 7.24039C19.5696 5.94716 18.5638 5.14304 17.5027 5.14304C16.4333 5.14304 15.4357 5.94716 14.6814 7.24591C14.0403 8.34847 13.5954 9.80197 13.4268 11.4268Z" fill="white"/>
<path d="M13.4626 25.7883C13.2029 25.6114 13.1366 25.2632 13.3162 25.0062C13.493 24.7465 13.8412 24.6802 14.0982 24.8598C14.2612 24.9703 14.4298 25.0808 14.6149 25.1914C15.9137 25.9817 17.1102 26.3713 18.1078 26.3713C19.0086 26.3713 19.7381 26.0314 20.2051 25.3461C20.2355 25.2936 20.2631 25.266 20.2714 25.2439C20.4041 25.0311 20.5008 24.8018 20.5671 24.5807C20.6997 24.122 20.6776 23.6495 20.4925 23.2211C20.2935 22.7707 19.9094 22.3341 19.3126 21.9721C18.9146 21.729 18.42 21.5134 17.8204 21.3532C16.3006 20.9248 15.1787 20.3197 14.5707 19.5073C13.9075 18.6147 13.855 17.537 14.5624 16.23C15.035 15.3651 16.0021 14.8262 17.2263 14.7323C18.2818 14.6521 19.553 14.9008 20.8434 15.5585C21.1253 15.6994 21.2358 16.0393 21.0866 16.3184C20.9374 16.5975 20.6058 16.7108 20.3267 16.5616C19.2269 16.0006 18.1796 15.7851 17.3064 15.8542C16.4719 15.9205 15.8363 16.2466 15.5572 16.7633C15.0847 17.6282 15.093 18.3052 15.4771 18.822C15.9192 19.4188 16.8422 19.8858 18.1271 20.2478C18.8207 20.4468 19.412 20.6983 19.8984 20.9939C20.7025 21.4803 21.2413 22.0937 21.5287 22.7597C21.8244 23.445 21.8603 24.169 21.6614 24.8791C21.5729 25.1969 21.432 25.5147 21.2413 25.8242C21.1971 25.8905 21.1667 25.943 21.1446 25.9789C20.4593 26.9903 19.401 27.4932 18.1188 27.4987C16.9168 27.4987 15.513 27.0566 14.0374 26.1558C13.855 26.0452 13.6644 25.9264 13.4626 25.7883Z" fill="#EA501F"/>
</svg>
