<svg width="36" height="35" viewBox="0 0 36 35" fill="none" xmlns="http://www.w3.org/2000/svg">
<path d="M27.3995 5.23551e-06H7.68175C6.67813 -0.00116996 5.68414 0.19551 4.75658 0.578763C3.82902 0.962016 2.98614 1.52436 2.27606 2.2336C1.56598 2.94285 1.00267 3.78505 0.618329 4.71215C0.233991 5.63926 0.0361321 6.63311 0.0361328 7.63673V27.3634C0.0385026 29.3896 0.845051 31.332 2.27863 32.7639C3.7122 34.1958 5.65555 34.9999 7.68175 34.9999H27.3995C29.4248 34.9999 31.3672 34.1954 32.7994 32.7632C34.2315 31.3311 35.0361 29.3888 35.0361 27.3634V7.63673C35.0361 5.61135 34.2315 3.66882 32.7994 2.23666C31.3672 0.804504 29.4248 5.23551e-06 27.3995 5.23551e-06Z" fill="#262C38"/>
<path d="M21.7297 11.0437C21.3607 10.5559 21.0848 10.0041 20.916 9.41612C21.5777 9.41612 20.8355 9.3357 21.7297 11.0437Z" fill="#FF0B53"/>
<path d="M25.7449 13.8518C25.7449 17.375 25.8522 16.9368 25.4677 16.9368C24.618 16.9382 23.7806 16.7341 23.0269 16.3417C22.2733 15.9493 21.6258 15.3802 21.1396 14.6833C21.4526 14.6029 22.5704 16.311 25.2799 16.1858C25.3067 13.2974 25.1279 13.7802 25.7449 13.8518Z" fill="#FF0B53"/>
<path d="M10.4355 24.9224C11.281 26.0734 12.5292 26.8635 13.9313 27.1353C15.3334 27.4071 16.7864 27.1405 18.0007 26.3888C21.3719 24.2874 20.6834 21.4081 20.6834 13.9413C21.2646 14.764 21.4166 14.6118 21.1484 14.6833C21.1484 22.168 21.8458 25.0297 18.4657 27.1311C17.8015 27.5443 17.059 27.8155 16.2848 27.9277C15.5106 28.04 14.7216 27.9909 13.9674 27.7834C13.2131 27.576 12.51 27.2148 11.9022 26.7224C11.2944 26.23 10.795 25.6172 10.4355 24.9224Z" fill="#FF0B53"/>
<path d="M15.854 16.6508C15.854 19.9147 15.9792 19.4317 15.541 19.4317C15.0644 19.4291 14.5945 19.5446 14.1733 19.7677C13.7521 19.9908 13.3926 20.3146 13.127 20.7104C12.8614 21.1062 12.6979 21.5617 12.651 22.036C12.6041 22.5103 12.6753 22.9888 12.8583 23.4289C12.5015 23.0073 12.2734 22.492 12.2014 21.9443C12.1293 21.3967 12.2163 20.8399 12.4519 20.3404C12.6876 19.8408 13.0619 19.4194 13.5304 19.1267C13.9988 18.834 14.5416 18.6822 15.0939 18.6894C15.5142 18.6894 15.4069 19.1099 15.4069 16.6418L15.854 16.6508Z" fill="#FF0B53"/>
<path d="M20.8799 9.41633H18.4655V22.3557C18.4548 23.0263 18.2147 23.6729 17.785 24.1879C17.3554 24.7028 16.7623 25.0551 16.1045 25.1858C15.4467 25.3165 14.764 25.2179 14.1702 24.9063C13.5763 24.5948 13.1071 24.0891 12.8408 23.4735C13.2281 23.9254 13.7437 24.2488 14.3192 24.4007C14.8946 24.5526 15.5026 24.5259 16.0625 24.3241C16.6224 24.1223 17.1077 23.7548 17.4538 23.2707C17.7999 22.7866 17.9906 22.2085 18.0005 21.6135V8.70986H20.6832C20.8352 8.66514 20.6474 8.61153 20.8799 9.41633Z" fill="#00F0E9"/>
<path d="M25.3064 13.1093V13.78C24.544 13.6191 23.8273 13.29 23.2084 12.8166C22.5896 12.3431 22.0843 11.7375 21.7295 11.0438C22.1554 11.6118 22.6919 12.0876 23.3066 12.4426C23.9214 12.7976 24.6016 13.0243 25.3064 13.1093Z" fill="#00F0E9"/>
<path d="M15.3902 15.9084V16.6417C14.4233 16.655 13.4759 16.9154 12.638 17.3982C11.8001 17.8809 11.0996 18.5698 10.6031 19.3997C10.1066 20.2295 9.83063 21.1728 9.80143 22.1393C9.77223 23.1059 9.99077 24.0639 10.4362 24.9222C9.7999 24.0503 9.42532 23.0149 9.35634 21.9376C9.28735 20.8604 9.52684 19.7857 10.0468 18.8397C10.5667 17.8937 11.3455 17.1157 12.2919 16.5965C13.2383 16.0773 14.313 15.8386 15.3902 15.9084Z" fill="#00F0E9"/>
<path d="M25.3068 13.7801C25.3068 16.5254 25.4141 16.1947 25.0296 16.1947C24.1797 16.1975 23.3417 15.9938 22.5878 15.6013C21.8339 15.2088 21.1866 14.6392 20.7015 13.9412C20.7015 21.4169 21.399 24.2873 18.0189 26.3888C17.3121 26.8816 16.497 27.1969 15.6425 27.3081C14.7881 27.4193 13.9194 27.3229 13.11 27.0273C12.3006 26.7318 11.5744 26.2456 10.9926 25.61C10.4108 24.9744 9.99066 24.2083 9.7677 23.376C9.54473 22.5437 9.52551 21.6698 9.71164 20.8285C9.89777 19.9872 10.2838 19.203 10.837 18.5425C11.3903 17.8819 12.0945 17.3643 12.8901 17.0335C13.6857 16.7026 14.5492 16.5683 15.4077 16.6418C15.4077 19.1099 15.5151 18.6894 15.0948 18.6894C14.5425 18.6822 13.9997 18.834 13.5313 19.1267C13.0628 19.4194 12.6885 19.8407 12.4528 20.3403C12.2172 20.8399 12.1302 21.3966 12.2023 21.9443C12.2743 22.4919 12.5024 23.0072 12.8592 23.4288C13.1255 24.0444 13.5946 24.5501 14.1885 24.8616C14.7824 25.1732 15.4651 25.2718 16.1229 25.1411C16.7807 25.0104 17.3738 24.6584 17.8034 24.1434C18.2331 23.6284 18.4732 22.9816 18.4839 22.311V9.41638H20.8983C21.1906 10.4641 21.7509 11.4175 22.524 12.1827C23.2971 12.9479 24.2562 13.4985 25.3068 13.7801Z" fill="white"/>
</svg>
