<svg width="365" height="95" viewBox="0 0 365 95" fill="none" xmlns="http://www.w3.org/2000/svg">
<g clip-path="url(#clip0_539_261)">
<path fill-rule="evenodd" clip-rule="evenodd" d="M314.905 44.8458H306.007L310.337 32.5075L314.905 44.8458ZM68.2016 30.9413L59.1786 39.9739L58.7307 40.4162L53.7265 45.4317L49.1702 49.9987L48.7223 50.4471L44.4945 54.6734L44.0526 55.1158C40.8594 58.306 36.6124 60.2192 32.1095 60.4958C30.9665 60.5747 29.8186 60.5427 28.6818 60.4002C26.194 60.1052 23.7923 59.3058 21.6234 58.0509C20.6455 57.5341 19.7383 56.8932 18.9242 56.144L1.60669 38.8082C1.31992 38.4919 1.06584 38.1475 0.848302 37.78C0.280342 36.8211 -0.0187853 35.7266 -0.0175745 34.6117C-0.0175745 34.4324 -0.0175745 34.2531 -0.0175745 34.0737C-0.0175745 33.8944 0.0481128 33.5477 0.0958853 33.2966L0.203373 32.8842C0.464071 32.1112 0.869393 31.3951 1.39769 30.774C1.53503 30.6066 1.68432 30.4452 1.83958 30.2778L2.13219 29.9909L19.6289 12.4698L30.2344 1.8591C31.3625 0.723441 32.8797 0.0595024 34.4786 0.00178481C36.0774 -0.0559328 37.6385 0.496892 38.8454 1.54826L68.2016 30.9413ZM270.255 23.5408L278.699 23.5049H288.952C291.671 23.5128 294.276 24.5973 296.198 26.5216C298.12 28.4459 299.204 31.0535 299.212 33.7748V35.0362C299.212 40.6852 294.59 44.9893 288.952 45.1627L284.277 45.3061C288.033 43.5725 289.609 39.2027 289.144 35.2633C288.761 32.101 287.137 29.0583 284.426 29.0045L282.718 28.9208V57.0586C282.701 57.5082 282.835 57.9505 283.1 58.3139C283.611 59.1196 284.18 59.8868 284.802 60.6094L285.298 61.2072H270.751C270.972 60.9382 271.181 60.6692 271.384 60.3882C271.838 59.787 272.217 59.1326 272.513 58.4395C272.7 58.0369 272.795 57.5981 272.793 57.1542V26.9541C272.734 25.376 271.169 24.4793 270.255 23.5408ZM340.123 43.6981L326.896 24.7363L325.552 23.4989H338.57L347.39 37.8458L348.101 37.248L353.433 29.3094C354.097 28.4368 354.391 27.3386 354.254 26.2509C354.116 25.1632 353.558 24.1729 352.699 23.493H365L350.782 43.6801V58.3259L353.29 61.3148H338.003L340.153 58.3797C340.153 53.4778 339.985 48.5401 340.099 43.6742L340.123 43.6981ZM304.24 23.481C305.291 24.9336 305.607 25.4417 305.727 26.727C305.822 27.4889 305.73 28.2626 305.458 28.9806L295.635 57.4949C294.991 58.9289 294.036 60.2011 292.84 61.2192H303.559C302.786 60.5662 302.261 59.6671 302.072 58.6726C301.901 57.9678 301.914 57.2311 302.108 56.5325L304.287 49.7596H316.762L318.709 54.9783C318.906 55.5068 319.031 56.0599 319.079 56.6222C319.205 57.5118 319.085 58.4188 318.732 59.245C318.38 60.0712 317.808 60.785 317.079 61.3088H333.883C332.234 59.8383 330.724 58.3199 329.87 56.4309L317.598 23.481H304.24Z" fill="#005AAA"/>
<path fill-rule="evenodd" clip-rule="evenodd" d="M165.95 29.7159L179.738 21.7953L182.455 26.7988L169.198 31.6827L165.95 29.7159ZM169.473 55.7076V39.7408C169.521 38.793 169.369 37.8457 169.025 36.9611C168.669 36.2461 168.181 35.6051 167.586 35.0721V34.8509H174.465C175.373 34.8587 176.28 34.8128 177.182 34.7134C177.873 34.6378 178.538 34.4091 179.129 34.0439H179.35V55.9288C179.307 56.9087 179.438 57.8884 179.738 58.8221C180.049 59.6493 180.61 60.3581 181.345 60.8486V61.0698H167.473V60.8486C168.222 60.2752 168.799 59.5056 169.139 58.6248C169.389 57.6735 169.502 56.6911 169.473 55.7076ZM191.389 23.3137H203.129L212.988 51.6009L221.348 28.1737C221.5 27.4926 221.382 26.779 221.02 26.183C220.56 25.2326 220.064 24.306 219.604 23.3555H228.377C227.851 25.2684 227.087 27.3667 226.424 29.2975L215.078 62.2414C211.991 61.6436 208.509 60.4003 205.876 57.8716C203.869 55.9707 203.159 53.8067 202.167 51.2243L192.697 26.1173C192.321 25.1555 191.884 24.2191 191.389 23.3137ZM141.132 52.2823L132.832 29.3573L132.234 27.7433C131.918 26.9661 131.637 26.3564 131.428 25.9081C130.999 25.1044 130.458 24.3657 129.822 23.7142V23.6006H142.72V23.8278L142.613 24.1864C142.815 25.4557 143.103 26.7098 143.473 27.9405L151.576 51.5291L158.33 30.8517L158.671 29.8594L159.017 28.6639C159.071 28.4247 159.1 28.2454 159.118 28.1378C159.141 27.9694 159.151 27.7996 159.148 27.6297C159.148 26.0276 158.294 24.7304 156.592 23.7202V23.6066H166.744V23.7501L153.672 62.2594L149.259 60.729C148.501 60.4541 147.814 60.1731 147.205 59.8981C146.639 59.6408 146.092 59.3431 145.569 59.0074C144.626 58.372 143.815 57.56 143.18 56.6163C142.315 55.2653 141.627 53.8088 141.132 52.2823ZM238.271 36.5725V56.7836C238.271 57.6026 238.457 57.7521 238.964 58.4096L241.275 61.4284H230.222C230.847 60.48 231.47 59.5295 232.091 58.577C232.547 58.0267 232.79 57.331 232.778 56.6163V28.3769L229.672 23.3137H241.126L259.674 47.2251V28.1737C259.693 27.4527 259.459 26.7479 259.011 26.183C258.414 25.2326 257.739 24.306 257.118 23.3555H268.159L265.854 26.3743C265.353 27.0319 265.161 27.1813 265.161 28.0003V62.3969C260.981 61.8409 257.088 60.8187 253.618 56.3891L238.271 36.5725ZM18.7567 56.0125L18.9239 56.1739C19.7426 56.9228 20.6537 57.5636 21.635 58.0808C23.804 59.3358 26.2056 60.1351 28.6934 60.4301C29.8302 60.5726 30.9781 60.6047 32.1211 60.5258C36.6256 60.2557 40.8749 58.3415 44.0642 55.1457L44.5061 54.7034L48.7161 50.4412L50.8539 48.2951L55.8581 43.2917L58.7244 40.4103L59.1723 39.968L77.3497 21.7774L84.8441 13.6415L85.2979 13.1991C86.3974 12.0996 87.888 11.4821 89.4422 11.4821C90.9963 11.4821 92.4869 12.0996 93.5864 13.1991L97.6889 17.3059L97.8262 17.4434C96.9027 17.3988 95.9798 17.5457 95.1156 17.8748C94.2514 18.204 93.4645 18.7084 92.8042 19.3563L78.9143 33.0337L78.771 33.201L54.616 57.0168L54.5802 56.9869L45.6765 65.7445L45.0794 66.3422C43.87 67.5277 42.4764 68.5089 40.953 69.2475C40.0973 69.6594 39.195 69.9664 38.2658 70.1621C37.7362 70.269 37.1992 70.3349 36.6595 70.3594H36.2594C34.83 70.3526 33.4188 70.0386 32.1211 69.4388L27.941 65.2543L26.2331 63.5924L18.3984 55.6419L18.7567 56.0125ZM119.927 47.8767L99.7969 68.3329L79.1233 89.345C78.4779 89.9956 77.7831 90.5952 77.0452 91.1384L76.9616 91.2101L76.663 91.4253L76.6272 91.4552C73.0209 94.0253 68.6339 95.2596 64.2181 94.9466C59.8024 94.6336 55.6329 92.7927 52.4244 89.7395L51.9527 89.3211L48.3697 85.7344L38.4211 75.7574L34.6053 71.9614C35.1482 72.05 35.6974 72.0939 36.2474 72.0929H36.7073C37.3453 72.0681 37.9803 71.9922 38.6062 71.8658C39.6661 71.6392 40.6961 71.2901 41.6756 70.8256C43.3669 70.0019 44.9152 68.9121 46.2618 67.5976C46.5663 67.2987 46.7932 67.0476 46.8888 66.934L54.5742 59.3781V59.4139L80.9924 33.3983L81.1297 33.225L93.9925 20.5519C94.8296 19.7353 95.9228 19.2332 97.0872 19.1309C98.2516 19.0285 99.4156 19.332 100.382 19.99L103.422 23.0387L119.921 39.5555C120.068 39.6996 120.208 39.8513 120.339 40.0098C121.256 41.1394 121.721 42.5693 121.645 44.0226C121.569 45.4759 120.957 46.8492 119.927 47.8767Z" fill="#ED1C24"/>
<path d="M65.4789 33.6672L63.789 35.365L60.8032 32.376C60.5799 32.1501 60.4554 31.8446 60.457 31.5268C60.4587 31.209 60.5865 30.9049 60.8121 30.6813C61.0378 30.4578 61.343 30.3331 61.6605 30.3348C61.9779 30.3365 62.2818 30.4643 62.5051 30.6903L65.4789 33.6672ZM60.4688 38.6827L58.7788 40.3744L49.4333 30.9473C47.7472 29.2341 45.6175 28.0251 43.2833 27.456C40.949 26.8869 38.5025 26.9801 36.2182 27.7253C35.9157 27.8228 35.5869 27.796 35.3042 27.6508C35.0214 27.5056 34.8078 27.2539 34.7104 26.9511C34.613 26.6483 34.6398 26.3192 34.7848 26.0361C34.9298 25.753 35.1812 25.5392 35.4837 25.4417C38.1873 24.5566 41.0838 24.4429 43.8483 25.1134C46.6128 25.7838 49.1361 27.212 51.1352 29.2377L60.4688 38.6827ZM50.4604 48.7075L48.7645 50.3992L39.3832 40.9363C39.2726 40.8248 39.185 40.6926 39.1255 40.5473C39.066 40.402 39.0356 40.2463 39.0362 40.0892C39.0367 39.9321 39.0682 39.7767 39.1287 39.6317C39.1893 39.4868 39.2778 39.3553 39.3891 39.2446C39.5005 39.1339 39.6325 39.0462 39.7777 38.9866C39.9229 38.927 40.0784 38.8966 40.2354 38.8972C40.3923 38.8977 40.5476 38.9293 40.6923 38.9899C40.8371 39.0505 40.9685 39.1391 41.0791 39.2506L50.4604 48.7075ZM55.4586 43.6981L53.7687 45.3898L44.3933 35.9448C43.8491 35.3953 43.2021 34.9585 42.4892 34.6593C41.7763 34.3601 41.0115 34.2043 40.2386 34.201C39.4656 34.1977 38.6995 34.3468 37.9841 34.6398C37.2686 34.9329 36.6179 35.3641 36.069 35.9089C35.52 36.4537 35.0836 37.1014 34.7848 37.8151C34.4859 38.5287 34.3303 39.2943 34.327 40.0681C34.3237 40.8419 34.4726 41.6088 34.7654 42.3249C35.0581 43.0411 35.4889 43.6925 36.0331 44.2421L42.0644 50.3335C42.1754 50.4445 42.2635 50.5764 42.3236 50.7215C42.3837 50.8667 42.4147 51.0222 42.4147 51.1793C42.4147 51.3365 42.3837 51.4921 42.3236 51.6372C42.2635 51.7823 42.1754 51.9142 42.0644 52.0252C41.9535 52.1364 41.8218 52.2246 41.6768 52.2847C41.5318 52.3449 41.3764 52.3759 41.2194 52.3759C41.0625 52.3759 40.9071 52.3449 40.7621 52.2847C40.6171 52.2246 40.4854 52.1364 40.3745 52.0252L34.3551 45.9338C33.5893 45.1613 32.9831 44.2454 32.5709 43.2384C32.1587 42.2314 31.9487 41.153 31.9529 40.0647C31.957 38.9765 32.1753 37.8997 32.5951 36.8958C33.015 35.892 33.6283 34.9808 34.3999 34.2142C35.1716 33.4476 36.0865 32.8407 37.0924 32.4281C38.0984 32.0155 39.1757 31.8053 40.2628 31.8094C41.3499 31.8136 42.4256 32.0321 43.4284 32.4524C44.4311 32.8727 45.3414 33.4866 46.1072 34.259L55.4586 43.6981ZM39.9445 58.2123H39.8908C39.1631 58.6156 38.4089 58.9691 37.6335 59.2704L29.333 50.9014C26.8117 48.363 25.2534 45.024 24.9264 41.4593C24.5994 37.8946 25.5242 34.3274 27.5416 31.3718C27.631 31.2422 27.745 31.1316 27.8771 31.0462C28.0092 30.9607 28.1568 30.9022 28.3115 30.8739C28.4662 30.8456 28.625 30.8481 28.7787 30.8812C28.9325 30.9143 29.0782 30.9774 29.2076 31.0669C29.337 31.1564 29.4475 31.2705 29.5329 31.4027C29.6182 31.535 29.6767 31.6828 29.705 31.8376C29.7332 31.9925 29.7308 32.1515 29.6977 32.3054C29.6646 32.4593 29.6016 32.6052 29.5122 32.7347C27.802 35.2323 27.018 38.25 27.2961 41.2653C27.5742 44.2805 28.8968 47.1035 31.0349 49.2455L39.9445 58.2123ZM56.1633 25.9618C56.0521 26.0747 55.9197 26.1645 55.7736 26.2257C55.6275 26.2869 55.4707 26.3185 55.3123 26.3185C55.1539 26.3185 54.9972 26.2869 54.8511 26.2257C54.705 26.1645 54.5725 26.0747 54.4614 25.9618C52.6171 24.0478 50.4111 22.5198 47.9717 21.4666C45.5324 20.4135 42.9082 19.8563 40.2518 19.8273C37.5954 19.7983 34.9597 20.2981 32.498 21.2977C30.0363 22.2973 27.7975 23.7767 25.912 25.65C24.0264 27.5233 22.5315 29.7531 21.5144 32.2098C20.4972 34.6665 19.9779 37.3011 19.9867 39.9604C19.9956 42.6198 20.5323 45.2508 21.5658 47.7007C22.5993 50.1505 24.1089 52.3703 26.0069 54.231L32.1038 60.3823C32.1429 60.424 32.1769 60.4701 32.2054 60.5197H32.1217C31.0089 60.5965 29.8913 60.5685 28.7836 60.4361L24.305 55.9108C22.211 53.8207 20.5503 51.337 19.4183 48.6023C18.2864 45.8676 17.7055 42.9359 17.709 39.9757C17.7126 37.0156 18.3005 34.0853 19.439 31.3534C20.5775 28.6214 22.2442 26.1416 24.3432 24.0566C26.4422 21.9715 28.9321 20.3223 31.6699 19.2037C34.4077 18.0851 37.3393 17.5192 40.2963 17.5384C43.2533 17.5577 46.1773 18.1618 48.9003 19.316C51.6233 20.4703 54.0916 22.1518 56.1633 24.2641C56.2779 24.3755 56.3691 24.5089 56.4314 24.6562C56.4936 24.8036 56.5257 24.9619 56.5257 25.1219C56.5257 25.2819 56.4936 25.4403 56.4314 25.5876C56.3691 25.735 56.2779 25.8683 56.1633 25.9797V25.9618ZM257.321 72.7086C257.326 72.8717 257.296 73.0339 257.236 73.1853C257.175 73.3366 257.084 73.4739 256.968 73.5887C256.852 73.7035 256.714 73.7934 256.562 73.8527C256.411 73.9121 256.248 73.9398 256.085 73.934C255.92 73.9396 255.755 73.9122 255.6 73.8534C255.446 73.7946 255.304 73.7056 255.184 73.5916C255.064 73.4776 254.968 73.3408 254.901 73.1892C254.835 73.0376 254.799 72.8742 254.795 72.7086C254.797 72.5411 254.832 72.3757 254.898 72.2217C254.963 72.0678 255.059 71.9284 255.179 71.8117C255.299 71.6949 255.441 71.6032 255.596 71.5416C255.752 71.4801 255.918 71.4501 256.085 71.4532C256.251 71.4532 256.414 71.4863 256.567 71.5507C256.719 71.6152 256.857 71.7095 256.972 71.8283C257.088 71.947 257.178 72.0877 257.238 72.242C257.298 72.3963 257.326 72.561 257.321 72.7265V72.7086ZM213.789 75.2133C213.299 75.2133 213.245 75.04 213.192 74.7291C213.114 74.0118 213.58 73.7069 214.356 72.8879C214.541 72.74 214.661 72.5254 214.69 72.2901C214.69 71.8537 214.481 71.6505 214.225 71.6266C213.834 71.6132 213.446 71.691 213.09 71.8538C213.028 71.8914 212.957 71.9141 212.884 71.9199C212.812 71.9258 212.739 71.9146 212.671 71.8874C212.603 71.8602 212.543 71.8176 212.494 71.763C212.446 71.7084 212.41 71.6433 212.391 71.5728L212.296 71.3696C212.141 70.987 212.391 70.8555 212.654 70.7299C213.131 70.5158 213.649 70.4096 214.171 70.4191C214.418 70.3995 214.666 70.4352 214.898 70.5235C215.129 70.6117 215.338 70.7504 215.51 70.9295C215.681 71.1085 215.811 71.3235 215.889 71.5588C215.967 71.7941 215.992 72.0439 215.962 72.2901C215.962 73.414 214.464 73.8802 214.386 74.7231C214.371 74.8425 214.318 74.9539 214.236 75.0411C214.153 75.1282 214.044 75.1865 213.926 75.2073L213.789 75.2133ZM292.948 72.4754C292.56 71.8777 292.661 71.7342 293.36 71.7342H293.617C293.887 71.6951 294.162 71.7497 294.396 71.8889C294.631 72.0281 294.811 72.2435 294.906 72.4994L295.987 74.5737C296.244 75.0878 296.167 75.2133 295.599 75.2133H295.342C295.121 75.2226 294.901 75.1721 294.705 75.0669C294.51 74.9617 294.346 74.8058 294.232 74.6155L292.948 72.4754ZM188.272 74.6036C188.158 74.7943 187.995 74.9505 187.799 75.0558C187.604 75.161 187.383 75.2113 187.162 75.2014H186.905C186.361 75.2014 186.236 75.0758 186.517 74.5617L187.603 72.4874C187.699 72.2316 187.879 72.0162 188.113 71.877C188.348 71.7378 188.623 71.6832 188.893 71.7222H189.15C189.843 71.7222 189.95 71.8777 189.562 72.4635L188.272 74.6036ZM250.185 80.8265C250.185 79.0033 249.051 78.1126 246.806 78.1126C244.56 78.1126 243.378 79.0033 243.378 80.8265V81.1314C243.378 82.9726 244.202 83.8931 246.806 83.8931C249.409 83.8931 250.185 82.9726 250.185 81.1314V80.8265ZM281.835 84.1502C281.835 86.6071 282.689 87.7369 285.549 87.7369C288.409 87.7369 289.263 86.631 289.263 84.1502V81.7591C289.263 79.3022 288.362 78.2022 285.549 78.2022C282.736 78.2022 281.835 79.3022 281.835 81.7591V84.1502ZM229.745 83.4627H226.705C224.406 83.4627 223.349 84.0605 223.349 85.6865C223.349 87.1451 224.305 87.8624 226.239 87.8624C228.628 87.8624 229.721 87.3244 229.721 85.4055L229.745 83.4627ZM268.148 83.4627H265.132C262.833 83.4627 261.776 84.0605 261.776 85.6865C261.776 87.1451 262.732 87.8624 264.666 87.8624C267.055 87.8624 268.148 87.3244 268.148 85.4055V83.4627ZM255.13 77.4849C255.13 76.8453 255.261 76.6659 255.954 76.6659H256.241C256.886 76.6659 257.065 76.8453 257.065 77.4849V88.4722C257.065 89.1656 256.886 89.2911 256.241 89.2911H255.954C255.261 89.2911 255.13 89.1656 255.13 88.4722V77.4849ZM294.465 77.4849C294.465 76.8453 294.644 76.6659 295.289 76.6659H295.575C296.268 76.6659 296.399 76.8453 296.399 77.4849V88.4722C296.399 89.1656 296.268 89.2911 295.575 89.2911H295.289C294.644 89.2911 294.465 89.1656 294.465 88.4722V77.4849ZM186.26 77.4849C186.26 76.8512 186.439 76.6659 187.084 76.6659H187.371C188.063 76.6659 188.189 76.8512 188.189 77.4849V88.4722C188.189 89.1656 188.063 89.2911 187.371 89.2911H187.084C186.439 89.2911 186.26 89.1656 186.26 88.4722V77.4849ZM313.711 72.1885C313.711 71.4951 313.896 71.3696 314.535 71.3696H314.822C315.514 71.3696 315.646 71.4951 315.646 72.1885V78.1664C316.416 77.0126 317.76 76.4268 319.694 76.4268C322.865 76.4268 324.472 77.9093 324.472 80.9042V88.4841C324.472 89.1776 324.346 89.3031 323.648 89.3031H323.337C322.644 89.3031 322.513 89.1776 322.513 88.4841V81.1254C322.513 79.0989 321.611 78.2262 319.217 78.2262C316.822 78.2262 315.634 79.2005 315.634 81.5618V88.4722C315.634 89.1656 315.502 89.2911 314.81 89.2911H314.523C313.884 89.2911 313.699 89.1656 313.699 88.4722L313.711 72.1885ZM301.601 88.4722C301.601 89.1656 301.469 89.2911 300.771 89.2911H300.49C299.845 89.2911 299.666 89.1656 299.666 88.4722V81.2031C299.666 77.999 301.457 76.4208 305.04 76.4208C308.826 76.4208 310.415 78.1066 310.415 81.2031V88.4722C310.415 89.1656 310.283 89.2911 309.591 89.2911H309.28C308.587 89.2911 308.456 89.1656 308.456 88.4722V81.2031C308.456 79.1527 307.656 78.2142 305.052 78.2142C302.449 78.2142 301.601 79.1647 301.601 81.2031V88.4722ZM180.903 85.7582C180.695 86.8364 180.255 87.8562 179.613 88.7472C179.289 89.0324 178.91 89.2476 178.499 89.3792C178.088 89.5109 177.654 89.5562 177.225 89.5123C176.796 89.5523 176.363 89.5052 175.953 89.3737C175.542 89.2422 175.162 89.0291 174.836 88.7472C174.197 87.8556 173.759 86.8358 173.552 85.7582L170.393 73.5156C170.214 72.8281 170.34 72.6488 171.062 72.6488H171.349C172.065 72.6488 172.298 72.8281 172.483 73.5156L175.624 85.9854C175.959 87.3962 176.323 87.7309 177.225 87.7309C178.127 87.7309 178.461 87.3962 178.795 85.9854L181.942 73.5156C182.122 72.8281 182.354 72.6488 183.077 72.6488H183.358C184.08 72.6488 184.212 72.8281 184.026 73.5156L180.903 85.7582ZM293.437 74.5139C293.437 75.0579 293.258 75.2312 292.715 75.2312H291.168V84.198C291.168 87.7548 289.287 89.5482 285.525 89.5482C281.632 89.5482 279.882 87.7548 279.882 84.198V81.8069C279.882 78.2202 281.673 76.4268 285.215 76.4268C287.203 76.4268 288.541 77.0246 289.239 78.2919V75.2432H285.734C285.137 75.2432 285.012 75.0698 285.012 74.5259V74.3226C285.012 73.7846 285.137 73.6053 285.734 73.6053H289.228V72.2005C289.228 71.507 289.353 71.3815 290.052 71.3815H290.332C290.977 71.3815 291.156 71.507 291.156 72.2005V73.6053H292.703C293.246 73.6053 293.426 73.7846 293.426 74.3226L293.437 74.5139ZM197.474 81.6873C197.474 78.3337 199.302 76.3909 203.225 76.3909C203.994 76.373 204.761 76.4842 205.494 76.7197C206.091 76.923 206.265 77.1083 206.265 77.6941V77.9512C206.265 78.5908 206.109 78.7701 205.494 78.5489C204.78 78.3003 204.029 78.177 203.273 78.1843C200.389 78.1843 199.409 79.3141 199.409 81.6933V84.1801C199.409 86.7685 200.568 87.6891 203.428 87.6891C204.215 87.7042 205 87.5912 205.751 87.3543C206.348 87.1511 206.521 87.3543 206.521 87.994V88.251C206.521 88.789 206.342 88.9923 205.697 89.1716C204.923 89.4071 204.117 89.52 203.309 89.5063C199.361 89.5063 197.48 87.8146 197.48 84.204L197.474 81.6873ZM231.65 85.4773C231.65 88.3167 229.972 89.5243 226.275 89.5243C223.289 89.5243 221.426 88.3287 221.426 85.6805C221.426 83.0323 223.182 81.9444 226.687 81.9444H229.733V80.4081C229.733 78.6685 228.538 78.0767 226.353 78.0767C225.4 78.0615 224.448 78.1558 223.516 78.3577C222.919 78.4892 222.692 78.3577 222.692 77.718V77.5148C222.692 76.917 222.848 76.7735 223.469 76.642C224.385 76.4622 225.318 76.3781 226.251 76.3909C229.834 76.3909 231.662 77.718 231.662 80.4081L231.65 85.4773ZM270.053 85.4773C270.053 88.3167 268.381 89.5243 264.678 89.5243C261.693 89.5243 259.835 88.3287 259.835 85.6805C259.835 83.0323 261.585 81.9444 265.09 81.9444H268.136V80.4081C268.136 78.6685 266.942 78.0767 264.756 78.0767C263.803 78.0612 262.851 78.1555 261.92 78.3577C261.322 78.4892 261.095 78.3577 261.095 77.718V77.5148C261.095 76.917 261.251 76.7735 261.872 76.642C262.788 76.4625 263.721 76.3784 264.655 76.3909C268.237 76.3909 270.065 77.718 270.065 80.4081L270.053 85.4773ZM210.283 84.7599C210.283 86.7804 211.131 87.7489 213.735 87.7489C216.339 87.7489 217.169 86.8283 217.169 84.7599V77.4849C217.169 76.8453 217.348 76.6659 217.993 76.6659H218.273C218.972 76.6659 219.103 76.8453 219.103 77.4849V84.7599C219.103 87.8565 217.527 89.5422 213.729 89.5422C210.146 89.5422 208.355 87.9521 208.355 84.7599V77.4849C208.355 76.8453 208.54 76.6659 209.185 76.6659H209.465C210.158 76.6659 210.289 76.8453 210.289 77.4849L210.283 84.7599ZM244.28 89.0102C243.894 89.2002 243.574 89.5017 243.361 89.8758C243.148 90.2498 243.052 90.6792 243.085 91.1084C243.085 92.7703 244.041 93.2066 246.823 93.2066C249.505 93.2066 250.538 92.7702 250.538 91.0307C250.538 89.4167 249.582 89.1357 246.823 89.1357C245.974 89.1481 245.124 89.1062 244.28 89.0102ZM252.144 81.1493C252.144 84.1183 250.365 85.6028 246.806 85.6028C245.891 85.5657 244.975 85.6339 244.077 85.8061C243.903 85.8449 243.748 85.9432 243.639 86.084C243.53 86.2248 243.474 86.3992 243.479 86.5772C243.479 86.9359 243.688 87.175 244.124 87.2945C245.019 87.4287 245.925 87.4807 246.829 87.45C248.973 87.45 250.442 87.701 251.242 88.2391C252.043 88.7771 252.479 89.6498 252.479 90.953C252.479 92.4116 252.066 93.4099 251.213 94.0017C250.359 94.5935 248.919 94.8744 246.829 94.8744C244.739 94.8744 243.199 94.5935 242.369 94.0017C241.961 93.6892 241.637 93.2792 241.429 92.8092C241.22 92.3392 241.133 91.8243 241.174 91.3117C241.143 90.7667 241.26 90.2234 241.515 89.7408C241.77 89.2581 242.152 88.8546 242.619 88.5738C242.291 88.4347 242.012 88.1978 241.822 87.8953C241.632 87.5928 241.539 87.2391 241.557 86.8821C241.557 85.7582 242.253 85.0927 243.647 84.8855C242.201 84.2877 241.485 83.0443 241.485 81.1493V80.8444C241.485 78.0528 243.467 76.4149 246.859 76.4149C247.771 76.399 248.675 76.572 249.517 76.923L250.986 75.6198C251.428 75.2312 251.631 75.2312 252.043 75.6198L252.222 75.7991C252.634 76.1817 252.634 76.3969 252.222 76.7974L251.063 77.993C251.447 78.3616 251.747 78.8087 251.943 79.3039C252.139 79.799 252.226 80.3306 252.198 80.8624L252.144 81.1493Z" fill="#009EDB"/>
</g>
<defs>
<clipPath id="clip0_539_261">
<rect width="365" height="95" fill="white"/>
</clipPath>
</defs>
</svg>
