<svg width="35" height="34" viewBox="0 0 35 34" fill="none" xmlns="http://www.w3.org/2000/svg">
<path d="M12.3303 22.5768L14.1017 12.1806H16.9367L15.1624 22.5768H12.3303Z" fill="url(#paint0_linear_779_130)"/>
<path d="M25.4409 12.4374C24.6269 12.1419 23.7668 11.9939 22.9009 12.0002C20.1012 12.0002 18.1288 13.4099 18.1111 15.4313C18.0954 16.9253 19.5189 17.7585 20.5943 18.2556C21.6981 18.7653 22.0647 19.0908 22.0647 19.5456C22.0569 20.2426 21.1824 20.5603 20.3688 20.5603C19.2346 20.5603 18.6327 20.4034 17.7014 20.0152L17.3367 19.8505L16.9387 22.1778C17.6004 22.4719 18.8238 22.7189 20.0953 22.7316C23.0754 22.7316 25.0076 21.3386 25.0302 19.179C25.0409 17.9977 24.2861 17.0978 22.6519 16.3557C21.6608 15.8744 21.053 15.5538 21.0599 15.0666C21.0599 14.6343 21.5736 14.1716 22.6833 14.1716C23.4095 14.1553 24.1312 14.2912 24.8017 14.5706L25.0576 14.6902L25.4409 12.4355V12.4374Z" fill="url(#paint1_linear_779_130)"/>
<path d="M32.708 12.1904H30.518C29.8396 12.1904 29.3318 12.3757 29.0338 13.053L24.8263 22.5807H27.8026C27.8026 22.5807 28.2878 21.3004 28.3986 21.019H32.0257C32.11 21.3837 32.3698 22.5768 32.3698 22.5768H35L32.7061 12.1855L32.708 12.1904ZM29.2132 18.8927C29.4475 18.2928 30.3425 15.9861 30.3425 15.9861C30.3259 16.0136 30.5749 15.3832 30.718 14.9931L30.9141 15.8901L31.566 18.8927H29.2132Z" fill="url(#paint2_linear_779_130)"/>
<path d="M0.0352912 12.1816H4.60746L4.6055 12.1776C5.22113 12.2051 5.71913 12.4011 5.89068 13.0599L6.87887 17.8193C6.88083 17.8255 6.88276 17.8317 6.88469 17.8379L7.17878 19.278L9.95403 12.1884H12.9548L8.49337 22.5689H5.49559L2.97581 13.5384C2.10489 13.0555 1.11117 12.6673 0 12.3982L0.0352912 12.1816Z" fill="url(#paint3_linear_779_130)"/>
<defs>
<linearGradient id="paint0_linear_779_130" x1="2.76493e-07" y1="12.1961" x2="30.3436" y2="14.6578" gradientUnits="userSpaceOnUse">
<stop stop-color="#0F1960"/>
<stop offset="1" stop-color="#002897"/>
</linearGradient>
<linearGradient id="paint1_linear_779_130" x1="2.76493e-07" y1="12.1961" x2="30.3436" y2="14.6578" gradientUnits="userSpaceOnUse">
<stop stop-color="#0F1960"/>
<stop offset="1" stop-color="#002897"/>
</linearGradient>
<linearGradient id="paint2_linear_779_130" x1="2.76493e-07" y1="12.1961" x2="30.3436" y2="14.6578" gradientUnits="userSpaceOnUse">
<stop stop-color="#0F1960"/>
<stop offset="1" stop-color="#002897"/>
</linearGradient>
<linearGradient id="paint3_linear_779_130" x1="2.76493e-07" y1="12.1961" x2="30.3436" y2="14.6578" gradientUnits="userSpaceOnUse">
<stop stop-color="#0F1960"/>
<stop offset="1" stop-color="#002897"/>
</linearGradient>
</defs>
</svg>
