<svg width="104" height="33" viewBox="0 0 104 33" fill="none" xmlns="http://www.w3.org/2000/svg">
<g clip-path="url(#clip0_16_4559)">
<path d="M22.6917 10.9229L19.6842 13.9706L19.5338 14.1229L18.579 15.0906L17.8722 15.8144L16.9173 16.782L16.7669 16.9267L16.3534 17.3534L16.203 17.4982L14.797 18.9229L14.6466 19.0677C14.2357 19.4835 13.7702 19.8399 13.2632 20.1267C13.0212 20.2639 12.7699 20.3836 12.5113 20.4848C11.9289 20.7135 11.3152 20.8498 10.6917 20.8887C10.3141 20.9229 9.9341 20.9229 9.55641 20.8887C8.7317 20.7978 7.93371 20.5386 7.21054 20.1267C6.88307 19.955 6.57965 19.7397 6.30829 19.4867L6.13535 19.3115L0.654151 13.7039L0.541369 13.5896C0.443742 13.4826 0.358014 13.3651 0.28573 13.2391C0.097651 12.916 -0.0010463 12.5476 1.5622e-05 12.1725C-0.00391146 12.1141 -0.00391146 12.0556 1.5622e-05 11.9972C1.5622e-05 11.9058 1.5622e-05 11.8144 1.5622e-05 11.7306V11.6315C0.0735085 11.3545 0.20137 11.0954 0.375955 10.8696C0.42209 10.8102 0.472343 10.7542 0.526331 10.702L0.624076 10.6029L6.52633 4.69818L10.0602 1.12484C10.4362 0.743176 10.9413 0.520605 11.4732 0.502214C12.0051 0.483823 12.524 0.670988 12.9248 1.02579L22.6917 10.9229Z" fill="#005BAA"/>
<path d="M12.0675 24.2105C11.5919 24.2088 11.1224 24.1022 10.6915 23.8981L9.57124 22.7705L9.29305 22.4962L9.24794 22.4429L8.72914 21.9172L6.12012 19.2429L6.29305 19.4181C6.56627 19.6744 6.87227 19.8922 7.20282 20.0658C7.92599 20.4776 8.72399 20.7368 9.54869 20.8277C9.92638 20.8619 10.3063 20.8619 10.684 20.8277C11.3074 20.7888 11.9212 20.6525 12.5036 20.4238C12.7622 20.3226 13.0135 20.2029 13.2555 20.0658C13.7625 19.7789 14.228 19.4225 14.6389 19.0067L14.7893 18.8619L16.1953 17.4372L16.3457 17.2924L16.7592 16.8658L16.9096 16.721L17.8645 15.7534L18.5712 15.0296L19.5487 14.1153L19.6991 13.9629L25.7517 7.86766L28.2329 5.07147L28.3682 4.94194C28.7346 4.57206 29.2307 4.36438 29.7479 4.36438C30.2651 4.36438 30.7612 4.57206 31.1276 4.94194L32.4961 6.32861H32.5412C32.2341 6.31562 31.9276 6.36637 31.6406 6.47774C31.3535 6.5891 31.092 6.75874 30.872 6.97623L26.2479 11.5477L26.2028 11.601L18.1727 19.7077L15.2028 22.6562L15.0224 22.8467C14.6182 23.2443 14.1536 23.5736 13.6464 23.8219C13.3644 23.9606 13.0663 24.063 12.7592 24.1267C12.5834 24.1641 12.4049 24.187 12.2254 24.1953L12.0675 24.2105Z" fill="#ED1C24"/>
<path d="M39.9095 16.6295L39.7592 16.7819L33.2103 23.5171L26.3155 30.5952C26.1013 30.8143 25.87 31.0156 25.6238 31.1971L25.5261 31.2657C24.3275 32.1335 22.8679 32.5512 21.3984 32.4469C19.9288 32.3427 18.541 31.7229 17.4734 30.6942L17.293 30.5876L16.1125 29.3914L12.7817 26.0161L11.6689 24.8809L11.5186 24.7209C11.6975 24.7513 11.8785 24.7666 12.0599 24.7666H12.2178C12.4303 24.7575 12.6417 24.7294 12.8494 24.6828C13.2016 24.6121 13.5429 24.4942 13.8644 24.3323C14.4185 24.0537 14.9259 23.6886 15.3682 23.2504L15.5712 23.0295L18.1276 20.4847L26.9171 11.7228L26.9622 11.6619L31.278 7.42567C31.5583 7.15334 31.922 6.98604 32.3088 6.95141C32.6957 6.91678 33.0826 7.01688 33.4058 7.23519L34.4133 8.26376L39.902 13.8333C39.951 13.8804 39.9963 13.9313 40.0374 13.9857C40.3431 14.364 40.4994 14.844 40.4758 15.3325C40.4522 15.821 40.2504 16.2832 39.9095 16.6295Z" fill="#ED1C24"/>
<path d="M18.6919 9.25425C18.6141 9.32707 18.5121 9.36751 18.4062 9.36751C18.3003 9.36751 18.1983 9.32707 18.1205 9.25425C17.5029 8.6244 16.7689 8.124 15.9604 7.7816C15.152 7.43919 14.2849 7.26151 13.4087 7.25868C11.639 7.25296 9.93967 7.95983 8.68438 9.22377C7.42909 10.4877 6.7207 12.2052 6.71506 13.9984C6.70942 15.7916 7.40699 17.5136 8.65431 18.7857L10.6844 20.8581C10.6865 20.8732 10.6865 20.8886 10.6844 20.9038C10.3167 20.9381 9.94676 20.9381 9.57912 20.9038L8.07536 19.38C6.67948 17.9554 5.89925 16.0272 5.9063 14.0197C5.91335 12.0122 6.7071 10.0897 8.11295 8.6752C9.5188 7.26071 11.4216 6.47008 13.4027 6.47722C15.3838 6.48437 17.281 7.28871 18.6769 8.7133C18.745 8.78559 18.7843 8.88092 18.787 8.98084C18.7898 9.08077 18.7559 9.17819 18.6919 9.25425Z" fill="#009EDB"/>
<path d="M21.8044 11.8448L21.2405 12.4086L20.2556 11.4029C20.2185 11.3654 20.1891 11.3209 20.1691 11.2718C20.149 11.2228 20.1387 11.1702 20.1387 11.1172C20.1387 11.0641 20.149 11.0116 20.1691 10.9625C20.1891 10.9135 20.2185 10.869 20.2556 10.8315C20.2926 10.7939 20.3365 10.7641 20.3849 10.7438C20.4333 10.7235 20.4851 10.713 20.5375 10.713C20.5899 10.713 20.6418 10.7235 20.6901 10.7438C20.7385 10.7641 20.7825 10.7939 20.8195 10.8315L21.8044 11.8448Z" fill="#009EDB"/>
<path d="M13.2933 20.1115C13.0516 20.2471 12.8002 20.3642 12.5414 20.462L9.77446 17.6581C8.9355 16.8018 8.41782 15.6756 8.31075 14.4738C8.20369 13.272 8.51395 12.07 9.188 11.0753C9.24877 10.9876 9.34091 10.9274 9.44481 10.9074C9.54872 10.8875 9.6562 10.9095 9.74439 10.9686C9.78744 10.999 9.82414 11.0378 9.85237 11.0826C9.8806 11.1275 9.8998 11.1775 9.90889 11.2299C9.91797 11.2823 9.91675 11.336 9.90529 11.3879C9.89384 11.4398 9.87237 11.4889 9.84213 11.5324C9.27394 12.372 9.01261 13.3862 9.10319 14.4001C9.19378 15.414 9.63061 16.3642 10.3384 17.0867L13.2933 20.1115Z" fill="#009EDB"/>
<path d="M20.1199 13.5286L19.7064 13.9476L19.5711 14.0847L16.4658 10.9076C15.8975 10.3292 15.1809 9.92348 14.397 9.73633C13.613 9.54917 12.793 9.58804 12.0297 9.84856C11.9787 9.87246 11.9233 9.88518 11.8672 9.88586C11.811 9.88654 11.7553 9.87519 11.7038 9.85253C11.6522 9.82987 11.606 9.79643 11.5681 9.75439C11.5302 9.71236 11.5015 9.66268 11.4839 9.60862C11.4663 9.55456 11.4602 9.49734 11.466 9.44072C11.4717 9.38409 11.4892 9.32934 11.5173 9.28005C11.5454 9.23076 11.5835 9.18805 11.6291 9.15472C11.6746 9.12139 11.7266 9.09819 11.7816 9.08665C12.6816 8.78764 13.6461 8.74903 14.5666 8.97516C15.4871 9.20128 16.3271 9.68318 16.9921 10.3667L20.1199 13.5286Z" fill="#009EDB"/>
<path d="M18.4586 15.22L17.8947 15.7914L14.7744 12.6066C14.3985 12.2944 13.9213 12.1353 13.436 12.1603C12.9506 12.1852 12.4918 12.3925 12.149 12.7417C11.8063 13.0909 11.6042 13.557 11.5822 14.049C11.5602 14.541 11.7199 15.0236 12.03 15.4028L14.0376 17.4523C14.1123 17.5281 14.1543 17.6309 14.1543 17.738C14.1543 17.8452 14.1123 17.948 14.0376 18.0238C13.9628 18.0995 13.8614 18.1421 13.7556 18.1421C13.6498 18.1421 13.5484 18.0995 13.4736 18.0238L11.4285 15.9742C10.9513 15.4406 10.6957 14.741 10.7149 14.0211C10.7341 13.3013 11.0266 12.6166 11.5315 12.1099C12.0364 11.6031 12.7148 11.3133 13.4254 11.3008C14.1359 11.2883 14.8238 11.5541 15.3458 12.0428L18.4586 15.22Z" fill="#009EDB"/>
<path d="M16.7893 16.9038L16.3757 17.3305L16.2404 17.46L13.1051 14.2905C13.0303 14.2147 12.9883 14.1119 12.9883 14.0048C12.9883 13.8976 13.0303 13.7948 13.1051 13.7191C13.1799 13.6433 13.2813 13.6007 13.387 13.6007C13.4928 13.6007 13.5942 13.6433 13.669 13.7191L16.7893 16.9038Z" fill="#009EDB"/>
<path fill-rule="evenodd" clip-rule="evenodd" d="M95.2482 16.7286L90.6016 9.97812L90.1354 9.54383H94.7369L97.8422 14.641L98.0903 14.4353L99.9625 11.6086C100.197 11.2998 100.302 10.9096 100.254 10.5229C100.206 10.1362 100.009 9.78433 99.7068 9.54383H104.03L99.0301 16.721V21.9324L99.9098 22.9991H94.5113L95.2632 21.9476C95.2632 20.2181 95.2031 18.4581 95.2632 16.7286H95.2482ZM82.6392 9.54383C82.9371 9.85654 83.1225 10.2618 83.1655 10.6943C83.1951 10.9526 83.1615 11.2142 83.0677 11.4562L79.6166 21.6048C79.3884 22.1147 79.0521 22.5673 78.6316 22.9305H82.391C82.115 22.7012 81.9284 22.3798 81.8647 22.0238C81.7968 21.7745 81.7968 21.5112 81.8647 21.2619L82.6166 18.8543H87.0001L87.6843 20.7134C87.7533 20.8994 87.7963 21.0943 87.8121 21.2924C87.8567 21.6087 87.8152 21.9313 87.6919 22.2254C87.5687 22.5195 87.3684 22.7739 87.1129 22.961H93.0151C92.4332 22.4864 91.9545 21.895 91.6091 21.2238L87.2933 9.50574L82.6392 9.54383ZM86.3986 17.1629H83.2632L84.767 12.7743L86.3835 17.1629H86.3986ZM70.6768 9.55145H77.2557C78.2103 9.55347 79.1252 9.93861 79.8002 10.6226C80.4751 11.3066 80.8552 12.2337 80.8572 13.201V13.6505C80.8454 14.6085 80.4631 15.5236 79.7924 16.199C79.1217 16.8743 78.2162 17.256 77.2707 17.2619L75.6241 17.3153C76.2408 16.9744 76.7368 16.4466 77.0429 15.8059C77.3489 15.1652 77.4496 14.4435 77.3309 13.7419C77.2031 12.6143 76.6316 11.5324 75.6768 11.5095H75.0753V21.4981C75.0725 21.6587 75.1199 21.816 75.2106 21.9476C75.3909 22.2341 75.5919 22.5066 75.8121 22.7629L75.985 22.9762H70.8722L71.0903 22.6791C71.2505 22.4653 71.3843 22.2324 71.4888 21.9857C71.5548 21.8427 71.5882 21.6865 71.5865 21.5286V10.7781C71.564 10.2143 71.0151 9.89431 70.6768 9.55145Z" fill="#005BAA"/>
<path fill-rule="evenodd" clip-rule="evenodd" d="M42.9697 9.48291H47.0975L50.5637 19.5477L53.5036 11.2124C53.5572 10.9694 53.5139 10.7148 53.3833 10.5039C53.2254 10.161 53.0524 9.83339 52.887 9.49815H55.9697C55.7893 10.1762 55.5186 10.9229 55.2855 11.6086L51.3006 23.3572C50.1042 23.1632 48.9847 22.6356 48.0675 21.8334C47.4514 21.1616 47.005 20.3486 46.7667 19.4639L43.4359 10.481C43.3035 10.1378 43.1477 9.80428 42.9697 9.48291ZM59.4509 14.2143V21.4067C59.4509 21.6962 59.5186 21.7496 59.699 21.9858L60.5111 23.0601H56.6239L57.278 22.0467C57.4384 21.8498 57.5238 21.6011 57.5186 21.3458V11.281L56.4284 9.48291H60.4584L66.9772 18.0239V11.2429C66.9844 10.9863 66.9018 10.7353 66.7442 10.5343C66.5261 10.1915 66.293 9.86386 66.075 9.52862H69.9246L69.1727 10.5724C68.9923 10.801 68.9246 10.8543 68.9246 11.1515V23.3572C68.1371 23.3158 67.3675 23.1032 66.6683 22.7338C65.969 22.3644 65.3564 21.8468 64.872 21.2162L59.4509 14.2143Z" fill="#ED1C24"/>
<path d="M47.0976 27.5934C47.0976 28.1267 47.3231 28.4086 47.9021 28.4086C48.1281 28.4086 48.3522 28.3673 48.5637 28.2867C48.669 28.241 48.6991 28.2867 48.6991 28.3857V28.4467C48.6991 28.5381 48.6991 28.5762 48.5637 28.6295C48.3556 28.7122 48.1331 28.7511 47.9096 28.7438C47.1126 28.7438 46.7367 28.3857 46.7367 27.5934V26.8314C46.7144 26.6708 46.7291 26.507 46.7796 26.353C46.8302 26.199 46.9152 26.059 47.0281 25.9439C47.141 25.8288 47.2786 25.7417 47.4302 25.6895C47.5819 25.6373 47.7434 25.6213 47.9021 25.6429C48.1206 25.6443 48.3371 25.6856 48.5412 25.7648C48.6465 25.8029 48.669 25.8486 48.669 25.94V26.001C48.669 26.1153 48.6239 26.1457 48.5262 26.1076C48.3243 26.0201 48.1066 25.976 47.8871 25.9781C47.3307 25.9781 47.1352 26.2524 47.1352 26.8467L47.0976 27.5934Z" fill="#009EDB"/>
<path d="M47.9095 28.7514C47.105 28.7514 46.729 28.3781 46.729 27.5933V26.8314C46.7064 26.67 46.7212 26.5055 46.7722 26.3508C46.8231 26.1962 46.9089 26.0557 47.0227 25.9404C47.1364 25.8251 47.2751 25.7382 47.4277 25.6866C47.5803 25.6349 47.7427 25.62 47.9019 25.6429C48.1205 25.6443 48.337 25.6856 48.541 25.7648C48.6538 25.8105 48.6764 25.8562 48.6764 25.9476V26.0086C48.6764 26.0695 48.6764 26.1076 48.6764 26.1229C48.6764 26.1381 48.6162 26.1229 48.5636 26.1229C48.3601 26.0416 48.1432 26.0003 47.9245 26.0009C47.3832 26.0009 47.1726 26.2676 47.1726 26.8619V27.6238C47.1726 28.18 47.4132 28.4314 47.9696 28.4314C48.1934 28.4344 48.4157 28.393 48.6238 28.3095C48.6839 28.3095 48.714 28.3095 48.7365 28.3095C48.7591 28.3095 48.7365 28.3629 48.7365 28.4238V28.4848C48.7365 28.5838 48.7365 28.6219 48.6012 28.6676C48.3803 28.75 48.1433 28.7787 47.9095 28.7514ZM47.9095 25.6505C47.7497 25.627 47.5867 25.6418 47.4337 25.6939C47.2807 25.7459 47.1418 25.8337 47.0284 25.9501C46.915 26.0665 46.8302 26.2083 46.7808 26.364C46.7314 26.5198 46.7188 26.6851 46.7441 26.8467V27.6086C46.7441 28.3705 47.12 28.7514 47.917 28.7514C48.1383 28.7641 48.3596 28.725 48.5636 28.6371C48.6764 28.5914 48.6989 28.5533 48.6989 28.4619V28.3857C48.6989 28.3248 48.6989 28.2943 48.6989 28.279C48.6989 28.2638 48.6538 28.279 48.6012 28.279C48.3905 28.3626 48.1658 28.404 47.9395 28.4009C47.3832 28.4009 47.1275 28.1495 47.1275 27.5857V26.8238C47.1275 26.2219 47.3756 25.9552 47.9245 25.9552C48.1459 25.9516 48.3658 25.9931 48.5711 26.0771C48.6162 26.0771 48.6463 26.0771 48.6689 26.0771C48.6763 26.0604 48.6802 26.0422 48.6802 26.0238C48.6802 26.0054 48.6763 25.9872 48.6689 25.9705V25.9095C48.6689 25.8257 48.6689 25.78 48.5335 25.7343C48.3303 25.6647 48.1162 25.6337 47.9019 25.6429L47.9095 25.6505Z" fill="#009EDB"/>
<path d="M49.1875 25.6429C49.1875 25.5133 49.1875 25.4905 49.3304 25.4905H49.383C49.5033 25.4905 49.5258 25.4905 49.5258 25.6429V26.7171C49.6131 26.6027 49.7285 26.5136 49.8605 26.4588C49.9924 26.404 50.1364 26.3853 50.2777 26.4048C50.8116 26.4048 51.1274 26.6333 51.1274 27.1667V28.5381C51.1274 28.66 51.1273 28.6829 50.9845 28.6829H50.9243C50.804 28.6829 50.7815 28.6829 50.7815 28.5381V27.22C50.7815 26.8543 50.6236 26.6943 50.195 26.6943C49.7665 26.6943 49.5634 26.8695 49.5634 27.2962V28.5533C49.5634 28.6752 49.5634 28.6981 49.4206 28.6981H49.368C49.2552 28.6981 49.2251 28.6981 49.2251 28.5533L49.1875 25.6429Z" fill="#009EDB"/>
<path d="M50.947 28.6905H50.8868C50.7665 28.6905 50.744 28.6905 50.744 28.5381V27.2201C50.744 26.8467 50.5711 26.702 50.1575 26.702C49.744 26.702 49.5335 26.8772 49.5335 27.2962V28.5534C49.5335 28.6753 49.5335 28.7058 49.3831 28.7058H49.3305C49.2102 28.7058 49.1801 28.7058 49.1801 28.5534V25.6429C49.1801 25.5058 49.1801 25.4829 49.3305 25.4829H49.3831C49.5034 25.4829 49.5335 25.4829 49.5335 25.6429V26.702C49.6215 26.5889 49.7373 26.5013 49.8692 26.4478C50.0012 26.3943 50.1447 26.3769 50.2853 26.3972C50.8492 26.3972 51.135 26.6715 51.135 27.2201V28.5915C51.1274 28.6905 51.0748 28.6905 50.947 28.6905ZM50.1575 26.6715C50.5786 26.6715 50.7515 26.8315 50.7515 27.2048V28.5381C50.7515 28.6601 50.7515 28.6753 50.8868 28.6753H50.947C51.0673 28.6753 51.0898 28.6753 51.0898 28.5381V27.1667C51.0898 26.6258 50.8041 26.3591 50.2477 26.3591C50.1061 26.3327 49.9599 26.3481 49.8266 26.4035C49.6933 26.4589 49.5785 26.5519 49.4959 26.6715V25.6429C49.4959 25.521 49.4959 25.4981 49.3605 25.4981H49.3079C49.1951 25.4981 49.165 25.4981 49.165 25.6429V28.5915C49.165 28.7134 49.165 28.7286 49.3079 28.7286H49.3605C49.4808 28.7286 49.4959 28.7286 49.4959 28.5915V27.2962C49.5184 26.8696 49.7139 26.6867 50.1575 26.6867V26.6715Z" fill="#009EDB"/>
<path d="M51.5791 27.7686V27.3419C51.5791 26.6943 51.9175 26.3667 52.5866 26.3667C53.2558 26.3667 53.5866 26.7019 53.5866 27.3419V27.7686C53.5866 28.4238 53.2558 28.7438 52.5866 28.7438C51.9175 28.7438 51.5791 28.4086 51.5791 27.7686ZM53.2408 27.3419C53.2408 26.8924 53.0829 26.6943 52.5866 26.6943C52.0904 26.6943 51.925 26.8924 51.925 27.3419V27.7686C51.925 28.2181 52.0904 28.4162 52.5866 28.4162C53.0829 28.4162 53.2408 28.2181 53.2408 27.7686V27.3419Z" fill="#009EDB"/>
<path d="M52.5862 28.7514C51.8944 28.7514 51.5786 28.4391 51.5786 27.7686V27.3419C51.5657 27.2044 51.5811 27.0657 51.6238 26.9346C51.6665 26.8034 51.7356 26.6827 51.8268 26.58C52.0382 26.4057 52.3067 26.3187 52.5786 26.3362C53.2629 26.3362 53.5787 26.6486 53.5787 27.3191V27.7457C53.599 27.8825 53.5874 28.0223 53.5447 28.1537C53.502 28.2852 53.4295 28.4046 53.3329 28.5025C53.2364 28.6003 53.1185 28.6738 52.9888 28.717C52.8591 28.7603 52.7212 28.7721 52.5862 28.7514ZM52.5862 26.3743C52.3149 26.3523 52.0457 26.4369 51.8343 26.6105C51.7416 26.7121 51.6714 26.8327 51.6286 26.9641C51.5858 27.0956 51.5713 27.2348 51.5862 27.3724V27.7991C51.5862 28.4619 51.902 28.7667 52.5862 28.7667C52.8577 28.7911 53.1278 28.7062 53.338 28.5305C53.4308 28.4289 53.5009 28.3083 53.5437 28.1768C53.5865 28.0454 53.601 27.9062 53.5862 27.7686V27.3419C53.5786 26.6791 53.2629 26.4048 52.5862 26.4048V26.3743ZM52.5862 28.4238C52.105 28.4238 51.917 28.241 51.917 27.7686V27.3419C51.917 26.8695 52.0974 26.6867 52.5862 26.6867C53.0749 26.6867 53.2478 26.8695 53.2478 27.3419V27.7686C53.2478 28.2486 53.0674 28.4238 52.5862 28.4238ZM52.5862 26.7019C52.105 26.7019 51.932 26.8695 51.932 27.3419V27.7686C51.932 28.2333 52.1125 28.4086 52.5862 28.4086C53.0599 28.4086 53.2403 28.241 53.2403 27.7686V27.3419C53.2403 26.8695 53.0599 26.7019 52.5862 26.7019Z" fill="#009EDB"/>
<path d="M55.248 27.3267C55.248 26.7172 55.5713 26.3667 56.2706 26.3667C56.406 26.3622 56.541 26.3829 56.6691 26.4276C56.7819 26.4276 56.812 26.4962 56.812 26.6029V26.6486C56.812 26.7629 56.812 26.801 56.6691 26.7629C56.5441 26.7155 56.4115 26.6922 56.2781 26.6943C55.7668 26.6943 55.5939 26.9 55.5939 27.3343V27.7838C55.5939 28.2486 55.7969 28.4162 56.3458 28.4162C56.4837 28.4212 56.6213 28.4006 56.7518 28.3552C56.8571 28.3172 56.8871 28.3552 56.8871 28.4695V28.5152C56.8871 28.6143 56.8871 28.6524 56.7443 28.6829C56.6059 28.7276 56.4609 28.7482 56.3157 28.7438C55.6165 28.7438 55.2856 28.4391 55.2856 27.7838L55.248 27.3267Z" fill="#009EDB"/>
<path d="M56.2777 28.7514C56.0072 28.7675 55.74 28.6835 55.5259 28.5152C55.4314 28.4146 55.3596 28.2943 55.3154 28.1627C55.2713 28.0312 55.2559 27.8915 55.2702 27.7533V27.2962C55.262 27.1666 55.2806 27.0367 55.3246 26.9147C55.3686 26.7927 55.4371 26.6813 55.5259 26.5876C55.7331 26.4044 56.0032 26.3113 56.2777 26.3286C56.4129 26.3273 56.5474 26.3479 56.6762 26.3895C56.7965 26.3895 56.8191 26.4657 56.8191 26.5724V26.6181C56.8191 26.6867 56.8191 26.7248 56.8191 26.74C56.8017 26.7493 56.7824 26.7542 56.7627 26.7542C56.743 26.7542 56.7237 26.7493 56.7063 26.74C56.5798 26.6995 56.448 26.6789 56.3153 26.679C55.8266 26.679 55.6311 26.8619 55.6311 27.3114V27.761C55.6311 28.2181 55.8266 28.3857 56.383 28.3857C56.5209 28.3914 56.6587 28.3708 56.789 28.3248C56.8416 28.3248 56.8717 28.3248 56.8943 28.3248C56.9168 28.3248 56.9319 28.3781 56.9319 28.4467V28.4924C56.9319 28.5991 56.9319 28.6371 56.7815 28.6676C56.6199 28.7258 56.4492 28.7542 56.2777 28.7514ZM56.2777 26.3743C55.6086 26.3743 55.2627 26.7019 55.2627 27.3267V27.7838C55.2627 28.439 55.586 28.7362 56.2853 28.7362C56.4299 28.7394 56.5742 28.7214 56.7138 28.6829C56.8266 28.6829 56.8567 28.6143 56.8567 28.5152V28.4695C56.8567 28.4086 56.8567 28.3705 56.8567 28.3552C56.8567 28.34 56.804 28.3552 56.7589 28.3552C56.625 28.3969 56.4855 28.4174 56.3454 28.4162C55.8266 28.4162 55.5935 28.2333 55.5935 27.7762V27.3267C55.5935 26.8695 55.7965 26.679 56.2853 26.679C56.4186 26.6777 56.5511 26.7009 56.6762 26.7476C56.7289 26.7476 56.7589 26.7476 56.7815 26.7476C56.804 26.7476 56.7815 26.6943 56.7815 26.6333V26.5876C56.7815 26.4886 56.7815 26.4505 56.6462 26.4124C56.5219 26.3915 56.3952 26.3889 56.2702 26.4048L56.2777 26.3743Z" fill="#009EDB"/>
<path d="M57.5185 27.8752C57.5185 28.2409 57.6689 28.4162 58.1275 28.4162C58.5862 28.4162 58.7366 28.2485 58.7366 27.8752V26.5571C58.7366 26.4428 58.7366 26.4124 58.8869 26.4124H58.932C59.0599 26.4124 59.0824 26.4124 59.0824 26.5571V27.8752C59.0824 28.439 58.8042 28.7438 58.1275 28.7438C57.4508 28.7438 57.1426 28.4543 57.1426 27.8752V26.5571C57.1426 26.4428 57.1426 26.4124 57.293 26.4124H57.3381C57.4659 26.4124 57.4884 26.4124 57.4884 26.5571L57.5185 27.8752Z" fill="#009EDB"/>
<path d="M58.1277 28.7515C57.4962 28.7515 57.1729 28.4543 57.1729 27.8753V26.5572C57.1729 26.4429 57.1729 26.4048 57.3157 26.4048H57.3683C57.4962 26.4048 57.5187 26.4048 57.5187 26.5572V27.8753C57.5187 28.2638 57.6916 28.4086 58.1277 28.4086C58.5638 28.4086 58.7292 28.2638 58.7292 27.8753V26.5572C58.7292 26.4429 58.7292 26.4048 58.8871 26.4048H58.9322C59.0676 26.4048 59.0826 26.4048 59.0826 26.5572V27.8753C59.0933 27.9927 59.0794 28.1111 59.0418 28.2226C59.0042 28.3342 58.9438 28.4365 58.8646 28.5229C58.6567 28.6914 58.3931 28.7731 58.1277 28.7515ZM57.3157 26.4048C57.2104 26.4048 57.1804 26.4048 57.1804 26.5419V27.86C57.1702 27.9787 57.1858 28.0981 57.226 28.21C57.2663 28.3219 57.3303 28.4235 57.4135 28.5076C57.6271 28.6752 57.8969 28.7518 58.1653 28.721C58.2988 28.736 58.434 28.7242 58.563 28.6863C58.692 28.6484 58.8123 28.5851 58.9172 28.5C58.9967 28.4154 59.0573 28.3145 59.0949 28.204C59.1325 28.0936 59.1463 27.9763 59.1353 27.86V26.5572C59.1353 26.4505 59.1353 26.42 58.9924 26.42H58.9473C58.8345 26.42 58.8044 26.42 58.8044 26.5572V27.8753C58.8044 28.2715 58.6315 28.4238 58.1879 28.4238C57.7443 28.4238 57.5713 28.2715 57.5713 27.8753V26.5572C57.5713 26.4505 57.5713 26.42 57.4285 26.42L57.3157 26.4048Z" fill="#009EDB"/>
<path d="M59.541 27.7686V27.3419C59.541 26.6943 59.8718 26.3667 60.5485 26.3667C61.2252 26.3667 61.541 26.7019 61.541 27.3419V27.7686C61.541 28.4238 61.2102 28.7438 60.5485 28.7438C59.8869 28.7438 59.541 28.4086 59.541 27.7686ZM61.2027 27.3419C61.2027 26.8924 61.0448 26.6943 60.5485 26.6943C60.0523 26.6943 59.8794 26.8924 59.8794 27.3419V27.7686C59.8794 28.2181 60.0523 28.4162 60.5485 28.4162C61.0448 28.4162 61.2027 28.2181 61.2027 27.7686V27.3419ZM60.2252 25.7571C60.3305 25.5895 60.3982 25.5286 60.5485 25.5286C60.6989 25.5286 60.7591 25.5743 60.8718 25.7571L61.0448 26.0314C61.0974 26.1152 61.0448 26.1381 60.9846 26.1381C60.946 26.1445 60.9064 26.1374 60.8722 26.118C60.8381 26.0987 60.8115 26.0681 60.7967 26.0314L60.6914 25.8486C60.6237 25.719 60.5485 25.719 60.4733 25.8486L60.3756 26.0314C60.3598 26.0673 60.3329 26.0971 60.299 26.1163C60.2652 26.1355 60.2261 26.1432 60.1876 26.1381H60.1425C60.0523 26.1381 60.0373 26.1381 60.0899 26.0314L60.2252 25.7571ZM60.3906 29.1552C60.4224 29.1239 60.4626 29.1027 60.5062 29.0944C60.5498 29.0861 60.5948 29.091 60.6357 29.1085C60.6765 29.1259 60.7114 29.1552 60.7359 29.1927C60.7604 29.2302 60.7735 29.2741 60.7735 29.319C60.7735 29.364 60.7604 29.4079 60.7359 29.4454C60.7114 29.4828 60.6765 29.5121 60.6357 29.5296C60.5948 29.5471 60.5498 29.552 60.5062 29.5437C60.4626 29.5353 60.4224 29.5142 60.3906 29.4829C60.369 29.4616 60.3519 29.4361 60.3401 29.4079C60.3284 29.3798 60.3224 29.3496 60.3224 29.319C60.3224 29.2885 60.3284 29.2583 60.3401 29.2301C60.3519 29.202 60.369 29.1765 60.3906 29.1552Z" fill="#009EDB"/>
<path d="M60.5491 29.5514C60.4898 29.5495 60.4335 29.5248 60.3916 29.4823C60.3497 29.4399 60.3254 29.3828 60.3235 29.3228C60.3224 29.2916 60.3279 29.2605 60.3396 29.2316C60.3513 29.2027 60.3688 29.1767 60.3912 29.1552C60.4109 29.1327 60.4353 29.115 60.4626 29.1031C60.4899 29.0913 60.5194 29.0856 60.5491 29.0866C60.6109 29.0866 60.6702 29.1115 60.7139 29.1558C60.7576 29.2001 60.7821 29.2602 60.7821 29.3228C60.7831 29.3529 60.7775 29.3828 60.7658 29.4104C60.7541 29.4381 60.7366 29.4628 60.7145 29.4828C60.6927 29.5047 60.6669 29.522 60.6385 29.5338C60.6101 29.5456 60.5797 29.5515 60.5491 29.5514ZM60.5491 29.0942C60.5195 29.0942 60.4903 29.1003 60.4632 29.1121C60.436 29.1239 60.4115 29.1411 60.3912 29.1628C60.3514 29.2062 60.3298 29.2636 60.331 29.3228C60.3313 29.3817 60.3532 29.4381 60.3916 29.4823C60.4347 29.5225 60.4906 29.5452 60.5491 29.5452C60.6076 29.5452 60.6639 29.523 60.7069 29.4828C60.7283 29.4622 60.7454 29.4373 60.757 29.4098C60.7686 29.3823 60.7746 29.3527 60.7746 29.3228C60.7727 29.2628 60.7484 29.2057 60.7065 29.1633C60.6646 29.1208 60.6083 29.0961 60.5491 29.0942ZM60.5491 28.7514C59.8573 28.7514 59.534 28.439 59.534 27.7685V27.3418C59.5221 27.2038 59.5387 27.0648 59.5827 26.9336C59.6267 26.8025 59.6972 26.682 59.7897 26.5799C60.0003 26.4043 60.2694 26.3171 60.5415 26.3361C61.2257 26.3361 61.5415 26.6485 61.5415 27.319V27.7457C61.5619 27.8825 61.5503 28.0222 61.5076 28.1537C61.4649 28.2851 61.3924 28.4045 61.2958 28.5024C61.1993 28.6002 61.0814 28.6737 60.9517 28.717C60.822 28.7602 60.6841 28.772 60.5491 28.7514ZM60.5491 26.3742C60.2776 26.3506 60.0078 26.4354 59.7972 26.6104C59.7044 26.712 59.6343 26.8326 59.5915 26.9641C59.5487 27.0955 59.5342 27.2347 59.5491 27.3723V27.799C59.5491 28.4618 59.8648 28.7666 60.5491 28.7666C60.8204 28.7894 61.0899 28.7047 61.3009 28.5304C61.3937 28.4288 61.4638 28.3082 61.5066 28.1768C61.5494 28.0453 61.5639 27.9061 61.5491 27.7685V27.3418C61.5415 26.679 61.2257 26.4047 60.5491 26.4047V26.3742ZM60.5491 28.4238C60.0678 28.4238 59.8799 28.2409 59.8799 27.7685V27.3418C59.8799 26.8695 60.0603 26.6866 60.5491 26.6866C61.0378 26.6866 61.2032 26.8695 61.2032 27.3418V27.7685C61.2032 28.2485 61.0303 28.4238 60.5491 28.4238ZM60.5491 26.7018C60.0678 26.7018 59.8874 26.8695 59.8874 27.3418V27.7685C59.8874 28.2333 60.0754 28.4085 60.5491 28.4085C61.0227 28.4085 61.1957 28.2409 61.1957 27.7685V27.3418C61.1957 26.8695 61.0227 26.7018 60.5491 26.7018ZM60.9851 26.1457C60.9456 26.1515 60.9053 26.1434 60.871 26.1225C60.8367 26.1017 60.8106 26.0695 60.7972 26.0314L60.6919 25.8561C60.6919 25.7876 60.6167 25.7571 60.5866 25.7571C60.5866 25.7571 60.5115 25.7571 60.4814 25.8561L60.3761 26.0314C60.3626 26.0695 60.3366 26.1017 60.3023 26.1225C60.268 26.1434 60.2277 26.1515 60.1882 26.1457H60.143C60.0904 26.1457 60.0678 26.1457 60.0603 26.1457C60.0528 26.1457 60.0603 26.0999 60.0603 26.0618L60.2333 25.7876C60.346 25.6199 60.4062 25.559 60.5641 25.559C60.722 25.559 60.7746 25.6047 60.8874 25.7876L61.0603 26.0618C61.0603 26.0999 61.1054 26.1304 61.0603 26.1457C61.0152 26.1609 61.0378 26.1457 60.9851 26.1457ZM60.5491 25.7495C60.5491 25.7495 60.6242 25.7495 60.6618 25.8485L60.7671 26.0314C60.7805 26.0675 60.8057 26.0978 60.8386 26.1172C60.8715 26.1367 60.91 26.144 60.9475 26.138C61.0002 26.138 61.0227 26.138 61.0303 26.138C61.0378 26.138 61.0303 26.138 61.0303 26.0618L60.9024 25.7647C60.7972 25.5818 60.7295 25.5361 60.5866 25.5361C60.4438 25.5361 60.3761 25.5895 60.2633 25.7647L60.0904 26.039C60.0904 26.039 60.0904 26.0999 60.0904 26.1152C60.0904 26.1304 60.0904 26.1152 60.1656 26.1152H60.1506C60.1878 26.1186 60.2252 26.1101 60.2576 26.091C60.2899 26.0719 60.3156 26.0431 60.331 26.0085L60.4363 25.8257C60.4739 25.7799 60.5115 25.7495 60.5491 25.7495Z" fill="#009EDB"/>
<path d="M61.9854 27.3267C61.9854 26.7172 62.3087 26.3667 63.0079 26.3667C63.1433 26.3622 63.2783 26.3829 63.4064 26.4276C63.5192 26.4276 63.5493 26.4962 63.5493 26.6029V26.6486C63.5493 26.7629 63.5493 26.801 63.4064 26.7629C63.2816 26.7147 63.1489 26.6915 63.0154 26.6943C62.5041 26.6943 62.3312 26.9 62.3312 27.3343V27.7838C62.3312 28.2486 62.5342 28.4162 63.0455 28.4162C63.1858 28.4206 63.3258 28.4 63.459 28.3552C63.5643 28.3172 63.5944 28.3552 63.5944 28.4695V28.5152C63.5944 28.6143 63.5944 28.6524 63.444 28.6829C63.3082 28.7276 63.1657 28.7482 63.0229 28.7438C62.3162 28.7438 61.9854 28.4391 61.9854 27.7838V27.3267Z" fill="#009EDB"/>
<path d="M63.0228 28.7514C62.7519 28.7703 62.4838 28.6861 62.271 28.5152C62.1747 28.4158 62.1018 28.2957 62.0576 28.1638C62.0133 28.0319 61.9989 27.8916 62.0153 27.7533V27.2962C62.0062 27.1671 62.0235 27.0375 62.0662 26.9156C62.1089 26.7936 62.1761 26.682 62.2634 26.5876C62.4707 26.4044 62.7408 26.3113 63.0153 26.3286C63.1529 26.3279 63.2899 26.3484 63.4213 26.3895C63.5341 26.3895 63.5567 26.4657 63.5567 26.5724V26.6181C63.5567 26.6867 63.5567 26.7248 63.5567 26.74C63.5393 26.7493 63.52 26.7542 63.5003 26.7542C63.4806 26.7542 63.4613 26.7493 63.4439 26.74C63.3174 26.6995 63.1856 26.6789 63.0529 26.679C62.5717 26.679 62.3687 26.8619 62.3687 27.3114V27.761C62.3687 28.2181 62.5642 28.3857 63.083 28.3857C63.2209 28.3914 63.3587 28.3708 63.489 28.3248C63.5068 28.317 63.526 28.313 63.5454 28.313C63.5648 28.313 63.584 28.317 63.6018 28.3248C63.6018 28.3248 63.6018 28.3781 63.6018 28.4467V28.4924C63.6018 28.5991 63.6018 28.6371 63.4589 28.6676C63.3185 28.7173 63.1715 28.7455 63.0228 28.7514ZM63.0228 26.3743C62.3612 26.3743 62.0078 26.7019 62.0078 27.3267V27.7838C62.0078 28.439 62.3311 28.7362 63.0379 28.7362C63.18 28.7387 63.3218 28.7207 63.4589 28.6829C63.5717 28.6829 63.6018 28.6143 63.6018 28.5152V28.4695C63.6018 28.4086 63.6018 28.3705 63.6018 28.3552C63.6018 28.34 63.5492 28.3552 63.5041 28.3552C63.3701 28.3969 63.2306 28.4174 63.0905 28.4162C62.5717 28.4162 62.3386 28.2333 62.3386 27.7762V27.3267C62.3386 26.8695 62.5416 26.679 63.0304 26.679C63.1662 26.6776 63.3011 26.7008 63.4289 26.7476C63.4815 26.7476 63.5116 26.7476 63.5266 26.7476C63.5416 26.7476 63.5266 26.6943 63.5266 26.6333V26.5876C63.5266 26.4886 63.5266 26.4505 63.3913 26.4124C63.2646 26.3903 63.1353 26.3877 63.0078 26.4048L63.0228 26.3743Z" fill="#009EDB"/>
<path d="M65.1055 28.4467C65.1055 28.3324 65.1055 28.302 65.2558 28.3248C65.4733 28.3892 65.6985 28.4225 65.925 28.4239C66.2784 28.4239 66.4213 28.3553 66.4213 28.1572C66.4213 27.9591 66.3461 27.9286 66.128 27.822L65.5716 27.5553C65.2784 27.4105 65.1431 27.2734 65.1431 26.9534C65.1431 26.6334 65.4137 26.4048 65.9551 26.4048C66.1486 26.4037 66.3412 26.432 66.5265 26.4886C66.6318 26.4886 66.6619 26.5572 66.6619 26.6639V26.7096C66.6619 26.8239 66.6619 26.8467 66.519 26.8162C66.3342 26.7575 66.1412 26.7292 65.9476 26.7324C65.6092 26.7324 65.4814 26.801 65.4814 26.9915C65.4814 27.182 65.5641 27.2201 65.722 27.2962L66.3085 27.5629C66.6168 27.7153 66.7671 27.8524 66.7671 28.1877C66.7671 28.5229 66.4889 28.782 65.9025 28.782C65.6841 28.7847 65.4665 28.7564 65.2558 28.6981C65.1355 28.6601 65.1055 28.622 65.1055 28.5229V28.4467Z" fill="#009EDB"/>
<path d="M65.9025 28.7514C65.6813 28.7521 65.4611 28.7213 65.2483 28.66C65.1355 28.66 65.1055 28.5914 65.1055 28.4848C65.1055 28.4238 65.1055 28.3857 65.1055 28.3705C65.1055 28.3553 65.1656 28.3705 65.2258 28.3705C65.4438 28.4313 65.6688 28.462 65.8949 28.4619C66.2558 28.4619 66.3912 28.3933 66.3912 28.2029C66.3912 28.0124 66.3235 27.9819 66.098 27.8753L65.534 27.601C65.2559 27.4638 65.1055 27.3267 65.1055 26.9991C65.1055 26.6714 65.3686 26.4048 65.925 26.4048C66.1193 26.401 66.3128 26.432 66.4965 26.4962C66.6092 26.4962 66.6393 26.5648 66.6393 26.6714V26.7172C66.6532 26.754 66.6532 26.7946 66.6393 26.8314C66.6008 26.8475 66.5575 26.8475 66.519 26.8314C66.3376 26.7685 66.1468 26.7376 65.9551 26.74C65.6243 26.74 65.4964 26.8162 65.4964 26.9991C65.5001 27.067 65.5244 27.1321 65.5662 27.1853C65.608 27.2386 65.665 27.2773 65.7295 27.2962L66.316 27.5705C66.6167 27.7076 66.7746 27.8524 66.7746 28.1953C66.7746 28.5381 66.4889 28.7514 65.9025 28.7514ZM65.1506 28.3248H65.1055C65.1055 28.3248 65.1055 28.3781 65.1055 28.4314C65.1055 28.5305 65.1055 28.5686 65.2483 28.5991C65.4587 28.6586 65.6765 28.6868 65.8949 28.6829C66.4889 28.6829 66.7521 28.5076 66.7521 28.0962C66.7521 27.6848 66.5942 27.6162 66.301 27.4791L65.7145 27.2048C65.6466 27.1872 65.586 27.1481 65.5414 27.0934C65.4968 27.0386 65.4706 26.9709 65.4664 26.9C65.4664 26.7095 65.6017 26.6333 65.9401 26.6333C66.1342 26.6315 66.3273 26.6624 66.5115 26.7248C66.5641 26.7248 66.5942 26.7248 66.6167 26.7248C66.6238 26.7079 66.6274 26.6898 66.6274 26.6714C66.6274 26.6531 66.6238 26.635 66.6167 26.6181V26.5724C66.6167 26.4657 66.6167 26.4429 66.4814 26.4048C66.2969 26.3444 66.1038 26.3161 65.91 26.321C65.3611 26.321 65.1055 26.5038 65.1055 26.9C65.1055 27.2962 65.2483 27.3572 65.5265 27.4943L66.0829 27.7686C66.3085 27.8753 66.3837 27.9591 66.3837 28.1038C66.3837 28.2486 66.2483 28.3705 65.8799 28.3705C65.6514 28.3701 65.4239 28.3394 65.2032 28.2791L65.1506 28.3248Z" fill="#009EDB"/>
<path d="M67.2031 27.7686V27.342C67.2031 26.6943 67.5415 26.3667 68.2106 26.3667C68.8798 26.3667 69.2106 26.702 69.2106 27.342V27.7686C69.2106 28.4239 68.8798 28.7439 68.2106 28.7439C67.5415 28.7439 67.2031 28.4086 67.2031 27.7686ZM68.8648 27.342C68.8648 26.8924 68.7144 26.6943 68.2106 26.6943C67.7069 26.6943 67.549 26.8924 67.549 27.342V27.7686C67.549 28.2182 67.7144 28.4162 68.2106 28.4162C68.7069 28.4162 68.8648 28.2182 68.8648 27.7686V27.342ZM67.8873 25.7572C68.0001 25.5896 68.0603 25.5286 68.2106 25.5286C68.361 25.5286 68.4287 25.5743 68.534 25.7572L68.7144 26.0315C68.767 26.1153 68.7144 26.1382 68.6543 26.1382C68.6156 26.1445 68.576 26.1375 68.5419 26.1181C68.5077 26.0987 68.4811 26.0682 68.4663 26.0315L68.361 25.8486C68.2858 25.7191 68.2106 25.7191 68.143 25.8486L68.0377 26.0315C67.9926 26.1229 67.9475 26.1382 67.8497 26.1382C67.752 26.1382 67.737 26.1381 67.7896 26.0315L67.8873 25.7572ZM69.0527 25.4829C69.0339 25.518 69.0054 25.5468 68.9707 25.5657C68.936 25.5847 68.8966 25.593 68.8573 25.5896H68.8121C68.7069 25.5896 68.6918 25.5896 68.7445 25.4753L68.9325 25.102C68.9493 25.0551 68.9819 25.0157 69.0245 24.9906C69.0671 24.9656 69.117 24.9564 69.1655 24.9648H69.2106C69.3309 24.9648 69.3535 24.9648 69.2858 25.0943L69.0527 25.4829Z" fill="#009EDB"/>
<path d="M68.2102 28.7514C67.526 28.7514 67.2027 28.4391 67.2027 27.7686V27.3419C67.1898 27.2044 67.2051 27.0657 67.2479 26.9346C67.2906 26.8034 67.3597 26.6827 67.4508 26.58C67.6629 26.4071 67.9309 26.3202 68.2027 26.3362C68.8869 26.3362 69.2102 26.6486 69.2102 27.3191V27.7457C69.2177 28.4238 68.8794 28.7514 68.2102 28.7514ZM68.2102 26.3743C67.9389 26.3523 67.6697 26.4369 67.4583 26.6105C67.3656 26.7121 67.2955 26.8327 67.2527 26.9641C67.2098 27.0956 67.1954 27.2348 67.2102 27.3724V27.7991C67.2102 28.4619 67.526 28.7667 68.2102 28.7667C68.4817 28.7911 68.7518 28.7062 68.9621 28.5305C69.0548 28.4289 69.1249 28.3083 69.1677 28.1768C69.2105 28.0454 69.225 27.9062 69.2102 27.7686V27.3419C69.1726 26.6791 68.8869 26.4048 68.2102 26.4048V26.3743ZM68.2102 28.4238C67.729 28.4238 67.541 28.241 67.541 27.7686V27.3419C67.541 26.8695 67.7215 26.6867 68.2102 26.6867C68.6989 26.6867 68.8718 26.8695 68.8718 27.3419V27.7686C68.8718 28.2486 68.6914 28.4238 68.2102 28.4238ZM68.2102 26.7019C67.729 26.7019 67.5561 26.8695 67.5561 27.3419V27.7686C67.5561 28.2333 67.7365 28.4086 68.2102 28.4086C68.6839 28.4086 68.8643 28.241 68.8643 27.7686V27.3419C68.8643 26.8695 68.6839 26.7019 68.2102 26.7019ZM68.6538 26.1457C68.6132 26.152 68.5718 26.1441 68.5362 26.1234C68.5007 26.1026 68.4732 26.0702 68.4583 26.0314L68.3531 25.8562C68.2854 25.7267 68.2177 25.7267 68.1425 25.8562L68.0448 26.0314C68.0299 26.0702 68.0024 26.1026 67.9668 26.1234C67.9313 26.1441 67.8898 26.152 67.8493 26.1457C67.7967 26.1457 67.7666 26.1457 67.7591 26.1457C67.7515 26.1457 67.7591 26.1 67.7591 26.0619L67.932 25.7876C68.0373 25.62 68.1049 25.5591 68.2553 25.5591C68.4057 25.5591 68.4734 25.6048 68.5861 25.7876L68.7591 26.0619C68.7591 26.1 68.7591 26.1305 68.7591 26.1457C68.7591 26.161 68.7064 26.1457 68.6538 26.1457ZM68.2102 25.7495C68.2102 25.7495 68.2854 25.7495 68.323 25.8486L68.4282 26.0314C68.4441 26.0673 68.4709 26.0971 68.5048 26.1163C68.5387 26.1355 68.5777 26.1432 68.6162 26.1381C68.6613 26.1381 68.6914 26.1381 68.6989 26.1381C68.7064 26.1381 68.6989 26.1381 68.6989 26.0619L68.526 25.7876C68.4132 25.6048 68.353 25.5591 68.2027 25.5591C68.0523 25.5591 67.9921 25.6124 67.8869 25.7876L67.7139 26.0619C67.7139 26.0619 67.7139 26.1229 67.7139 26.1381C67.7139 26.1533 67.714 26.1381 67.7967 26.1381C67.835 26.142 67.8736 26.1338 67.9072 26.1148C67.9408 26.0957 67.9679 26.0666 67.9846 26.0314L68.0824 25.8486C68.135 25.78 68.1726 25.7495 68.2102 25.7495ZM68.8568 25.5971H68.8117C68.7515 25.5971 68.7215 25.5971 68.714 25.5971C68.7018 25.5653 68.7018 25.53 68.714 25.4981L68.9094 25.1248C68.9147 25.0956 68.9258 25.0679 68.9422 25.0433C68.9586 25.0188 68.9798 24.998 69.0046 24.9822C69.0293 24.9664 69.057 24.956 69.086 24.9517C69.1149 24.9474 69.1444 24.9493 69.1726 24.9571H69.2177C69.2854 24.9571 69.323 24.9571 69.3305 24.9571C69.338 24.9571 69.3305 25.0105 69.3305 25.0714L69.1049 25.4524C69.0854 25.501 69.0503 25.5417 69.0054 25.5679C68.9604 25.5941 68.9082 25.6044 68.8568 25.5971ZM69.1651 24.9648C69.1177 24.9583 69.0696 24.9683 69.0286 24.9932C68.9876 25.0182 68.9562 25.0565 68.9395 25.1019L68.744 25.4752C68.744 25.5286 68.744 25.5514 68.744 25.5667C68.744 25.5819 68.744 25.5667 68.8343 25.5667H68.8794C68.9191 25.5675 68.9584 25.5573 68.9928 25.5372C69.0273 25.517 69.0557 25.4877 69.0749 25.4524L69.3004 25.0714C69.3004 25.0181 69.3455 24.9876 69.3004 24.9724C69.2553 24.9571 69.2553 24.9724 69.1952 24.9724L69.1651 24.9648Z" fill="#009EDB"/>
<path d="M70.0373 28.5534C70.0373 28.6753 70.0373 28.6981 69.8944 28.6981H69.8418C69.729 28.6981 69.6914 28.6981 69.6914 28.5534V27.2353C69.6914 26.6562 70.0147 26.3667 70.6538 26.3667C71.2929 26.3667 71.6012 26.6715 71.6012 27.2353V28.5534C71.6012 28.6753 71.6012 28.6981 71.4583 28.6981H71.4282C71.3004 28.6981 71.2779 28.6981 71.2779 28.5534V27.2353C71.2779 26.8619 71.135 26.6943 70.6764 26.6943C70.2177 26.6943 70.0598 26.8696 70.0598 27.2353L70.0373 28.5534Z" fill="#009EDB"/>
<path d="M71.429 28.6905C71.3011 28.6905 71.2711 28.6905 71.2711 28.5381V27.2353C71.2711 26.8467 71.1132 26.7019 70.6771 26.7019C70.241 26.7019 70.0681 26.8467 70.0681 27.2353V28.5534C70.0681 28.6753 70.0681 28.7057 69.9177 28.7057H69.8651C69.7523 28.7057 69.7147 28.7057 69.7147 28.5534V27.2353C69.7147 26.6562 70.038 26.3591 70.6771 26.3591C70.8111 26.3451 70.9465 26.3581 71.0755 26.3973C71.2046 26.4366 71.3247 26.5012 71.429 26.5876C71.5092 26.6736 71.5707 26.7757 71.6095 26.8872C71.6484 26.9988 71.6637 27.1173 71.6545 27.2353V28.5534C71.6094 28.6905 71.5869 28.6905 71.429 28.6905ZM70.6771 26.6867C71.1207 26.6867 71.2861 26.8391 71.2861 27.2353V28.5534C71.2861 28.6753 71.2861 28.6905 71.429 28.6905C71.5493 28.6905 71.5718 28.6905 71.5718 28.5534V27.2353C71.5814 27.1185 71.5662 27.0009 71.5273 26.8906C71.4884 26.7802 71.4267 26.6795 71.3463 26.5953C71.1529 26.4527 70.9154 26.3852 70.6771 26.4048C70.4086 26.374 70.1389 26.4505 69.9252 26.6181C69.8415 26.7022 69.7767 26.8036 69.7352 26.9153C69.6937 27.0271 69.6764 27.1466 69.6846 27.2657V28.5838C69.6846 28.7057 69.6846 28.721 69.8275 28.721H69.9252C70.0455 28.721 70.0681 28.721 70.0681 28.5838V27.2353C70.038 26.8391 70.2109 26.6867 70.6771 26.6867Z" fill="#009EDB"/>
<path d="M73.9775 27.2277C73.9775 27.761 73.6692 28.0353 73.0301 28.0353C72.8702 28.0175 72.7089 28.0175 72.5489 28.0353C72.5157 28.0409 72.4858 28.0588 72.4649 28.0856C72.4441 28.1124 72.4338 28.146 72.4361 28.18C72.4361 28.241 72.4361 28.2867 72.5564 28.3096C72.7141 28.322 72.8725 28.322 73.0301 28.3096C73.2889 28.2913 73.5479 28.3412 73.782 28.4543C73.8601 28.5087 73.9223 28.5834 73.962 28.6705C74.0017 28.7577 74.0174 28.8541 74.0076 28.9496C74.0179 29.0528 74.0027 29.157 73.9633 29.2528C73.9239 29.3485 73.8616 29.4329 73.782 29.4981C73.551 29.6216 73.2906 29.677 73.0301 29.6581C72.7698 29.6746 72.51 29.6193 72.2783 29.4981C72.2044 29.442 72.1456 29.3679 72.1075 29.2827C72.0694 29.1974 72.0531 29.1038 72.0602 29.0105C72.055 28.9115 72.0769 28.8129 72.1233 28.7255C72.1697 28.6382 72.2389 28.5654 72.3234 28.5153C72.2642 28.4912 72.2141 28.4487 72.1803 28.394C72.1465 28.3392 72.1308 28.275 72.1354 28.2105C72.1354 28.0048 72.2557 27.8829 72.5038 27.8448C72.3771 27.7899 72.2713 27.6949 72.2022 27.5741C72.1331 27.4533 72.1044 27.313 72.1204 27.1743V27.1667C72.1204 26.6639 72.4737 26.4048 73.0677 26.4048C73.2302 26.4013 73.3916 26.4324 73.5414 26.4962L73.8046 26.26C73.8798 26.1915 73.9174 26.1915 73.9925 26.26C74.0677 26.3286 74.0677 26.3667 73.9925 26.4429L73.7895 26.6562C73.8556 26.7243 73.907 26.8055 73.9406 26.8946C73.9743 26.9838 73.9894 27.079 73.985 27.1743L73.9775 27.2277ZM72.5865 28.6448C72.5177 28.6801 72.4604 28.7349 72.4217 28.8025C72.383 28.8701 72.3645 28.9477 72.3685 29.0258C72.3685 29.3305 72.5414 29.4067 73.0301 29.4067C73.5189 29.4067 73.6918 29.3305 73.6918 29.0181C73.6918 28.7058 73.5264 28.6753 73.0301 28.6753C72.8817 28.6762 72.7334 28.666 72.5865 28.6448ZM73.6316 27.1667C73.6316 26.8391 73.4286 26.6791 73.0301 26.6791C72.6316 26.6791 72.4211 26.8391 72.4211 27.1667V27.2277C72.4211 27.5553 72.5715 27.7229 73.0301 27.7229C73.4888 27.7229 73.6316 27.5553 73.6316 27.2277V27.1667Z" fill="#009EDB"/>
<path d="M73.0305 29.7115C72.7708 29.7314 72.5107 29.6787 72.2786 29.5591C72.2051 29.5008 72.1469 29.4253 72.1089 29.3389C72.0708 29.2526 72.0543 29.1582 72.0606 29.0638C72.0547 28.9664 72.0746 28.8691 72.1182 28.7821C72.1618 28.695 72.2276 28.6213 72.3087 28.5686C72.2516 28.5424 72.2038 28.4992 72.1715 28.4448C72.1393 28.3903 72.1242 28.3272 72.1283 28.2638C72.1283 28.0607 72.2486 27.9388 72.4892 27.8981C72.3646 27.841 72.2611 27.7453 72.1935 27.6249C72.126 27.5044 72.0979 27.3653 72.1132 27.2277V27.1667C72.1101 27.0547 72.1314 26.9434 72.1755 26.8406C72.2197 26.7379 72.2857 26.6463 72.3689 26.5724C72.5708 26.422 72.8177 26.3466 73.0681 26.3591C73.2306 26.3555 73.392 26.3867 73.5418 26.4505L73.8049 26.2219C73.8801 26.1457 73.9177 26.1457 73.9929 26.2219C74.038 26.26 74.0531 26.2829 74.0531 26.3134C74.0531 26.3438 74.0531 26.3667 73.9929 26.4124L73.7899 26.6181C73.8584 26.6847 73.912 26.7654 73.9471 26.8548C73.9821 26.9442 73.9977 27.0402 73.9929 27.1362V27.1972C73.9929 27.7305 73.6696 28.0048 73.038 28.0048C72.8781 27.9862 72.7167 27.9862 72.5568 28.0048C72.5263 28.0118 72.4992 28.0293 72.48 28.0543C72.4608 28.0793 72.4508 28.1103 72.4516 28.1419C72.4516 28.2029 72.4892 28.241 72.5643 28.2638C72.7219 28.2776 72.8804 28.2776 73.038 28.2638C73.3093 28.2388 73.5821 28.2888 73.8275 28.4086C73.9054 28.4627 73.9671 28.5376 74.0056 28.625C74.0441 28.7124 74.0579 28.8089 74.0455 28.9038C74.0586 29.0084 74.0447 29.1146 74.0052 29.2121C73.9656 29.3096 73.9018 29.395 73.82 29.46C73.5852 29.617 73.3117 29.7041 73.0305 29.7115ZM73.0305 26.3743C72.444 26.3743 72.0907 26.6715 72.0907 27.1362V27.1972C72.0753 27.3349 72.1034 27.4739 72.171 27.5944C72.2385 27.7149 72.342 27.8105 72.4666 27.8677C72.2185 27.9057 72.0982 28.02 72.0982 28.2257C72.0968 28.2896 72.1138 28.3524 72.1472 28.4066C72.1806 28.4607 72.2289 28.5038 72.2861 28.5305C72.2037 28.5804 72.1363 28.6522 72.0912 28.7382C72.0461 28.8241 72.0252 28.921 72.0305 29.0181C72.0246 29.1105 72.0406 29.2031 72.0772 29.2879C72.1138 29.3727 72.17 29.4475 72.241 29.5057C72.4745 29.6215 72.7335 29.674 72.9929 29.6581C73.2526 29.6777 73.5126 29.625 73.7448 29.5057C73.8244 29.4405 73.8867 29.3562 73.9261 29.2604C73.9654 29.1646 73.9807 29.0604 73.9704 28.9572C73.9813 28.8635 73.9667 28.7686 73.9283 28.6826C73.8899 28.5967 73.829 28.523 73.7523 28.4696C73.5182 28.3564 73.2592 28.3065 73.0004 28.3248C72.8405 28.3422 72.6792 28.3422 72.5192 28.3248C72.4886 28.3196 72.4607 28.3039 72.4402 28.2803C72.4197 28.2567 72.4077 28.2267 72.4064 28.1953C72.4041 28.1613 72.4144 28.1276 72.4352 28.1008C72.4561 28.074 72.486 28.0561 72.5192 28.0505C72.6791 28.0315 72.8406 28.0315 73.0004 28.0505C73.2663 28.0775 73.533 28.0072 73.7523 27.8524C73.8323 27.7755 73.8947 27.6818 73.935 27.5778C73.9753 27.4737 73.9925 27.362 73.9854 27.2505V27.1667C73.9906 27.0717 73.9752 26.9768 73.9401 26.8885C73.905 26.8003 73.8511 26.721 73.7824 26.6562L73.9854 26.4429C74.0305 26.4429 74.0455 26.3743 74.0455 26.3515C74.0431 26.3345 74.0371 26.3183 74.028 26.3039C74.019 26.2894 74.007 26.2771 73.9929 26.2677H73.9553C73.8876 26.1991 73.8501 26.1991 73.7749 26.2677L73.5117 26.5038C73.3601 26.4363 73.196 26.4026 73.0305 26.4048V26.3743ZM73.0305 29.4219C72.5192 29.4219 72.3689 29.3305 72.3689 29.0334C72.3606 28.9546 72.3773 28.8753 72.4165 28.8068C72.4557 28.7384 72.5154 28.6843 72.5869 28.6524C72.7346 28.6619 72.8828 28.6619 73.0305 28.6524C73.5267 28.6524 73.6997 28.7057 73.6997 29.0029C73.6997 29.3 73.5343 29.4524 73.0305 29.4524V29.4219ZM72.5869 28.66C72.5188 28.6935 72.4622 28.7471 72.4247 28.8137C72.3871 28.8803 72.3703 28.9569 72.3764 29.0334C72.3764 29.3229 72.5267 29.4143 73.0305 29.4143C73.5343 29.4143 73.6846 29.3229 73.6846 29.0257C73.6846 28.7286 73.5267 28.6829 73.0305 28.6829C72.8829 28.6949 72.7348 28.6974 72.5869 28.6905V28.66ZM73.0305 27.7381C72.5944 27.7381 72.4215 27.5934 72.4215 27.2353V27.1667C72.4215 26.8315 72.617 26.6715 73.0305 26.6715C73.444 26.6715 73.6395 26.8391 73.6395 27.1667V27.2277C73.6395 27.5857 73.4666 27.7305 73.0305 27.7305V27.7381ZM73.0305 26.6867C72.6245 26.6867 72.429 26.8467 72.429 27.1743V27.2353C72.429 27.5857 72.6019 27.7305 73.0305 27.7305C73.4591 27.7305 73.632 27.5857 73.632 27.2353V27.1667C73.632 26.8467 73.429 26.6791 73.0305 26.6791V26.6867Z" fill="#009EDB"/>
<path d="M78.0222 26.0238C78.0222 26.1229 78.0222 26.1533 77.8943 26.1533H77.6237V27.7762C77.6237 28.4238 77.2853 28.7438 76.6161 28.7438C75.947 28.7438 75.6161 28.4238 75.6161 27.7762V27.3419C75.6025 27.2135 75.6179 27.0836 75.661 26.962C75.7042 26.8404 75.774 26.7304 75.8652 26.6402C75.9564 26.5499 76.0667 26.4818 76.1876 26.4411C76.3086 26.4003 76.4371 26.3879 76.5635 26.4048C76.7074 26.3807 76.8551 26.3996 76.9886 26.4591C77.1221 26.5187 77.2357 26.6162 77.3154 26.74V26.1914H76.6913C76.5861 26.1914 76.5635 26.1914 76.5635 26.0619C76.5635 25.9629 76.5635 25.9324 76.6913 25.9324H77.3154V25.6429C77.3154 25.5133 77.3154 25.4905 77.4582 25.4905H77.4432C77.556 25.4905 77.5936 25.4905 77.5936 25.6429V25.8943H77.8643C77.962 25.8943 77.9921 25.8943 77.9921 26.0238H78.0222ZM75.9395 27.7686C75.9395 28.2181 76.0898 28.4162 76.5936 28.4162C77.0973 28.4162 77.2552 28.2181 77.2552 27.7686V27.3419C77.2552 26.8924 77.0973 26.6943 76.5936 26.6943C76.0898 26.6943 75.9395 26.8924 75.9395 27.3419V27.7686Z" fill="#009EDB"/>
<path d="M76.617 28.7515C76.3447 28.7713 76.0754 28.684 75.8651 28.5077C75.7724 28.406 75.7022 28.2854 75.6594 28.154C75.6166 28.0226 75.6021 27.8834 75.617 27.7458V27.3115C75.603 27.1745 75.6172 27.0362 75.6586 26.905C75.7001 26.7739 75.7678 26.6529 75.8576 26.5496C75.9576 26.4552 76.0766 26.3839 76.2063 26.3405C76.3361 26.2971 76.4736 26.2826 76.6094 26.2981C76.7455 26.2823 76.8833 26.3045 77.0078 26.3622C77.1324 26.42 77.239 26.5111 77.3162 26.6258V26.1001H76.6922C76.5869 26.1001 76.5568 26.1001 76.5568 25.9629C76.5568 25.8562 76.5568 25.8258 76.6922 25.8258H77.3087V25.6429C77.3087 25.5134 77.3087 25.4829 77.4591 25.4829H77.444C77.5568 25.4829 77.5944 25.4829 77.5944 25.6429V25.8867H77.8651C77.9628 25.8867 78.0004 25.8867 78.0004 26.0239C78.0004 26.1229 78.0004 26.161 77.8651 26.161H77.5944V27.7762C77.6245 28.4239 77.2861 28.7515 76.617 28.7515ZM76.5643 26.4048C76.4369 26.3942 76.3087 26.4097 76.1873 26.4503C76.0659 26.4908 75.9538 26.5557 75.8576 26.641C75.7702 26.7457 75.7046 26.867 75.6646 26.9979C75.6245 27.1288 75.6109 27.2666 75.6245 27.4029V27.8372C75.6071 27.9743 75.6197 28.1136 75.6613 28.2452C75.7029 28.3769 75.7724 28.4977 75.8651 28.5991C76.0754 28.7749 76.3455 28.8597 76.617 28.8353C76.8882 28.8573 77.1574 28.7727 77.3688 28.5991C77.462 28.4978 77.5324 28.3772 77.5752 28.2457C77.618 28.1142 77.6323 27.9748 77.617 27.8372V26.1458H77.8952C77.9854 26.1458 78.023 26.1458 78.023 26.0239C78.023 25.9324 78.023 25.902 77.8952 25.902H77.617V25.6429C77.617 25.5134 77.617 25.4981 77.4741 25.4981H77.444C77.3237 25.4981 77.3087 25.4981 77.3087 25.6429V25.902H76.6922C76.5869 25.902 76.5719 25.902 76.5719 26.0239C76.5719 26.1153 76.5719 26.1458 76.6922 26.1458H77.3237V26.7248C77.2415 26.6025 77.1259 26.5071 76.991 26.4503C76.8562 26.3934 76.7079 26.3776 76.5643 26.4048ZM76.617 28.4543C76.1358 28.4543 75.9553 28.2791 75.9553 27.7991V27.3724C75.9553 26.9001 76.1433 26.7172 76.617 26.7172C77.0907 26.7172 77.2861 26.9001 77.2861 27.3724V27.7991C77.2861 28.241 77.0982 28.4239 76.617 28.4239V28.4543ZM76.617 26.7324C76.1508 26.7324 75.9628 26.9077 75.9628 27.3724V27.7991C75.9628 28.2715 76.1433 28.4391 76.617 28.4391C77.0907 28.4391 77.2711 28.2715 77.2711 27.7991V27.3724C77.2711 26.8696 77.0982 26.702 76.617 26.702V26.7324Z" fill="#009EDB"/>
<path d="M78.083 27.7686V27.3419C78.083 26.6943 78.4138 26.3667 79.0905 26.3667C79.5943 26.3667 79.8875 26.5419 80.0153 26.8696C80.083 26.8696 80.1507 26.7477 80.1507 26.5038C80.1507 26.4353 80.1507 26.4124 80.2559 26.4124H80.3311C80.4138 26.4124 80.4289 26.4124 80.4289 26.5038C80.4289 26.8772 80.286 27.06 80.068 27.121C80.076 27.1944 80.076 27.2685 80.068 27.3419V27.7686C80.068 28.4238 79.7371 28.7438 79.0755 28.7438C78.4138 28.7438 78.083 28.4086 78.083 27.7686ZM79.7447 27.3419C79.7447 26.8924 79.5868 26.6943 79.0905 26.6943C78.5943 26.6943 78.4214 26.8924 78.4214 27.3419V27.7686C78.4214 28.2181 78.5943 28.4162 79.0905 28.4162C79.5868 28.4162 79.7447 28.2181 79.7447 27.7686V27.3419Z" fill="#009EDB"/>
<path d="M79.0901 28.7514C78.3983 28.7514 78.075 28.4391 78.075 27.7686V27.3419C78.0631 27.2039 78.0797 27.0649 78.1237 26.9337C78.1677 26.8025 78.2382 26.6821 78.3307 26.58C78.5414 26.4044 78.8104 26.3171 79.0826 26.3362C79.5788 26.3362 79.8344 26.4962 80.0074 26.8391C80.0976 26.801 80.1352 26.679 80.1352 26.481C80.1352 26.4048 80.1352 26.3819 80.248 26.3819H80.3232C80.4059 26.3819 80.4284 26.3819 80.4284 26.481C80.4284 26.8162 80.3081 27.0295 80.0675 27.1057C80.0715 27.1768 80.0715 27.248 80.0675 27.3191V27.7457C80.0873 27.8811 80.0758 28.0193 80.0339 28.1494C79.9921 28.2795 79.9209 28.398 79.8262 28.4955C79.7314 28.593 79.6156 28.6668 79.4879 28.7113C79.3601 28.7557 79.224 28.7694 79.0901 28.7514ZM79.0901 26.3743C78.8186 26.3507 78.5489 26.4355 78.3382 26.6105C78.2455 26.7121 78.1753 26.8327 78.1325 26.9641C78.0897 27.0956 78.0752 27.2348 78.0901 27.3724V27.7991C78.0901 28.4619 78.4059 28.7667 79.0901 28.7667C79.3614 28.7894 79.6309 28.7048 79.842 28.5305C79.9347 28.4289 80.0048 28.3082 80.0476 28.1768C80.0904 28.0454 80.1049 27.9062 80.0901 27.7686V27.3419C80.0943 27.2683 80.0943 27.1945 80.0901 27.121C80.3307 27.0448 80.451 26.8391 80.451 26.5038C80.451 26.4352 80.451 26.42 80.3532 26.42H80.278C80.2029 26.42 80.1803 26.42 80.1803 26.5038C80.1803 26.7095 80.1352 26.8314 80.0374 26.8771C79.872 26.5343 79.5863 26.4048 79.0901 26.4048V26.3743ZM79.0901 28.4238C78.6089 28.4238 78.4209 28.241 78.4209 27.7686V27.3419C78.4209 26.8695 78.6014 26.6867 79.0901 26.6867C79.5788 26.6867 79.7442 26.8695 79.7442 27.3419V27.7686C79.7442 28.2486 79.5713 28.4238 79.0901 28.4238ZM79.0901 26.7019C78.6089 26.7019 78.4284 26.8695 78.4284 27.3419V27.7686C78.4284 28.2333 78.6164 28.4086 79.0901 28.4086C79.5638 28.4086 79.7367 28.241 79.7367 27.7686V27.3419C79.7367 26.8695 79.5638 26.7019 79.0901 26.7019Z" fill="#009EDB"/>
<path d="M80.9172 28.5534C80.9172 28.6753 80.9171 28.6981 80.7668 28.6981H80.7141C80.6014 28.6981 80.5713 28.6981 80.5713 28.5534V27.2353C80.5713 26.6562 80.8946 26.3667 81.5262 26.3667C82.1578 26.3667 82.4811 26.6715 82.4811 27.2353V28.5534C82.4811 28.6753 82.4811 28.6981 82.3307 28.6981H82.2781C82.1502 28.6981 82.1277 28.6981 82.1277 28.5534V27.2353C82.1277 26.8619 81.9923 26.6943 81.5262 26.6943C81.06 26.6943 80.9172 26.8696 80.9172 27.2353V28.5534Z" fill="#009EDB"/>
<path d="M82.3313 28.6905H82.2787C82.1509 28.6905 82.1283 28.6905 82.1283 28.5381V27.2353C82.1283 26.8467 81.9629 26.7019 81.5268 26.7019C81.0907 26.7019 80.9178 26.8467 80.9178 27.2353V28.5534C80.9178 28.6753 80.9178 28.7057 80.7674 28.7057H80.7148C80.602 28.7057 80.5644 28.7057 80.5644 28.5534V27.2353C80.5644 26.6562 80.8877 26.3591 81.5268 26.3591C81.6608 26.3451 81.7962 26.3581 81.9252 26.3973C82.0543 26.4366 82.1744 26.5012 82.2787 26.5876C82.3601 26.6728 82.4224 26.7747 82.4613 26.8865C82.5002 26.9982 82.5149 27.1172 82.5042 27.2353V28.5534C82.4817 28.6905 82.4591 28.6905 82.3313 28.6905ZM81.5268 26.6715C81.9704 26.6715 82.1358 26.8238 82.1358 27.22V28.5381C82.1358 28.66 82.1358 28.6753 82.2787 28.6753H82.3313C82.4516 28.6753 82.4742 28.6753 82.4742 28.5381V27.2353C82.4833 27.1191 82.4686 27.0023 82.4311 26.8922C82.3936 26.7821 82.334 26.681 82.2561 26.5953C82.1513 26.5102 82.0309 26.4469 81.9019 26.409C81.7729 26.3711 81.6377 26.3593 81.5042 26.3743C81.2358 26.3435 80.966 26.42 80.7524 26.5876C80.6687 26.6717 80.6038 26.7731 80.5623 26.8849C80.5208 26.9966 80.5036 27.1161 80.5118 27.2353V28.5534C80.5118 28.6753 80.5118 28.6905 80.6546 28.6905H80.7072C80.8275 28.6905 80.8501 28.6905 80.8501 28.5534V27.2353C80.9102 26.8391 81.0832 26.6867 81.5268 26.6867V26.6715Z" fill="#009EDB"/>
<path d="M86.0755 27.2277C86.0755 27.761 85.7672 28.0353 85.1356 28.0353C84.9732 28.0173 84.8093 28.0173 84.6469 28.0353C84.6137 28.0409 84.5838 28.0588 84.5629 28.0856C84.5421 28.1124 84.5318 28.146 84.5341 28.18C84.5341 28.241 84.5341 28.2867 84.6544 28.3096C84.8146 28.3222 84.9755 28.3222 85.1356 28.3096C85.3944 28.2913 85.6534 28.3412 85.8875 28.4543C85.9637 28.5101 86.0239 28.5853 86.0622 28.6723C86.1005 28.7592 86.1154 28.8549 86.1056 28.9496C86.1159 29.0528 86.1007 29.157 86.0613 29.2528C86.0219 29.3485 85.9596 29.4329 85.88 29.4981C85.6493 29.6223 85.3886 29.6778 85.1281 29.6581C84.8529 29.6824 84.5765 29.6269 84.3311 29.4981C84.2596 29.4403 84.2031 29.3656 84.1664 29.2807C84.1297 29.1957 84.114 29.103 84.1206 29.0105C84.1147 28.9122 84.1354 28.8141 84.1804 28.7269C84.2255 28.6396 84.2932 28.5664 84.3762 28.5153C84.3171 28.4912 84.267 28.4487 84.2332 28.394C84.1994 28.3392 84.1837 28.275 84.1883 28.2105C84.1883 28.0048 84.3086 27.8829 84.5567 27.8448C84.43 27.7899 84.3242 27.6949 84.2551 27.5741C84.186 27.4533 84.1573 27.313 84.1732 27.1743V27.1667C84.1732 26.6639 84.5266 26.4048 85.1281 26.4048C85.2881 26.4019 85.4469 26.433 85.5943 26.4962L85.8574 26.26C85.9326 26.1915 85.9702 26.1915 86.0454 26.26C86.1206 26.3286 86.1206 26.3667 86.0454 26.4429L85.8424 26.6562C85.9084 26.7243 85.9599 26.8055 85.9935 26.8946C86.0271 26.9838 86.0423 27.079 86.0379 27.1743L86.0755 27.2277ZM84.6845 28.6448C84.6157 28.6801 84.5584 28.7349 84.5197 28.8025C84.481 28.8701 84.4625 28.9477 84.4665 29.0258C84.4665 29.3305 84.6394 29.4067 85.1356 29.4067C85.6319 29.4067 85.7898 29.3305 85.7898 29.0181C85.7898 28.7058 85.6244 28.6753 85.1356 28.6753C84.9847 28.6766 84.8339 28.6664 84.6845 28.6448ZM85.7146 27.1667C85.7146 26.8391 85.5191 26.6791 85.1206 26.6791C84.7221 26.6791 84.5116 26.8391 84.5116 27.1667V27.2277C84.5116 27.5553 84.6544 27.7229 85.1206 27.7229C85.5868 27.7229 85.7146 27.5553 85.7146 27.2277V27.1667Z" fill="#009EDB"/>
<path d="M85.1355 29.7115C84.8609 29.7385 84.5845 29.6856 84.3385 29.5591C84.265 29.5008 84.2067 29.4253 84.1687 29.3389C84.1307 29.2526 84.1141 29.1582 84.1204 29.0638C84.1145 28.9655 84.1352 28.8675 84.1803 28.7802C84.2253 28.6929 84.293 28.6198 84.3761 28.5686C84.3169 28.5445 84.2668 28.5021 84.2331 28.4473C84.1993 28.3925 84.1835 28.3283 84.1881 28.2638C84.1881 28.0607 84.3084 27.9388 84.549 27.8981C84.4244 27.841 84.321 27.7453 84.2534 27.6249C84.1859 27.5044 84.1577 27.3653 84.1731 27.2277V27.1667C84.1699 27.0547 84.1912 26.9434 84.2354 26.8406C84.2796 26.7379 84.3456 26.6463 84.4287 26.5724C84.633 26.4208 84.8827 26.3455 85.1355 26.3591C85.2955 26.3562 85.4543 26.3873 85.6017 26.4505L85.8648 26.2219C85.94 26.1457 85.9776 26.1457 86.0528 26.2219C86.0979 26.26 86.1129 26.2829 86.1129 26.3134C86.1129 26.3438 86.1129 26.3667 86.0528 26.4124L85.8573 26.6181C85.9233 26.6862 85.9748 26.7674 86.0084 26.8565C86.042 26.9457 86.0571 27.0409 86.0528 27.1362V27.1972C86.0528 27.7305 85.7295 28.0048 85.1054 28.0048C84.943 27.9859 84.7791 27.9859 84.6167 28.0048C84.5862 28.0118 84.5591 28.0293 84.5399 28.0543C84.5207 28.0793 84.5106 28.1103 84.5114 28.1419C84.5114 28.2029 84.5114 28.241 84.6242 28.2638C84.7843 28.2779 84.9453 28.2779 85.1054 28.2638C85.3642 28.2456 85.6232 28.2955 85.8573 28.4086C85.936 28.4624 85.9986 28.5369 86.0384 28.6243C86.0782 28.7116 86.0936 28.8083 86.0829 28.9038C86.0943 29.009 86.0789 29.1154 86.0381 29.2128C85.9973 29.3102 85.9324 29.3954 85.8498 29.46C85.6367 29.6041 85.3908 29.6907 85.1355 29.7115ZM85.1355 26.3743C84.5415 26.3743 84.1881 26.6715 84.1881 27.1362V27.1972C84.1728 27.3349 84.2009 27.4739 84.2684 27.5944C84.336 27.7149 84.4395 27.8105 84.5641 27.8677C84.3159 27.9057 84.2032 28.02 84.2032 28.2257C84.2001 28.2889 84.2157 28.3516 84.2478 28.4058C84.2799 28.4601 84.3272 28.5035 84.3836 28.5305C84.3011 28.5804 84.2337 28.6522 84.1887 28.7382C84.1436 28.8241 84.1226 28.921 84.128 29.0181C84.1216 29.1114 84.1382 29.2047 84.1762 29.2898C84.2143 29.375 84.2726 29.4491 84.346 29.5057C84.848 29.7092 85.408 29.7092 85.9099 29.5057C85.9887 29.4401 86.0499 29.3555 86.088 29.2597C86.1261 29.1638 86.1399 29.0598 86.128 28.9572C86.1389 28.8635 86.1243 28.7686 86.0859 28.6826C86.0475 28.5967 85.9866 28.523 85.9099 28.4696C85.6767 28.3536 85.417 28.3036 85.158 28.3248C84.9981 28.3429 84.8367 28.3429 84.6768 28.3248C84.5941 28.3248 84.5565 28.2562 84.5565 28.1953C84.5542 28.1613 84.5645 28.1276 84.5853 28.1008C84.6062 28.074 84.6361 28.0561 84.6693 28.0505C84.8317 28.0312 84.9957 28.0312 85.158 28.0505C85.409 28.0673 85.6581 27.9975 85.8648 27.8524C85.9448 27.7755 86.0072 27.6818 86.0475 27.5778C86.0878 27.4737 86.105 27.362 86.0979 27.2505V27.1667C86.1031 27.0717 86.0877 26.9768 86.0526 26.8885C86.0175 26.8003 85.9636 26.721 85.8949 26.6562L86.1054 26.4429C86.1337 26.4202 86.1525 26.3876 86.158 26.3515C86.1556 26.3345 86.1496 26.3183 86.1405 26.3039C86.1315 26.2894 86.1195 26.2771 86.1054 26.2677C86.0302 26.1915 86.0001 26.1991 85.9174 26.2677L85.6543 26.5038C85.4913 26.4303 85.3137 26.3963 85.1355 26.4048V26.3743ZM85.1355 29.4219C84.6167 29.4219 84.4663 29.3305 84.4663 29.0334C84.4581 28.9546 84.4748 28.8753 84.514 28.8068C84.5532 28.7384 84.6129 28.6843 84.6844 28.6524C84.8346 28.662 84.9853 28.662 85.1355 28.6524C85.6242 28.6524 85.7971 28.7057 85.7971 29.0029C85.7971 29.3 85.5716 29.4524 85.1355 29.4524V29.4219ZM84.6844 28.66C84.6162 28.6935 84.5597 28.7471 84.5222 28.8137C84.4846 28.8803 84.4677 28.9569 84.4738 29.0334C84.4738 29.3229 84.6242 29.4143 85.1355 29.4143C85.6468 29.4143 85.7821 29.3229 85.7821 29.0257C85.7821 28.7286 85.6242 28.6829 85.1355 28.6829C84.9854 28.6951 84.8347 28.6976 84.6844 28.6905V28.66ZM85.1355 27.7381C84.6994 27.7381 84.5189 27.5934 84.5189 27.2353V27.1667C84.5189 26.8315 84.722 26.6715 85.1355 26.6715C85.549 26.6715 85.737 26.8391 85.737 27.1667V27.2277C85.7144 27.5857 85.5641 27.7305 85.1355 27.7305V27.7381ZM85.1355 26.6867C84.722 26.6867 84.5265 26.8467 84.5265 27.1743V27.2353C84.5265 27.5857 84.6994 27.7305 85.1355 27.7305C85.5716 27.7305 85.7295 27.5857 85.7295 27.2353V27.1667C85.7144 26.8467 85.5265 26.6791 85.1355 26.6791V26.6867Z" fill="#009EDB"/>
<path d="M86.9921 25.6962C86.9932 25.7259 86.9883 25.7554 86.9778 25.7831C86.9673 25.8108 86.9514 25.8361 86.931 25.8574C86.9107 25.8787 86.8863 25.8957 86.8593 25.9073C86.8324 25.9189 86.8034 25.9248 86.7741 25.9248C86.7439 25.9258 86.7137 25.9207 86.6855 25.9096C86.6572 25.8986 86.6315 25.8819 86.6097 25.8606C86.588 25.8393 86.5707 25.8137 86.5589 25.7855C86.5471 25.7573 86.541 25.7269 86.541 25.6962C86.543 25.6349 86.5684 25.5768 86.6119 25.5341C86.6554 25.4915 86.7136 25.4676 86.7741 25.4677C86.8326 25.4696 86.8881 25.4946 86.9288 25.5372C86.9694 25.5799 86.9922 25.6369 86.9921 25.6962ZM86.6012 26.5572C86.6012 26.4429 86.6012 26.4124 86.744 26.4124H86.7967C86.9094 26.4124 86.9395 26.4124 86.9395 26.5572V28.5534C86.9395 28.6753 86.9395 28.6981 86.7967 28.6981H86.744C86.6162 28.6981 86.6012 28.6981 86.6012 28.5534V26.5572Z" fill="#009EDB"/>
<path d="M86.7968 28.6905H86.7441C86.6163 28.6905 86.5937 28.6905 86.5937 28.5381V26.5572C86.5937 26.4429 86.5937 26.4048 86.7441 26.4048H86.7968C86.9095 26.4048 86.9471 26.4048 86.9471 26.5572V28.5533C86.9471 28.6905 86.9095 28.6905 86.7968 28.6905ZM86.7441 26.4048C86.6238 26.4048 86.6013 26.4048 86.6013 26.5419V28.5381C86.6013 28.66 86.6013 28.6752 86.7441 28.6752H86.7968C86.902 28.6752 86.9321 28.6752 86.9321 28.5381V26.5572C86.9321 26.4505 86.9321 26.42 86.7968 26.42L86.7441 26.4048ZM86.7441 25.9095C86.6843 25.9095 86.6269 25.8855 86.5846 25.8426C86.5423 25.7997 86.5186 25.7416 86.5186 25.681C86.5186 25.6203 86.5423 25.5622 86.5846 25.5193C86.6269 25.4765 86.6843 25.4524 86.7441 25.4524C86.8039 25.4524 86.8613 25.4765 86.9036 25.5193C86.9459 25.5622 86.9697 25.6203 86.9697 25.681C86.9697 25.7416 86.9459 25.7997 86.9036 25.8426C86.8613 25.8855 86.8039 25.9095 86.7441 25.9095ZM86.7441 25.46C86.7155 25.46 86.6871 25.4657 86.6607 25.4768C86.6342 25.4879 86.6102 25.5042 86.5899 25.5247C86.5697 25.5452 86.5536 25.5696 86.5427 25.5964C86.5317 25.6232 86.5261 25.6519 86.5261 25.681C86.5261 25.71 86.5317 25.7387 86.5427 25.7655C86.5536 25.7923 86.5697 25.8167 86.5899 25.8372C86.6102 25.8577 86.6342 25.874 86.6607 25.8851C86.6871 25.8962 86.7155 25.9019 86.7441 25.9019C86.802 25.9019 86.8574 25.8786 86.8983 25.8372C86.9392 25.7958 86.9622 25.7396 86.9622 25.681C86.9622 25.6224 86.9392 25.5662 86.8983 25.5247C86.8574 25.4833 86.802 25.46 86.7441 25.46Z" fill="#009EDB"/>
<path d="M89.2486 28.0123C89.2486 28.5304 88.9553 28.7742 88.2937 28.7742C87.7674 28.7742 87.4365 28.5609 87.4365 28.0809C87.4365 27.6009 87.7448 27.4028 88.3689 27.4028H88.9102V27.0904C88.9102 26.7781 88.6922 26.6714 88.3087 26.6714C88.1394 26.6703 87.9704 26.6882 87.8049 26.7247C87.6922 26.7247 87.6546 26.7247 87.6546 26.6104V26.5723C87.6546 26.4657 87.6546 26.4352 87.7974 26.4123C87.961 26.3806 88.1272 26.3653 88.2937 26.3666C88.9328 26.3666 89.2486 26.6104 89.2486 27.0904V28.0123ZM88.9102 27.6466H88.3689C87.9628 27.6466 87.7749 27.7609 87.7749 28.0504C87.7749 28.34 87.9478 28.4466 88.2937 28.4466C88.6395 28.4466 88.9102 28.3476 88.9102 27.9971V27.6466ZM88.3689 26.1228C88.2861 26.1228 88.2786 26.1228 88.2636 26.0314C88.2486 25.94 88.3313 25.8485 88.4666 25.7038C88.4987 25.6767 88.5201 25.6388 88.5267 25.5971C88.5267 25.5133 88.5267 25.4752 88.444 25.4752C88.3773 25.459 88.3078 25.459 88.241 25.4752C88.1884 25.4752 88.1508 25.4752 88.1207 25.4295V25.3914C88.1207 25.3228 88.1207 25.2923 88.1884 25.2695C88.2737 25.232 88.3661 25.2138 88.4591 25.2161C88.5038 25.2124 88.5488 25.2188 88.5907 25.2349C88.6327 25.251 88.6706 25.2764 88.7016 25.3093C88.7326 25.3422 88.7559 25.3817 88.7699 25.4249C88.7839 25.4681 88.7882 25.5139 88.7824 25.559C88.7824 25.7571 88.5117 25.8409 88.5042 25.9933C88.5011 26.0164 88.4906 26.0379 88.4743 26.0544C88.458 26.071 88.4368 26.0816 88.414 26.0847L88.3689 26.1228Z" fill="#009EDB"/>
<path d="M88.2934 28.7514C87.7295 28.7514 87.4287 28.5076 87.4287 28.0505C87.4287 27.5933 87.7144 27.3648 88.3686 27.3648H88.9024V27.0905C88.9024 26.8009 88.7219 26.679 88.3084 26.679C88.1394 26.6766 87.9706 26.692 87.8047 26.7248C87.7445 26.7248 87.7069 26.7248 87.6844 26.7248C87.6618 26.7248 87.6844 26.6714 87.6844 26.6181V26.58C87.6844 26.4733 87.6843 26.4428 87.8272 26.4124C87.9906 26.3799 88.1569 26.3646 88.3234 26.3667C88.9625 26.3667 89.2859 26.6181 89.2859 27.1286V28.0505C89.2558 28.5229 88.955 28.7514 88.2934 28.7514ZM88.3686 27.38C87.7219 27.38 87.4362 27.5857 87.4362 28.0505C87.4362 28.5152 87.7295 28.7362 88.2934 28.7362C88.5553 28.7642 88.8191 28.7053 89.0453 28.5686C89.1268 28.5029 89.1909 28.4177 89.2316 28.3205C89.2723 28.2234 89.2884 28.1174 89.2783 28.0124V27.0905C89.2843 26.9873 89.2655 26.8842 89.2236 26.79C89.1817 26.6958 89.118 26.6133 89.0377 26.5495C88.8227 26.4189 88.5736 26.3578 88.3234 26.3743C88.1569 26.3722 87.9906 26.3876 87.8272 26.42C87.7144 26.42 87.6919 26.4657 87.6919 26.5724V26.6105C87.6919 26.6638 87.6919 26.6943 87.6919 26.7095C87.6919 26.7248 87.7445 26.7095 87.8047 26.7095C87.9702 26.6734 88.1391 26.6555 88.3084 26.6562C88.7295 26.6562 88.9099 26.7857 88.9099 27.0829V27.3724L88.3686 27.38ZM88.2934 28.4467C87.94 28.4467 87.7746 28.3171 87.7746 28.0505C87.7746 27.7838 87.955 27.639 88.3686 27.639H88.9099V27.9971C88.9099 28.3705 88.6768 28.4467 88.2934 28.4467ZM88.3686 27.6848C87.955 27.6848 87.7821 27.799 87.7821 28.0809C87.7821 28.3629 87.9475 28.4695 88.2934 28.4695C88.6392 28.4695 88.9024 28.3476 88.9024 28.0276V27.6848H88.3686ZM88.3686 26.1609C88.2783 26.1609 88.2708 26.1609 88.2558 26.0695C88.2407 25.9781 88.3009 25.9019 88.3986 25.7952L88.4663 25.7267C88.4812 25.7145 88.4935 25.6995 88.5025 25.6825C88.5115 25.6655 88.5171 25.6468 88.5189 25.6276C88.5189 25.5438 88.5189 25.5133 88.4437 25.5057C88.3834 25.5075 88.3243 25.5231 88.2708 25.5514C88.2107 25.5514 88.1731 25.5514 88.1355 25.4981V25.46C88.1355 25.3838 88.1355 25.3609 88.2031 25.3381C88.2885 25.3006 88.3808 25.2824 88.4738 25.2848C88.5614 25.2822 88.6469 25.312 88.7144 25.3686C88.7449 25.4037 88.768 25.4449 88.7822 25.4894C88.7965 25.534 88.8015 25.581 88.7971 25.6276C88.7903 25.6787 88.7735 25.728 88.7477 25.7725C88.7218 25.8169 88.6875 25.8558 88.6468 25.8867C88.5843 25.9271 88.5388 25.9895 88.5189 26.0619C88.5172 26.0856 88.5071 26.1078 88.4906 26.1246C88.474 26.1414 88.4521 26.1516 88.4287 26.1533L88.3686 26.1609ZM88.4212 25.4981C88.4663 25.4981 88.5114 25.4981 88.5114 25.6276C88.5047 25.6694 88.4834 25.7072 88.4513 25.7343L88.3836 25.8029C88.2859 25.9019 88.2332 25.9552 88.2407 26.0619C88.2483 26.1686 88.2407 26.1457 88.346 26.1457C88.3669 26.1426 88.3862 26.1328 88.4011 26.1177C88.416 26.1026 88.4257 26.083 88.4287 26.0619C88.4482 25.9873 88.4936 25.9224 88.5565 25.879C88.5988 25.8535 88.6354 25.8193 88.6639 25.7786C88.6923 25.738 88.7121 25.6917 88.7219 25.6429C88.7257 25.5974 88.7204 25.5517 88.7062 25.5085C88.6919 25.4653 88.6692 25.4254 88.6392 25.3914C88.5756 25.3333 88.4917 25.3031 88.4062 25.3076C88.3132 25.3052 88.2208 25.3234 88.1355 25.3609C88.0828 25.3609 88.0528 25.4067 88.0753 25.4752C88.0753 25.5438 88.143 25.5438 88.1956 25.5286C88.2663 25.4964 88.3447 25.4858 88.4212 25.4981Z" fill="#009EDB"/>
<path d="M90.0832 28.5534C90.0832 28.6753 90.0832 28.6981 89.9328 28.6981H89.8802C89.7674 28.6981 89.7373 28.6981 89.7373 28.5534V27.2353C89.7373 26.6562 90.0606 26.3667 90.6922 26.3667C91.3238 26.3667 91.6471 26.6715 91.6471 27.2353V28.5534C91.6471 28.6753 91.6471 28.6981 91.4967 28.6981H91.4441C91.3163 28.6981 91.2937 28.6981 91.2937 28.5534V27.2353C91.2937 26.8619 91.1584 26.6943 90.6922 26.6943C90.226 26.6943 90.0832 26.8696 90.0832 27.2353V28.5534Z" fill="#009EDB"/>
<path d="M91.4963 28.6905H91.4437C91.3159 28.6905 91.2933 28.6905 91.2933 28.5381V27.2353C91.2933 26.8467 91.1279 26.7019 90.6918 26.7019C90.2557 26.7019 90.0828 26.8467 90.0828 27.2353V28.5534C90.0828 28.6753 90.0828 28.7057 89.9324 28.7057H89.8798C89.767 28.7057 89.7294 28.7057 89.7294 28.5534V27.2353C89.7294 26.6562 90.0527 26.3591 90.6918 26.3591C90.8258 26.3451 90.9612 26.3581 91.0903 26.3973C91.2193 26.4366 91.3394 26.5012 91.4437 26.5876C91.5251 26.6728 91.5874 26.7747 91.6264 26.8865C91.6653 26.9982 91.6799 27.1172 91.6693 27.2353V28.5534C91.6467 28.6905 91.6242 28.6905 91.4963 28.6905ZM90.6918 26.6715C91.1354 26.6715 91.3009 26.8238 91.3009 27.22V28.5381C91.3009 28.66 91.3009 28.6753 91.4437 28.6753H91.4963C91.6166 28.6753 91.6392 28.6753 91.6392 28.5381V27.2353C91.6483 27.1191 91.6337 27.0023 91.5961 26.8922C91.5586 26.7821 91.499 26.681 91.4212 26.5953C91.3163 26.5102 91.1959 26.4469 91.0669 26.409C90.9379 26.3711 90.8028 26.3593 90.6693 26.3743C90.4008 26.3435 90.1311 26.42 89.9174 26.5876C89.8337 26.6717 89.7689 26.7731 89.7274 26.8849C89.6858 26.9966 89.6686 27.1161 89.6768 27.2353V28.5534C89.6768 28.6753 89.7144 28.6905 89.8197 28.6905H89.8723C89.9926 28.6905 90.0151 28.6905 90.0151 28.5534V27.2353C90.0753 26.8391 90.2257 26.6867 90.6918 26.6867V26.6715Z" fill="#009EDB"/>
<path d="M93.4434 25.6429C93.4434 25.5133 93.4434 25.4905 93.5937 25.4905H93.6464C93.7667 25.4905 93.7892 25.4905 93.7892 25.6429V26.7171C93.8759 26.6021 93.9912 26.5126 94.1234 26.4577C94.2555 26.4028 94.3997 26.3845 94.5411 26.4048C95.0975 26.4048 95.3832 26.6714 95.3832 27.22V28.5914C95.3832 28.7133 95.3832 28.7362 95.2404 28.7362H95.1802C95.0599 28.7362 95.0373 28.7362 95.0373 28.5914V27.22C95.0373 26.8543 94.8719 26.6943 94.4509 26.6943C94.0298 26.6943 93.8193 26.8695 93.8193 27.2962V28.5533C93.8193 28.6752 93.8193 28.6981 93.6764 28.6981H93.6238C93.5035 28.6981 93.4734 28.6981 93.4734 28.5533L93.4434 25.6429Z" fill="#009EDB"/>
<path d="M95.2103 28.6905H95.1501C95.0298 28.6905 94.9998 28.6905 94.9998 28.5381V27.2201C94.9998 26.8467 94.8343 26.702 94.4208 26.702C94.0073 26.702 93.7967 26.8772 93.7967 27.2962V28.5534C93.7967 28.6753 93.7967 28.7058 93.6464 28.7058H93.5937C93.481 28.7058 93.4434 28.7058 93.4434 28.5534V25.6429C93.4434 25.5058 93.4434 25.4829 93.5937 25.4829H93.6464C93.7667 25.4829 93.7967 25.4829 93.7967 25.6429V26.702C93.8848 26.5889 94.0006 26.5013 94.1325 26.4478C94.2645 26.3943 94.4079 26.3769 94.5486 26.3972C95.1125 26.3972 95.3982 26.6715 95.3982 27.2201V28.5915C95.3607 28.6905 95.3306 28.6905 95.2103 28.6905ZM94.4584 26.6715C94.8794 26.6715 95.0524 26.8315 95.0524 27.2048V28.5381C95.0524 28.6601 95.0524 28.6753 95.1877 28.6753H95.2479C95.3682 28.6753 95.3832 28.6753 95.3832 28.5381V27.1667C95.3832 26.6258 95.105 26.3591 94.5486 26.3591C94.4072 26.3389 94.263 26.3571 94.1309 26.412C93.9988 26.4669 93.8834 26.5565 93.7967 26.6715V25.6429C93.7967 25.521 93.7967 25.4981 93.6614 25.4981H93.6088C93.496 25.4981 93.4659 25.4981 93.4659 25.6429V28.5915C93.4659 28.7134 93.4659 28.7286 93.6088 28.7286H93.6614C93.7742 28.7286 93.7967 28.7286 93.7967 28.5915V27.2962C93.7817 26.8696 93.9847 26.6867 94.4208 26.6867L94.4584 26.6715Z" fill="#009EDB"/>
<path d="M95.8418 27.7685V27.3419C95.8418 26.6942 96.1726 26.3666 96.8493 26.3666C97.0363 26.3386 97.2273 26.3724 97.3938 26.463C97.5604 26.5536 97.6938 26.6961 97.7741 26.8695C97.8418 26.8695 97.9095 26.7476 97.9095 26.5038C97.9095 26.4352 97.9095 26.4123 98.0147 26.4123H98.0899C98.1726 26.4123 98.1877 26.4123 98.1877 26.5038C98.1877 26.8771 98.0373 27.06 97.8268 27.1209C97.8348 27.1943 97.8348 27.2684 97.8268 27.3419V27.7685C97.8268 28.4238 97.4959 28.7438 96.8343 28.7438C96.1726 28.7438 95.8418 28.4085 95.8418 27.7685ZM97.5034 27.3419C97.5034 26.8923 97.3456 26.6942 96.8493 26.6942C96.3531 26.6942 96.1801 26.8923 96.1801 27.3419V27.7685C96.1801 28.2181 96.3456 28.4162 96.8493 28.4162C97.3531 28.4162 97.5034 28.2181 97.5034 27.7685V27.3419Z" fill="#009EDB"/>
<path d="M96.8498 28.7514C96.1581 28.7514 95.8348 28.4391 95.8348 27.7686V27.3419C95.8229 27.2039 95.8395 27.0649 95.8835 26.9337C95.9275 26.8025 95.998 26.6821 96.0904 26.58C96.3011 26.4044 96.5702 26.3171 96.8423 26.3362C97.3386 26.3362 97.6318 26.4962 97.7671 26.8391C97.8574 26.801 97.8949 26.679 97.8949 26.481C97.8949 26.4048 97.895 26.3819 98.0077 26.3819H98.0829C98.1656 26.3819 98.1882 26.3819 98.1882 26.481C98.1882 26.8162 98.0679 27.0295 97.8273 27.1057C97.8313 27.1768 97.8313 27.248 97.8273 27.3191V27.7457C97.8471 27.8811 97.8356 28.0193 97.7937 28.1494C97.7518 28.2795 97.6807 28.398 97.5859 28.4955C97.4912 28.593 97.3754 28.6668 97.2476 28.7113C97.1199 28.7557 96.9837 28.7694 96.8498 28.7514ZM96.8498 26.3743C96.5784 26.3507 96.3086 26.4355 96.098 26.6105C96.0052 26.7121 95.9351 26.8327 95.8923 26.9641C95.8495 27.0956 95.835 27.2348 95.8498 27.3724V27.7991C95.8498 28.4619 96.1656 28.7667 96.8498 28.7667C97.1212 28.7894 97.3907 28.7048 97.6017 28.5305C97.6944 28.4289 97.7646 28.3082 97.8074 28.1768C97.8502 28.0454 97.8647 27.9062 97.8498 27.7686V27.3419C97.8538 27.2683 97.8538 27.1945 97.8498 27.121C98.0904 27.0448 98.2032 26.8391 98.2032 26.5038C98.2032 26.4352 98.2032 26.42 98.113 26.42H98.0378C97.9626 26.42 97.9401 26.42 97.9401 26.5038C97.9401 26.7095 97.895 26.8314 97.7972 26.8771C97.6318 26.5343 97.3461 26.4048 96.8498 26.4048V26.3743ZM96.8498 28.4238C96.3686 28.4238 96.1807 28.241 96.1807 27.7686V27.3419C96.1807 26.8695 96.3611 26.6867 96.8498 26.6867C97.3386 26.6867 97.504 26.8695 97.504 27.3419V27.7686C97.504 28.2486 97.331 28.4238 96.8498 28.4238ZM96.8498 26.7019C96.3686 26.7019 96.1882 26.8695 96.1882 27.3419V27.7686C96.1882 28.2333 96.3761 28.4086 96.8498 28.4086C97.3235 28.4086 97.4965 28.241 97.4965 27.7686V27.3419C97.4965 26.8695 97.3235 26.7019 96.8498 26.7019Z" fill="#009EDB"/>
<path d="M98.6768 28.5534C98.6768 28.6753 98.6768 28.6981 98.5264 28.6981H98.4964C98.3836 28.6981 98.3535 28.6981 98.3535 28.5534V27.2353C98.3535 26.6562 98.6693 26.3667 99.3084 26.3667C99.9475 26.3667 100.263 26.6715 100.263 27.2353V28.5534C100.263 28.6753 100.263 28.6981 100.113 28.6981H100.06C99.9325 28.6981 99.9099 28.6981 99.9099 28.5534V27.2353C99.9099 26.8619 99.7746 26.6943 99.3084 26.6943C98.8422 26.6943 98.6994 26.8696 98.6994 27.2353L98.6768 28.5534Z" fill="#009EDB"/>
<path d="M100.09 28.6905H100.037C99.9096 28.6905 99.8871 28.6905 99.8871 28.5381V27.2353C99.8871 26.8467 99.7217 26.7019 99.2856 26.7019C98.8495 26.7019 98.6766 26.8467 98.6766 27.2353V28.5534C98.6766 28.6753 98.6766 28.7057 98.5262 28.7057H98.4961C98.3833 28.7057 98.3457 28.7057 98.3457 28.5534V27.2353C98.3457 26.6562 98.669 26.3591 99.3081 26.3591C99.4421 26.3451 99.5776 26.3581 99.7066 26.3973C99.8356 26.4366 99.9557 26.5012 100.06 26.5876C100.141 26.6728 100.204 26.7747 100.243 26.8865C100.282 26.9982 100.296 27.1172 100.286 27.2353V28.5534C100.24 28.6905 100.218 28.6905 100.09 28.6905ZM99.2856 26.6715C99.7292 26.6715 99.8946 26.8238 99.8946 27.22V28.5381C99.8946 28.66 99.8946 28.6753 100.037 28.6753H100.09C100.21 28.6753 100.233 28.6753 100.233 28.5381V27.2353C100.242 27.1191 100.227 27.0023 100.19 26.8922C100.152 26.7821 100.093 26.681 100.015 26.5953C99.91 26.5102 99.7897 26.4469 99.6607 26.409C99.5317 26.3711 99.3965 26.3593 99.263 26.3743C98.9946 26.3435 98.7248 26.42 98.5111 26.5876C98.4275 26.6717 98.3626 26.7731 98.3211 26.8849C98.2796 26.9966 98.2623 27.1161 98.2705 27.2353V28.5534C98.2705 28.6753 98.3081 28.6905 98.4134 28.6905H98.4961C98.6164 28.6905 98.639 28.6905 98.639 28.5534V27.2353C98.669 26.8391 98.842 26.6867 99.2856 26.6867V26.6715Z" fill="#009EDB"/>
</g>
<defs>
<clipPath id="clip0_16_4559">
<rect width="104" height="32" fill="white" transform="translate(0 0.5)"/>
</clipPath>
</defs>
</svg>
