<svg width="36" height="35" viewBox="0 0 36 35" fill="none" xmlns="http://www.w3.org/2000/svg">
<path d="M27.3992 0H7.63674C5.61136 0 3.66893 0.804501 2.23677 2.23666C0.804611 3.66882 0 5.61136 0 7.63674V27.3635C0 29.3889 0.804611 31.3312 2.23677 32.7633C3.66893 34.1955 5.61136 35 7.63674 35H27.3992C29.4238 34.9976 31.3649 34.1924 32.7965 32.7607C34.2282 31.3291 35.0335 29.3881 35.0359 27.3635V7.63674C35.0359 5.61136 34.2313 3.66882 32.7991 2.23666C31.367 0.804501 29.4245 0 27.3992 0Z" fill="#ED1C24"/>
<path d="M22.8752 18.6448C24.1539 18.0009 24.1539 16.9546 22.8752 16.3197L15.2832 12.5103C15.046 12.34 14.7636 12.244 14.4717 12.2343C14.1799 12.2246 13.8918 12.3018 13.6438 12.4559C13.3958 12.6101 13.1992 12.8342 13.0787 13.1002C12.9582 13.3662 12.9194 13.662 12.9671 13.9501V21.0144C12.9215 21.3018 12.962 21.5962 13.0833 21.8606C13.2046 22.125 13.4014 22.3478 13.6489 22.5007C13.8965 22.6536 14.1836 22.7298 14.4744 22.7199C14.7652 22.71 15.0466 22.6146 15.2832 22.4453L22.8752 18.6448Z" fill="white"/>
</svg>
